<svg version="1.1" xmlns="http://www.w3.org/2000/svg" xmlns:xlink="http://www.w3.org/1999/xlink" width="1203" height="355"><defs/><g><g transform="translate(-662,-158) scale(1,1)"><rect fill="#C0C0C0" stroke="none" x="679" y="175" width="303" height="103" opacity="0.2"/></g><g transform="translate(-662,-158) scale(1,1)"><rect fill="#ffffff" stroke="none" x="672" y="168" width="303" height="103"/></g><g transform="translate(-662,-158) scale(1,1)"><path fill="none" stroke="#000000" d="M 672 168 L 975 168 L 975 271 L 672 271 L 672 168 Z Z" stroke-miterlimit="10"/></g><g transform="translate(-662,-158) scale(1,1)"><path fill="none" stroke="#000000" d="M 672 206 L 975 206" stroke-miterlimit="10"/></g><g transform="translate(-662,-158) scale(1,1)"><g><path fill="none" stroke="none"/><text fill="#000000" stroke="none" font-family="Arial" font-size="13px" font-style="normal" font-weight="normal" text-decoration="none" x="785.918701171875" y="185.5">«stereotype»</text></g></g><g transform="translate(-662,-158) scale(1,1)"><g><path fill="none" stroke="none"/><text fill="#000000" stroke="none" font-family="Arial" font-size="13px" font-style="normal" font-weight="bold" text-decoration="none" x="736.42919921875" y="200.5">NonHierarchialReferenceType</text></g></g><g transform="translate(-662,-158) scale(1,1)"><rect fill="#C0C0C0" stroke="none" x="1015" y="175" width="247" height="103" opacity="0.2"/></g><g transform="translate(-662,-158) scale(1,1)"><rect fill="#ffffff" stroke="none" x="1008" y="168" width="247" height="103"/></g><g transform="translate(-662,-158) scale(1,1)"><path fill="none" stroke="#000000" d="M 1008 168 L 1255 168 L 1255 271 L 1008 271 L 1008 168 Z Z" stroke-miterlimit="10"/></g><g transform="translate(-662,-158) scale(1,1)"><path fill="none" stroke="#000000" d="M 1008 206 L 1255 206" stroke-miterlimit="10"/></g><g transform="translate(-662,-158) scale(1,1)"><g><path fill="none" stroke="none"/><text fill="#000000" stroke="none" font-family="Arial" font-size="13px" font-style="normal" font-weight="normal" text-decoration="none" x="1093.918701171875" y="185.5">«stereotype»</text></g></g><g transform="translate(-662,-158) scale(1,1)"><g><path fill="none" stroke="none"/><text fill="#000000" stroke="none" font-family="Arial" font-size="13px" font-style="normal" font-weight="bold" text-decoration="none" x="1098.984130859375" y="200.5">FolderType</text></g></g><g transform="translate(-662,-158) scale(1,1)"><rect fill="#C0C0C0" stroke="none" x="1295" y="175" width="151" height="103" opacity="0.2"/></g><g transform="translate(-662,-158) scale(1,1)"><rect fill="#ffffff" stroke="none" x="1288" y="168" width="151" height="103"/></g><g transform="translate(-662,-158) scale(1,1)"><path fill="none" stroke="#000000" d="M 1288 168 L 1439 168 L 1439 271 L 1288 271 L 1288 168 Z Z" stroke-miterlimit="10"/></g><g transform="translate(-662,-158) scale(1,1)"><path fill="none" stroke="#000000" d="M 1288 206 L 1439 206" stroke-miterlimit="10"/></g><g transform="translate(-662,-158) scale(1,1)"><g><path fill="none" stroke="none"/><text fill="#000000" stroke="none" font-family="Arial" font-size="13px" font-style="normal" font-weight="normal" text-decoration="none" x="1325.918701171875" y="185.5">«stereotype»</text></g></g><g transform="translate(-662,-158) scale(1,1)"><g><path fill="none" stroke="none"/><text fill="#000000" stroke="none" font-family="Arial" font-size="13px" font-style="normal" font-weight="bold" text-decoration="none" x="1333.87548828125" y="200.5">Organizes</text></g></g><g transform="translate(-662,-158) scale(1,1)"><rect fill="#C0C0C0" stroke="none" x="1463" y="175" width="183" height="103" opacity="0.2"/></g><g transform="translate(-662,-158) scale(1,1)"><rect fill="#ffffff" stroke="none" x="1456" y="168" width="183" height="103"/></g><g transform="translate(-662,-158) scale(1,1)"><path fill="none" stroke="#000000" d="M 1456 168 L 1639 168 L 1639 271 L 1456 271 L 1456 168 Z Z" stroke-miterlimit="10"/></g><g transform="translate(-662,-158) scale(1,1)"><path fill="none" stroke="#000000" d="M 1456 206 L 1639 206" stroke-miterlimit="10"/></g><g transform="translate(-662,-158) scale(1,1)"><g><path fill="none" stroke="none"/><text fill="#000000" stroke="none" font-family="Arial" font-size="13px" font-style="normal" font-weight="normal" text-decoration="none" x="1509.918701171875" y="185.5">«stereotype»</text></g></g><g transform="translate(-662,-158) scale(1,1)"><g><path fill="none" stroke="none"/><text fill="#000000" stroke="none" font-family="Arial" font-size="13px" font-style="normal" font-weight="bold" text-decoration="none" x="1502.33642578125" y="200.5">HasComponent</text></g></g><g transform="translate(-662,-158) scale(1,1)"><rect fill="#C0C0C0" stroke="none" x="1679" y="175" width="183" height="103" opacity="0.2"/></g><g transform="translate(-662,-158) scale(1,1)"><rect fill="#ffffff" stroke="none" x="1672" y="168" width="183" height="103"/></g><g transform="translate(-662,-158) scale(1,1)"><path fill="none" stroke="#000000" d="M 1672 168 L 1855 168 L 1855 271 L 1672 271 L 1672 168 Z Z" stroke-miterlimit="10"/></g><g transform="translate(-662,-158) scale(1,1)"><path fill="none" stroke="#000000" d="M 1672 206 L 1855 206" stroke-miterlimit="10"/></g><g transform="translate(-662,-158) scale(1,1)"><g><path fill="none" stroke="none"/><text fill="#000000" stroke="none" font-family="Arial" font-size="13px" font-style="normal" font-weight="normal" text-decoration="none" x="1725.918701171875" y="185.5">«stereotype»</text></g></g><g transform="translate(-662,-158) scale(1,1)"><g><path fill="none" stroke="none"/><text fill="#000000" stroke="none" font-family="Arial" font-size="13px" font-style="normal" font-weight="bold" text-decoration="none" x="1727.37548828125" y="200.5">HasProperty</text></g></g><g transform="translate(-662,-158) scale(1,1)"><rect fill="#C0C0C0" stroke="none" x="687" y="303" width="279" height="79" opacity="0.2"/></g><g transform="translate(-662,-158) scale(1,1)"><rect fill="#ffffff" stroke="none" x="680" y="296" width="279" height="79"/></g><g transform="translate(-662,-158) scale(1,1)"><path fill="none" stroke="#000000" d="M 680 296 L 959 296 L 959 375 L 680 375 L 680 296 Z Z" stroke-miterlimit="10"/></g><g transform="translate(-662,-158) scale(1,1)"><path fill="none" stroke="#000000" d="M 680 334 L 959 334" stroke-miterlimit="10"/></g><g transform="translate(-662,-158) scale(1,1)"><g><path fill="none" stroke="none"/><text fill="#000000" stroke="none" font-family="Arial" font-size="13px" font-style="normal" font-weight="normal" text-decoration="none" x="781.918701171875" y="313.5">«stereotype»</text></g></g><g transform="translate(-662,-158) scale(1,1)"><g><path fill="none" stroke="none"/><text fill="#000000" stroke="none" font-family="Arial" font-size="13px" font-style="normal" font-weight="bold" text-decoration="none" x="768.195068359375" y="328.5">HasModelingRule</text></g></g><g transform="translate(-662,-158) scale(1,1)"><rect fill="#C0C0C0" stroke="none" x="1047" y="311" width="215" height="79" opacity="0.2"/></g><g transform="translate(-662,-158) scale(1,1)"><rect fill="#ffffff" stroke="none" x="1040" y="304" width="215" height="79"/></g><g transform="translate(-662,-158) scale(1,1)"><path fill="none" stroke="#000000" d="M 1040 304 L 1255 304 L 1255 383 L 1040 383 L 1040 304 Z Z" stroke-miterlimit="10"/></g><g transform="translate(-662,-158) scale(1,1)"><path fill="none" stroke="#000000" d="M 1040 342 L 1255 342" stroke-miterlimit="10"/></g><g transform="translate(-662,-158) scale(1,1)"><g><path fill="none" stroke="none"/><text fill="#000000" stroke="none" font-family="Arial" font-size="13px" font-style="normal" font-weight="normal" text-decoration="none" x="1109.918701171875" y="321.5">«stereotype»</text></g></g><g transform="translate(-662,-158) scale(1,1)"><g><path fill="none" stroke="none"/><text fill="#000000" stroke="none" font-family="Arial" font-size="13px" font-style="normal" font-weight="bold" text-decoration="none" x="1094.7509765625" y="336.5">HasTypeDefinition</text></g></g><g transform="translate(-662,-158) scale(1,1)"><rect fill="#C0C0C0" stroke="none" x="1303" y="311" width="143" height="87" opacity="0.2"/></g><g transform="translate(-662,-158) scale(1,1)"><rect fill="#ffffff" stroke="none" x="1296" y="304" width="143" height="87"/></g><g transform="translate(-662,-158) scale(1,1)"><path fill="none" stroke="#000000" d="M 1296 304 L 1439 304 L 1439 391 L 1296 391 L 1296 304 Z Z" stroke-miterlimit="10"/></g><g transform="translate(-662,-158) scale(1,1)"><path fill="none" stroke="#000000" d="M 1296 342 L 1439 342" stroke-miterlimit="10"/></g><g transform="translate(-662,-158) scale(1,1)"><g><path fill="none" stroke="none"/><text fill="#000000" stroke="none" font-family="Arial" font-size="13px" font-style="normal" font-weight="normal" text-decoration="none" x="1329.918701171875" y="321.5">«stereotype»</text></g></g><g transform="translate(-662,-158) scale(1,1)"><g><path fill="none" stroke="none"/><text fill="#000000" stroke="none" font-family="Arial" font-size="13px" font-style="normal" font-weight="bold" text-decoration="none" x="1318.724609375" y="336.5">HasEventSource</text></g></g><g transform="translate(-662,-158) scale(1,1)"><rect fill="#C0C0C0" stroke="none" x="1471" y="295" width="199" height="103" opacity="0.2"/></g><g transform="translate(-662,-158) scale(1,1)"><rect fill="#ffffff" stroke="none" x="1464" y="288" width="199" height="103"/></g><g transform="translate(-662,-158) scale(1,1)"><path fill="none" stroke="#000000" d="M 1464 288 L 1663 288 L 1663 391 L 1464 391 L 1464 288 Z Z" stroke-miterlimit="10"/></g><g transform="translate(-662,-158) scale(1,1)"><path fill="none" stroke="#000000" d="M 1464 326 L 1663 326" stroke-miterlimit="10"/></g><g transform="translate(-662,-158) scale(1,1)"><g><path fill="none" stroke="none"/><text fill="#000000" stroke="none" font-family="Arial" font-size="13px" font-style="normal" font-weight="normal" text-decoration="none" x="1525.918701171875" y="305.5">«stereotype»</text></g></g><g transform="translate(-662,-158) scale(1,1)"><g><path fill="none" stroke="none"/><text fill="#000000" stroke="none" font-family="Arial" font-size="13px" font-style="normal" font-weight="bold" text-decoration="none" x="1531.352294921875" y="320.5">HasNotifier</text></g></g><g transform="translate(-662,-158) scale(1,1)"><rect fill="#C0C0C0" stroke="none" x="687" y="415" width="239" height="79" opacity="0.2"/></g><g transform="translate(-662,-158) scale(1,1)"><rect fill="#ffffff" stroke="none" x="680" y="408" width="239" height="79"/></g><g transform="translate(-662,-158) scale(1,1)"><path fill="none" stroke="#000000" d="M 680 408 L 919 408 L 919 487 L 680 487 L 680 408 Z Z" stroke-miterlimit="10"/></g><g transform="translate(-662,-158) scale(1,1)"><path fill="none" stroke="#000000" d="M 680 446 L 919 446" stroke-miterlimit="10"/></g><g transform="translate(-662,-158) scale(1,1)"><g><path fill="none" stroke="none"/><text fill="#000000" stroke="none" font-family="Arial" font-size="13px" font-style="normal" font-weight="normal" text-decoration="none" x="761.918701171875" y="425.5">«stereotype»</text></g></g><g transform="translate(-662,-158) scale(1,1)"><g><path fill="none" stroke="none"/><text fill="#000000" stroke="none" font-family="Arial" font-size="13px" font-style="normal" font-weight="bold" text-decoration="none" x="764.81640625" y="440.5">Namespace</text></g></g><g transform="translate(-662,-158) scale(1,1)"><rect fill="#C0C0C0" stroke="none" x="1007" y="439" width="152" height="63" opacity="0.2"/></g><g transform="translate(-662,-158) scale(1,1)"><rect fill="#ffffff" stroke="none" x="1000" y="432" width="152" height="63"/></g><g transform="translate(-662,-158) scale(1,1)"><path fill="none" stroke="#000000" d="M 1000 432 L 1152 432 L 1152 495 L 1000 495 L 1000 432 Z Z" stroke-miterlimit="10"/></g><g transform="translate(-662,-158) scale(1,1)"><path fill="none" stroke="#000000" d="M 1000 470 L 1152 470" stroke-miterlimit="10"/></g><g transform="translate(-662,-158) scale(1,1)"><g><path fill="none" stroke="none"/><text fill="#000000" stroke="none" font-family="Arial" font-size="13px" font-style="normal" font-weight="normal" text-decoration="none" x="1038.418701171875" y="449.5">«stereotype»</text></g></g><g transform="translate(-662,-158) scale(1,1)"><g><path fill="none" stroke="none"/><text fill="#000000" stroke="none" font-family="Arial" font-size="13px" font-style="normal" font-weight="bold" text-decoration="none" x="1051.793212890625" y="464.5">Attribute</text></g></g><g transform="translate(-662,-158) scale(1,1)"><rect fill="#C0C0C0" stroke="none" x="1199" y="439" width="152" height="64" opacity="0.2"/></g><g transform="translate(-662,-158) scale(1,1)"><rect fill="#ffffff" stroke="none" x="1192" y="432" width="152" height="64"/></g><g transform="translate(-662,-158) scale(1,1)"><path fill="none" stroke="#000000" d="M 1192 432 L 1344 432 L 1344 496 L 1192 496 L 1192 432 Z Z" stroke-miterlimit="10"/></g><g transform="translate(-662,-158) scale(1,1)"><path fill="none" stroke="#000000" d="M 1192 470 L 1344 470" stroke-miterlimit="10"/></g><g transform="translate(-662,-158) scale(1,1)"><g><path fill="none" stroke="none"/><text fill="#000000" stroke="none" font-family="Arial" font-size="13px" font-style="normal" font-weight="normal" text-decoration="none" x="1230.418701171875" y="449.5">«stereotype»</text></g></g><g transform="translate(-662,-158) scale(1,1)"><g><path fill="none" stroke="none"/><text fill="#000000" stroke="none" font-family="Arial" font-size="13px" font-style="normal" font-weight="bold" text-decoration="none" x="1243.4345703125" y="464.5">Property</text></g></g><g transform="translate(-662,-158) scale(1,1)"><rect fill="#C0C0C0" stroke="none" x="1479" y="439" width="231" height="71" opacity="0.2"/></g><g transform="translate(-662,-158) scale(1,1)"><rect fill="#ffffff" stroke="none" x="1472" y="432" width="231" height="71"/></g><g transform="translate(-662,-158) scale(1,1)"><path fill="none" stroke="#000000" d="M 1472 432 L 1703 432 L 1703 503 L 1472 503 L 1472 432 Z Z" stroke-miterlimit="10"/></g><g transform="translate(-662,-158) scale(1,1)"><path fill="none" stroke="#000000" d="M 1472 470 L 1703 470" stroke-miterlimit="10"/></g><g transform="translate(-662,-158) scale(1,1)"><g><path fill="none" stroke="none"/><text fill="#000000" stroke="none" font-family="Arial" font-size="13px" font-style="normal" font-weight="normal" text-decoration="none" x="1549.918701171875" y="449.5">«stereotype»</text></g></g><g transform="translate(-662,-158) scale(1,1)"><g><path fill="none" stroke="none"/><text fill="#000000" stroke="none" font-family="Arial" font-size="13px" font-style="normal" font-weight="bold" text-decoration="none" x="1554.25732421875" y="464.5">Instantiates</text></g></g></g></svg>