<svg version="1.1" xmlns="http://www.w3.org/2000/svg" xmlns:xlink="http://www.w3.org/1999/xlink" width="1140" height="532"><defs/><g><g transform="translate(-366,-462) scale(1,1)"><rect fill="#ffffff" stroke="none" x="376" y="472" width="21" height="168"/></g><g transform="translate(-366,-462) scale(1,1)"><path fill="none" stroke="#000000" d="M 376 472 L 397 472 L 397 640 L 376 640 L 376 472 Z Z" stroke-miterlimit="10" stroke-width="2"/></g><g transform="translate(-366,-462) scale(1,1)"><path fill="none" stroke="#000000" d="M 1496 472 L 376 472 L 376 640 L 1496 640" stroke-miterlimit="10" stroke-width="2"/></g><g transform="translate(-366,-462) scale(1,1)"><g><path fill="none" stroke="none" transform="translate(380,556) rotate(-90,0,0)"/><text fill="#000000" stroke="none" font-family="Arial" font-size="13px" font-style="normal" font-weight="normal" text-decoration="none" x="-71.160400390625" y="13">MTConnectStreams Doc</text></g></g><g transform="translate(-366,-462) scale(1,1)"><rect fill="#ffffff" stroke="none" x="376" y="640" width="21" height="344"/></g><g transform="translate(-366,-462) scale(1,1)"><path fill="none" stroke="#000000" d="M 376 640 L 397 640 L 397 984 L 376 984 L 376 640 Z Z" stroke-miterlimit="10" stroke-width="2"/></g><g transform="translate(-366,-462) scale(1,1)"><path fill="none" stroke="#000000" d="M 1496 640 L 376 640 L 376 984 L 1496 984" stroke-miterlimit="10" stroke-width="2"/></g><g transform="translate(-366,-462) scale(1,1)"><g><path fill="none" stroke="none" transform="translate(380,812) rotate(-90,0,0)"/><text fill="#000000" stroke="none" font-family="Arial" font-size="13px" font-style="normal" font-weight="normal" text-decoration="none" x="-25.279541015625" y="13">OPC-UA</text></g></g><g transform="translate(-366,-462) scale(1,1)"><rect fill="#C0C0C0" stroke="none" x="471" y="543" width="170.57958984375" height="55" opacity="0.2"/></g><g transform="translate(-366,-462) scale(1,1)"><rect fill="#ffffff" stroke="none" x="464" y="536" width="170.57958984375" height="55"/></g><g transform="translate(-366,-462) scale(1,1)"><path fill="none" stroke="#000000" d="M 464 536 L 634.57958984375 536 L 634.57958984375 591 L 464 591 L 464 536 Z Z" stroke-miterlimit="10"/></g><g transform="translate(-366,-462) scale(1,1)"><rect fill="#ffffff" stroke="none" x="464" y="536" width="170.57958984375" height="55"/></g><g transform="translate(-366,-462) scale(1,1)"><path fill="none" stroke="#000000" d="M 464 536 L 634.57958984375 536 L 634.57958984375 591 L 464 591 L 464 536 Z Z" stroke-miterlimit="10"/></g><g transform="translate(-366,-462) scale(1,1)"><g><path fill="none" stroke="none"/><text fill="#000000" stroke="none" font-family="Arial" font-size="13px" font-style="normal" font-weight="normal" text-decoration="none" x="493.2939453125" y="553.5">«MTConnect XML»</text></g></g><g transform="translate(-366,-462) scale(1,1)"><g><path fill="none" stroke="none"/><text fill="#000000" stroke="none" font-family="Arial" font-size="13px" font-style="normal" font-weight="bold" text-decoration="none" x="532.66845703125" y="568.5">Event</text></g></g><g transform="translate(-366,-462) scale(1,1)"><path fill="#C0C0C0" stroke="none" d="M 505 783 L 655.57958984375 783 Q 665.57958984375 783 665.57958984375 793 L 665.57958984375 828 Q 665.57958984375 838 655.57958984375 838 L 505 838 Q 495 838 495 828 L 495 793 Q 495 783 505 783 Z" opacity="0.2"/></g><g transform="translate(-366,-462) scale(1,1)"><path fill="#ffffff" stroke="none" d="M 498 776 L 648.57958984375 776 Q 658.57958984375 776 658.57958984375 786 L 658.57958984375 821 Q 658.57958984375 831 648.57958984375 831 L 498 831 Q 488 831 488 821 L 488 786 Q 488 776 498 776 Z"/></g><g transform="translate(-366,-462) scale(1,1)"><path fill="none" stroke="#000000" d="M 498 776 L 648.57958984375 776 Q 658.57958984375 776 658.57958984375 786 L 658.57958984375 821 Q 658.57958984375 831 648.57958984375 831 L 498 831 Q 488 831 488 821 L 488 786 Q 488 776 498 776 Z" stroke-miterlimit="10"/></g><g transform="translate(-366,-462) scale(1,1)"><g><path fill="none" stroke="none"/><text fill="#000000" stroke="none" font-family="Arial" font-size="13px" font-style="normal" font-weight="bold" text-decoration="none" x="496.232421875" y="795.5">Set Event Timestamp UTC</text></g></g><g transform="translate(-366,-462) scale(1,1)"><path fill="#C0C0C0" stroke="none" d="M 863 747.5 L 880 735 L 896 747.5 L 880 759 L 863 747.5" opacity="0.2"/></g><g transform="translate(-366,-462) scale(1,1)"><path fill="#ffffff" stroke="none" d="M 856 740 L 872.5 728 L 889 740 L 872.5 752 L 856 740"/></g><g transform="translate(-366,-462) scale(1,1)"><path fill="none" stroke="#000000" d="M 856 740 L 872.5 728 L 889 740 L 872.5 752 L 856 740 L 856 740" stroke-miterlimit="10"/></g><g transform="translate(-366,-462) scale(1,1)"><path fill="none" stroke="#000000" d="M 659 804 L 728 804" stroke-miterlimit="10"/></g><g transform="translate(-366,-462) scale(1,1)"><path fill="none" stroke="#000000" d="M 717.8373251423759 808.209517756016 L 728 804 L 717.8373251423758 799.790482243984" stroke-miterlimit="10"/></g><g transform="translate(-366,-462) scale(1,1)"><path fill="#C0C0C0" stroke="none" d="M 1145 663 L 1295.57958984375 663 Q 1305.57958984375 663 1305.57958984375 673 L 1305.57958984375 708 Q 1305.57958984375 718 1295.57958984375 718 L 1145 718 Q 1135 718 1135 708 L 1135 673 Q 1135 663 1145 663 Z" opacity="0.2"/></g><g transform="translate(-366,-462) scale(1,1)"><path fill="#ffffff" stroke="none" d="M 1138 656 L 1288.57958984375 656 Q 1298.57958984375 656 1298.57958984375 666 L 1298.57958984375 701 Q 1298.57958984375 711 1288.57958984375 711 L 1138 711 Q 1128 711 1128 701 L 1128 666 Q 1128 656 1138 656 Z"/></g><g transform="translate(-366,-462) scale(1,1)"><path fill="none" stroke="#000000" d="M 1138 656 L 1288.57958984375 656 Q 1298.57958984375 656 1298.57958984375 666 L 1298.57958984375 701 Q 1298.57958984375 711 1288.57958984375 711 L 1138 711 Q 1128 711 1128 701 L 1128 666 Q 1128 656 1138 656 Z" stroke-miterlimit="10"/></g><g transform="translate(-366,-462) scale(1,1)"><g><path fill="none" stroke="none"/><text fill="#000000" stroke="none" font-family="Arial" font-size="13px" font-style="normal" font-weight="bold" text-decoration="none" x="1172.81396484375" y="675.5">Look up value</text></g></g><g transform="translate(-366,-462) scale(1,1)"><path fill="#C0C0C0" stroke="none" d="M 735 811.5 L 752 799 L 768 811.5 L 752 823 L 735 811.5" opacity="0.2"/></g><g transform="translate(-366,-462) scale(1,1)"><path fill="#ffffff" stroke="none" d="M 728 804 L 744.5 792 L 761 804 L 744.5 816 L 728 804"/></g><g transform="translate(-366,-462) scale(1,1)"><path fill="none" stroke="#000000" d="M 728 804 L 744.5 792 L 761 804 L 744.5 816 L 728 804 L 728 804" stroke-miterlimit="10"/></g><g transform="translate(-366,-462) scale(1,1)"><path fill="none" stroke="#000000" d="M 744 816 L 744 922 M 744 922 A 8 8 0 0 0 752 930 L 880 930" stroke-miterlimit="10"/></g><g transform="translate(-366,-462) scale(1,1)"><path fill="none" stroke="#000000" d="M 869.8373251423759 934.209517756016 L 880 930 L 869.8373251423758 925.790482243984" stroke-miterlimit="10"/></g><g transform="translate(-366,-462) scale(1,1)"><g><path fill="none" stroke="none"/><text fill="#000000" stroke="none" font-family="Arial" font-size="13px" font-style="normal" font-weight="normal" text-decoration="none" x="757.5" y="924.5">[UNAVAILABLE]</text></g></g><g transform="translate(-366,-462) scale(1,1)"><path fill="#C0C0C0" stroke="none" d="M 897 911 L 1047.57958984375 911 Q 1057.57958984375 911 1057.57958984375 921 L 1057.57958984375 956 Q 1057.57958984375 966 1047.57958984375 966 L 897 966 Q 887 966 887 956 L 887 921 Q 887 911 897 911 Z" opacity="0.2"/></g><g transform="translate(-366,-462) scale(1,1)"><path fill="#ffffff" stroke="none" d="M 890 904 L 1040.57958984375 904 Q 1050.57958984375 904 1050.57958984375 914 L 1050.57958984375 949 Q 1050.57958984375 959 1040.57958984375 959 L 890 959 Q 880 959 880 949 L 880 914 Q 880 904 890 904 Z"/></g><g transform="translate(-366,-462) scale(1,1)"><path fill="none" stroke="#000000" d="M 890 904 L 1040.57958984375 904 Q 1050.57958984375 904 1050.57958984375 914 L 1050.57958984375 949 Q 1050.57958984375 959 1040.57958984375 959 L 890 959 Q 880 959 880 949 L 880 914 Q 880 904 890 904 Z" stroke-miterlimit="10"/></g><g transform="translate(-366,-462) scale(1,1)"><g><path fill="none" stroke="none"/><text fill="#000000" stroke="none" font-family="Arial" font-size="13px" font-style="normal" font-weight="bold" text-decoration="none" x="920.48486328125" y="923.5">Set status code</text></g></g><g transform="translate(-366,-462) scale(1,1)"><path fill="none" stroke="#000000" d="M 744 792 L 744 748 M 744 748 A 8 8 0 0 1 752 740 L 856 740" stroke-miterlimit="10"/></g><g transform="translate(-366,-462) scale(1,1)"><path fill="none" stroke="#000000" d="M 845.8373251423759 744.209517756016 L 856 740 L 845.8373251423758 735.790482243984" stroke-miterlimit="10"/></g><g transform="translate(-366,-462) scale(1,1)"><g><path fill="none" stroke="none"/><text fill="#000000" stroke="none" font-family="Arial" font-size="13px" font-style="normal" font-weight="normal" text-decoration="none" x="765.5" y="732.5">[otherwise]</text></g></g><g transform="translate(-366,-462) scale(1,1)"><path fill="none" stroke="#000000" d="M 872 728 L 872 688 M 872 688 A 8 8 0 0 1 880 680 L 1128 680" stroke-miterlimit="10"/></g><g transform="translate(-366,-462) scale(1,1)"><path fill="none" stroke="#000000" d="M 1117.837325142376 684.209517756016 L 1128 680 L 1117.837325142376 675.790482243984" stroke-miterlimit="10"/></g><g transform="translate(-366,-462) scale(1,1)"><g><path fill="none" stroke="none"/><text fill="#000000" stroke="none" font-family="Arial" font-size="13px" font-style="normal" font-weight="normal" text-decoration="none" x="871.5" y="676.5">Type is MTEnumeratedEventType</text></g></g><g transform="translate(-366,-462) scale(1,1)"><path fill="#C0C0C0" stroke="none" d="M 1009 791 L 1159.57958984375 791 Q 1169.57958984375 791 1169.57958984375 801 L 1169.57958984375 836 Q 1169.57958984375 846 1159.57958984375 846 L 1009 846 Q 999 846 999 836 L 999 801 Q 999 791 1009 791 Z" opacity="0.2"/></g><g transform="translate(-366,-462) scale(1,1)"><path fill="#ffffff" stroke="none" d="M 1002 784 L 1152.57958984375 784 Q 1162.57958984375 784 1162.57958984375 794 L 1162.57958984375 829 Q 1162.57958984375 839 1152.57958984375 839 L 1002 839 Q 992 839 992 829 L 992 794 Q 992 784 1002 784 Z"/></g><g transform="translate(-366,-462) scale(1,1)"><path fill="none" stroke="#000000" d="M 1002 784 L 1152.57958984375 784 Q 1162.57958984375 784 1162.57958984375 794 L 1162.57958984375 829 Q 1162.57958984375 839 1152.57958984375 839 L 1002 839 Q 992 839 992 829 L 992 794 Q 992 784 1002 784 Z" stroke-miterlimit="10"/></g><g transform="translate(-366,-462) scale(1,1)"><g><path fill="none" stroke="none"/><text fill="#000000" stroke="none" font-family="Arial" font-size="13px" font-style="normal" font-weight="bold" text-decoration="none" x="1005.758056640625" y="803.5">Set DataValue to CDATA</text></g></g><g transform="translate(-366,-462) scale(1,1)"><path fill="none" stroke="#000000" d="M 872 752 L 872 800 M 872 800 A 8 8 0 0 0 880 808 L 992 808" stroke-miterlimit="10"/></g><g transform="translate(-366,-462) scale(1,1)"><path fill="none" stroke="#000000" d="M 981.8373251423759 812.209517756016 L 992 808 L 981.8373251423758 803.790482243984" stroke-miterlimit="10"/></g><g transform="translate(-366,-462) scale(1,1)"><g><path fill="none" stroke="none"/><text fill="#000000" stroke="none" font-family="Arial" font-size="13px" font-style="normal" font-weight="normal" text-decoration="none" x="902.5" y="804.5">[otherwise]</text></g></g><g transform="translate(-366,-462) scale(1,1)"><path fill="none" stroke="#000000" d="M 552 592 L 570 775" stroke-miterlimit="10"/></g><g transform="translate(-366,-462) scale(1,1)"><path fill="none" stroke="#000000" d="M 564.8158921685882 765.298194704474 L 570 775 L 573.1944945122244 764.4740698837885" stroke-miterlimit="10"/></g><g transform="translate(-366,-462) scale(1,1)"><g><path fill="none" stroke="none"/><text fill="#000000" stroke="none" font-family="Arial" font-size="13px" font-style="normal" font-weight="normal" text-decoration="none" x="489.5" y="699.5">timestamp</text></g></g><g transform="translate(-366,-462) scale(1,1)"><rect fill="#C0C0C0" stroke="none" x="1319" y="783" width="143" height="87" opacity="0.2"/></g><g transform="translate(-366,-462) scale(1,1)"><rect fill="#ffffff" stroke="none" x="1312" y="776" width="143" height="87"/></g><g transform="translate(-366,-462) scale(1,1)"><path fill="none" stroke="#000000" d="M 1312 776 L 1455 776 L 1455 863 L 1312 863 L 1312 776 Z Z" stroke-miterlimit="10"/></g><g transform="translate(-366,-462) scale(1,1)"><rect fill="#ffffff" stroke="none" x="1312" y="776" width="143" height="87"/></g><g transform="translate(-366,-462) scale(1,1)"><path fill="none" stroke="#000000" d="M 1312 776 L 1455 776 L 1455 863 L 1312 863 L 1312 776 Z Z" stroke-miterlimit="10"/></g><g transform="translate(-366,-462) scale(1,1)"><g><path fill="none" stroke="none"/><text fill="#000000" stroke="none" font-family="Arial" font-size="13px" font-style="normal" font-weight="bold" text-decoration="none" x="1341.2373046875" y="795.5">OPC DataItem</text></g></g><g transform="translate(-366,-462) scale(1,1)"><path fill="none" stroke="#000000" d="M 1299 688 L 1376 688 M 1376 688 A 8 8 0 0 1 1384 696 L 1384 776" stroke-miterlimit="10"/></g><g transform="translate(-366,-462) scale(1,1)"><path fill="none" stroke="#000000" d="M 1379.7904822439841 765.8373251423759 L 1384 776 L 1388.2095177560159 765.8373251423759" stroke-miterlimit="10"/></g><g transform="translate(-366,-462) scale(1,1)"><g><path fill="none" stroke="none"/><text fill="#000000" stroke="none" font-family="Arial" font-size="13px" font-style="normal" font-weight="normal" text-decoration="none" x="1306.5" y="676.5">DataValue = Enumerated Index</text></g></g><g transform="translate(-366,-462) scale(1,1)"><path fill="none" stroke="#000000" d="M 1163 808 L 1312 808" stroke-miterlimit="10"/></g><g transform="translate(-366,-462) scale(1,1)"><path fill="none" stroke="#000000" d="M 1301.837325142376 812.209517756016 L 1312 808 L 1301.837325142376 803.790482243984" stroke-miterlimit="10"/></g><g transform="translate(-366,-462) scale(1,1)"><g><path fill="none" stroke="none"/><text fill="#000000" stroke="none" font-family="Arial" font-size="13px" font-style="normal" font-weight="normal" text-decoration="none" x="1178.5" y="799.5">DataValue = CDATA</text></g></g><g transform="translate(-366,-462) scale(1,1)"><path fill="none" stroke="#000000" d="M 1051 928 L 1376 928 M 1376 928 A 8 8 0 0 0 1384 920 L 1384 863" stroke-miterlimit="10"/></g><g transform="translate(-366,-462) scale(1,1)"><path fill="none" stroke="#000000" d="M 1388.2095177560159 873.1626748576241 L 1384 863 L 1379.7904822439841 873.1626748576241" stroke-miterlimit="10"/></g><g transform="translate(-366,-462) scale(1,1)"><g><path fill="none" stroke="none"/><text fill="#000000" stroke="none" font-family="Arial" font-size="13px" font-style="normal" font-weight="normal" text-decoration="none" x="1063.5" y="948.5">StatusCode  = Uncertain_NoCommunicationLastUsable</text></g></g><g transform="translate(-366,-462) scale(1,1)"><path fill="none" stroke="#000000" d="M 572 592 L 733 791" stroke-miterlimit="10"/></g><g transform="translate(-366,-462) scale(1,1)"><path fill="none" stroke="#000000" d="M 723.3353555966406 785.7469391249849 L 733 791 L 729.8805393713369 780.4515894379191" stroke-miterlimit="10"/></g><g transform="translate(-366,-462) scale(1,1)"><g><path fill="none" stroke="none"/><text fill="#000000" stroke="none" font-family="Arial" font-size="13px" font-style="normal" font-weight="normal" text-decoration="none" x="664.5" y="695.5">CDATA</text></g></g></g></svg>