<svg version="1.1" xmlns="http://www.w3.org/2000/svg" xmlns:xlink="http://www.w3.org/1999/xlink" width="2091" height="531"><defs/><g><g transform="translate(-222,-662) scale(1,1)"><rect fill="#C0C0C0" stroke="none" x="527" y="679" width="199" height="103" opacity="0.2"/></g><g transform="translate(-222,-662) scale(1,1)"><rect fill="#ffffff" stroke="none" x="520" y="672" width="199" height="103"/></g><g transform="translate(-222,-662) scale(1,1)"><path fill="none" stroke="#000000" d="M 520 672 L 719 672 L 719 775 L 520 775 L 520 672 Z Z" stroke-miterlimit="10"/></g><g transform="translate(-222,-662) scale(1,1)"><path fill="none" stroke="#000000" d="M 520 710 L 719 710" stroke-miterlimit="10"/></g><g transform="translate(-222,-662) scale(1,1)"><g><path fill="none" stroke="none"/><text fill="#000000" stroke="none" font-family="Arial" font-size="13px" font-style="normal" font-weight="normal" text-decoration="none" x="574.701416015625" y="689.5">«Type Factory»</text></g></g><g transform="translate(-222,-662) scale(1,1)"><g><path fill="none" stroke="none"/><text fill="#000000" stroke="none" font-family="Arial" font-size="13px" font-style="italic" font-weight="bold" text-decoration="none" x="583.861083984375" y="704.5">TypeFactory</text></g></g><g transform="translate(-222,-662) scale(1,1)"><g><path fill="none" stroke="none"/><text fill="#000000" stroke="none" font-family="Arial" font-size="13px" font-style="italic" font-weight="normal" text-decoration="none" x="525" y="727.5">+deriveTypeName(element)</text></g></g><g transform="translate(-222,-662) scale(1,1)"><g><path fill="none" stroke="none"/><text fill="#000000" stroke="none" font-family="Arial" font-size="13px" font-style="normal" font-weight="normal" text-decoration="none" x="525" y="742.5">+createType(element)</text></g></g><g transform="translate(-222,-662) scale(1,1)"><rect fill="#C0C0C0" stroke="none" x="975" y="679" width="207" height="115" opacity="0.2"/></g><g transform="translate(-222,-662) scale(1,1)"><rect fill="#ffffff" stroke="none" x="968" y="672" width="207" height="115"/></g><g transform="translate(-222,-662) scale(1,1)"><path fill="none" stroke="#000000" d="M 968 672 L 1175 672 L 1175 787 L 968 787 L 968 672 Z Z" stroke-miterlimit="10"/></g><g transform="translate(-222,-662) scale(1,1)"><path fill="none" stroke="#000000" d="M 968 710 L 1175 710" stroke-miterlimit="10"/></g><g transform="translate(-222,-662) scale(1,1)"><g><path fill="none" stroke="none"/><text fill="#000000" stroke="none" font-family="Arial" font-size="13px" font-style="normal" font-weight="normal" text-decoration="none" x="1022.00732421875" y="689.5">«Object Factory»</text></g></g><g transform="translate(-222,-662) scale(1,1)"><g><path fill="none" stroke="none"/><text fill="#000000" stroke="none" font-family="Arial" font-size="13px" font-style="italic" font-weight="bold" text-decoration="none" x="1031.043212890625" y="704.5">ObjectFactory</text></g></g><g transform="translate(-222,-662) scale(1,1)"><g><path fill="none" stroke="none"/><text fill="#000000" stroke="none" font-family="Arial" font-size="13px" font-style="italic" font-weight="normal" text-decoration="none" x="973" y="727.5">+deriveBrowseName(element)</text></g></g><g transform="translate(-222,-662) scale(1,1)"><g><path fill="none" stroke="none"/><text fill="#000000" stroke="none" font-family="Arial" font-size="13px" font-style="italic" font-weight="normal" text-decoration="none" x="973" y="742.5">+deriveNodeId(element)</text></g></g><g transform="translate(-222,-662) scale(1,1)"><g><path fill="none" stroke="none"/><text fill="#000000" stroke="none" font-family="Arial" font-size="13px" font-style="normal" font-weight="normal" text-decoration="none" x="973" y="757.5">+deriveDisplayName(element)</text></g></g><g transform="translate(-222,-662) scale(1,1)"><g><path fill="none" stroke="none"/><text fill="#000000" stroke="none" font-family="Arial" font-size="13px" font-style="normal" font-weight="normal" text-decoration="none" x="973" y="772.5">+createObject(element)</text></g></g><g transform="translate(-222,-662) scale(1,1)"><rect fill="#C0C0C0" stroke="none" x="871" y="871" width="195.79248046875" height="115" opacity="0.2"/></g><g transform="translate(-222,-662) scale(1,1)"><rect fill="#ffffff" stroke="none" x="864" y="864" width="195.79248046875" height="115"/></g><g transform="translate(-222,-662) scale(1,1)"><path fill="none" stroke="#000000" d="M 864 864 L 1059.79248046875 864 L 1059.79248046875 979 L 864 979 L 864 864 Z Z" stroke-miterlimit="10"/></g><g transform="translate(-222,-662) scale(1,1)"><path fill="none" stroke="#000000" d="M 864 902 L 1059.79248046875 902" stroke-miterlimit="10"/></g><g transform="translate(-222,-662) scale(1,1)"><g><path fill="none" stroke="none"/><text fill="#000000" stroke="none" font-family="Arial" font-size="13px" font-style="normal" font-weight="normal" text-decoration="none" x="912.403564453125" y="881.5">«Object Factory»</text></g></g><g transform="translate(-222,-662) scale(1,1)"><g><path fill="none" stroke="none"/><text fill="#000000" stroke="none" font-family="Arial" font-size="13px" font-style="normal" font-weight="bold" text-decoration="none" x="895.068115234375" y="896.5">DataItemObjectFactory</text></g></g><g transform="translate(-222,-662) scale(1,1)"><g><path fill="none" stroke="none"/><text fill="#000000" stroke="none" font-family="Arial" font-size="13px" font-style="normal" font-weight="normal" text-decoration="none" x="869" y="919.5">+deriveSourceRelation(element)</text></g></g><g transform="translate(-222,-662) scale(1,1)"><g><path fill="none" stroke="none"/><text fill="#000000" stroke="none" font-family="Arial" font-size="13px" font-style="normal" font-weight="normal" text-decoration="none" x="869" y="934.5">+deriveDisplayName(element)</text></g></g><g transform="translate(-222,-662) scale(1,1)"><g><path fill="none" stroke="none"/><text fill="#000000" stroke="none" font-family="Arial" font-size="13px" font-style="normal" font-weight="normal" text-decoration="none" x="869" y="949.5">+deriveNodeId(element)</text></g></g><g transform="translate(-222,-662) scale(1,1)"><g><path fill="none" stroke="none"/><text fill="#000000" stroke="none" font-family="Arial" font-size="13px" font-style="normal" font-weight="normal" text-decoration="none" x="869" y="964.5">+deriveBrowseName(element)</text></g></g><g transform="translate(-222,-662) scale(1,1)"><path fill="none" stroke="#000000" d="M 961 864 L 961 836 M 961 836 A 8 8 0 0 1 969 828 L 1064 828 M 1064 828 A 8 8 0 0 0 1072 820 L 1072 787" stroke-miterlimit="10"/></g><g transform="translate(-222,-662) scale(1,1)"><path fill="#FFFFFF" stroke="none" d="M 1080.419035512032 807.3253497152483 L 1072 787 L 1063.580964487968 807.3253497152483"/></g><g transform="translate(-222,-662) scale(1,1)"><path fill="none" stroke="#000000" d="M 1080.419035512032 807.3253497152483 L 1072 787 L 1063.580964487968 807.3253497152483 L 1080.419035512032 807.3253497152483" stroke-miterlimit="10"/></g><g transform="translate(-222,-662) scale(1,1)"><rect fill="#C0C0C0" stroke="none" x="1083" y="871" width="184.931640625" height="115" opacity="0.2"/></g><g transform="translate(-222,-662) scale(1,1)"><rect fill="#ffffff" stroke="none" x="1076" y="864" width="184.931640625" height="115"/></g><g transform="translate(-222,-662) scale(1,1)"><path fill="none" stroke="#000000" d="M 1076 864 L 1260.931640625 864 L 1260.931640625 979 L 1076 979 L 1076 864 Z Z" stroke-miterlimit="10"/></g><g transform="translate(-222,-662) scale(1,1)"><path fill="none" stroke="#000000" d="M 1076 902 L 1260.931640625 902" stroke-miterlimit="10"/></g><g transform="translate(-222,-662) scale(1,1)"><g><path fill="none" stroke="none"/><text fill="#000000" stroke="none" font-family="Arial" font-size="13px" font-style="normal" font-weight="normal" text-decoration="none" x="1118.97314453125" y="881.5">«Object Factory»</text></g></g><g transform="translate(-222,-662) scale(1,1)"><g><path fill="none" stroke="none"/><text fill="#000000" stroke="none" font-family="Arial" font-size="13px" font-style="normal" font-weight="bold" text-decoration="none" x="1113.56494140625" y="896.5">FilterObjectFactory</text></g></g><g transform="translate(-222,-662) scale(1,1)"><g><path fill="none" stroke="none"/><text fill="#000000" stroke="none" font-family="Arial" font-size="13px" font-style="normal" font-weight="normal" text-decoration="none" x="1081" y="919.5">+deriveBrowseName(element)</text></g></g><g transform="translate(-222,-662) scale(1,1)"><g><path fill="none" stroke="none"/><text fill="#000000" stroke="none" font-family="Arial" font-size="13px" font-style="normal" font-weight="normal" text-decoration="none" x="1081" y="934.5">+deriveNodeId(element)</text></g></g><g transform="translate(-222,-662) scale(1,1)"><path fill="none" stroke="#000000" d="M 1168 864 L 1168 836 M 1168 836 A 8 8 0 0 0 1160 828 L 1080 828 M 1080 828 A 8 8 0 0 1 1072 820 L 1072 787" stroke-miterlimit="10"/></g><g transform="translate(-222,-662) scale(1,1)"><path fill="#FFFFFF" stroke="none" d="M 1080.419035512032 807.3253497152483 L 1072 787 L 1063.580964487968 807.3253497152483"/></g><g transform="translate(-222,-662) scale(1,1)"><path fill="none" stroke="#000000" d="M 1080.419035512032 807.3253497152483 L 1072 787 L 1063.580964487968 807.3253497152483 L 1080.419035512032 807.3253497152483" stroke-miterlimit="10"/></g><g transform="translate(-222,-662) scale(1,1)"><rect fill="#C0C0C0" stroke="none" x="623" y="871" width="208.08154296875" height="85" opacity="0.2"/></g><g transform="translate(-222,-662) scale(1,1)"><rect fill="#ffffff" stroke="none" x="616" y="864" width="208.08154296875" height="85"/></g><g transform="translate(-222,-662) scale(1,1)"><path fill="none" stroke="#000000" d="M 616 864 L 824.08154296875 864 L 824.08154296875 949 L 616 949 L 616 864 Z Z" stroke-miterlimit="10"/></g><g transform="translate(-222,-662) scale(1,1)"><path fill="none" stroke="#000000" d="M 616 902 L 824.08154296875 902" stroke-miterlimit="10"/></g><g transform="translate(-222,-662) scale(1,1)"><path fill="none" stroke="#000000" d="M 616 912 L 824.08154296875 912" stroke-miterlimit="10"/></g><g transform="translate(-222,-662) scale(1,1)"><g><path fill="none" stroke="none"/><text fill="#000000" stroke="none" font-family="Arial" font-size="13px" font-style="normal" font-weight="normal" text-decoration="none" x="675.2421875" y="881.5">«Type Factory»</text></g></g><g transform="translate(-222,-662) scale(1,1)"><g><path fill="none" stroke="none"/><text fill="#000000" stroke="none" font-family="Arial" font-size="13px" font-style="normal" font-weight="bold" text-decoration="none" x="657.90673828125" y="896.5">DataItemTypeFactory</text></g></g><g transform="translate(-222,-662) scale(1,1)"><g><path fill="none" stroke="none"/><text fill="#000000" stroke="none" font-family="Arial" font-size="13px" font-style="normal" font-weight="normal" text-decoration="none" x="621" y="929.5">+deriveParentType(type, subType)</text></g></g><g transform="translate(-222,-662) scale(1,1)"><g><path fill="none" stroke="none"/><text fill="#000000" stroke="none" font-family="Arial" font-size="13px" font-style="normal" font-weight="normal" text-decoration="none" x="621" y="944.5">+deriveTypeName(type, subType)</text></g></g><g transform="translate(-222,-662) scale(1,1)"><rect fill="#C0C0C0" stroke="none" x="431" y="871" width="169.76708984375" height="70" opacity="0.2"/></g><g transform="translate(-222,-662) scale(1,1)"><rect fill="#ffffff" stroke="none" x="424" y="864" width="169.76708984375" height="70"/></g><g transform="translate(-222,-662) scale(1,1)"><path fill="none" stroke="#000000" d="M 424 864 L 593.76708984375 864 L 593.76708984375 934 L 424 934 L 424 864 Z Z" stroke-miterlimit="10"/></g><g transform="translate(-222,-662) scale(1,1)"><path fill="none" stroke="#000000" d="M 424 902 L 593.76708984375 902" stroke-miterlimit="10"/></g><g transform="translate(-222,-662) scale(1,1)"><path fill="none" stroke="#000000" d="M 424 912 L 593.76708984375 912" stroke-miterlimit="10"/></g><g transform="translate(-222,-662) scale(1,1)"><g><path fill="none" stroke="none"/><text fill="#000000" stroke="none" font-family="Arial" font-size="13px" font-style="normal" font-weight="normal" text-decoration="none" x="464.0849609375" y="881.5">«Type Factory»</text></g></g><g transform="translate(-222,-662) scale(1,1)"><g><path fill="none" stroke="none"/><text fill="#000000" stroke="none" font-family="Arial" font-size="13px" font-style="normal" font-weight="bold" text-decoration="none" x="439.516357421875" y="896.5">ComponentTypeFactory</text></g></g><g transform="translate(-222,-662) scale(1,1)"><g><path fill="none" stroke="none"/><text fill="#000000" stroke="none" font-family="Arial" font-size="13px" font-style="normal" font-weight="normal" text-decoration="none" x="429" y="929.5">+deriveTypeName(element)</text></g></g><g transform="translate(-222,-662) scale(1,1)"><rect fill="#C0C0C0" stroke="none" x="1284" y="871" width="184.931640625" height="115" opacity="0.2"/></g><g transform="translate(-222,-662) scale(1,1)"><rect fill="#ffffff" stroke="none" x="1277" y="864" width="184.931640625" height="115"/></g><g transform="translate(-222,-662) scale(1,1)"><path fill="none" stroke="#000000" d="M 1277 864 L 1461.931640625 864 L 1461.931640625 979 L 1277 979 L 1277 864 Z Z" stroke-miterlimit="10"/></g><g transform="translate(-222,-662) scale(1,1)"><path fill="none" stroke="#000000" d="M 1277 902 L 1461.931640625 902" stroke-miterlimit="10"/></g><g transform="translate(-222,-662) scale(1,1)"><g><path fill="none" stroke="none"/><text fill="#000000" stroke="none" font-family="Arial" font-size="13px" font-style="normal" font-weight="normal" text-decoration="none" x="1319.97314453125" y="881.5">«Object Factory»</text></g></g><g transform="translate(-222,-662) scale(1,1)"><g><path fill="none" stroke="none"/><text fill="#000000" stroke="none" font-family="Arial" font-size="13px" font-style="normal" font-weight="bold" text-decoration="none" x="1295.404541015625" y="896.5">ComponentObjectFactory</text></g></g><g transform="translate(-222,-662) scale(1,1)"><g><path fill="none" stroke="none"/><text fill="#000000" stroke="none" font-family="Arial" font-size="13px" font-style="normal" font-weight="normal" text-decoration="none" x="1282" y="919.5">+deriveBrowseName(element)</text></g></g><g transform="translate(-222,-662) scale(1,1)"><g><path fill="none" stroke="none"/><text fill="#000000" stroke="none" font-family="Arial" font-size="13px" font-style="normal" font-weight="normal" text-decoration="none" x="1282" y="934.5">+deriveNodeId(element)</text></g></g><g transform="translate(-222,-662) scale(1,1)"><rect fill="#C0C0C0" stroke="none" x="1485" y="871" width="184.931640625" height="115" opacity="0.2"/></g><g transform="translate(-222,-662) scale(1,1)"><rect fill="#ffffff" stroke="none" x="1478" y="864" width="184.931640625" height="115"/></g><g transform="translate(-222,-662) scale(1,1)"><path fill="none" stroke="#000000" d="M 1478 864 L 1662.931640625 864 L 1662.931640625 979 L 1478 979 L 1478 864 Z Z" stroke-miterlimit="10"/></g><g transform="translate(-222,-662) scale(1,1)"><path fill="none" stroke="#000000" d="M 1478 902 L 1662.931640625 902" stroke-miterlimit="10"/></g><g transform="translate(-222,-662) scale(1,1)"><g><path fill="none" stroke="none"/><text fill="#000000" stroke="none" font-family="Arial" font-size="13px" font-style="normal" font-weight="normal" text-decoration="none" x="1520.97314453125" y="881.5">«Object Factory»</text></g></g><g transform="translate(-222,-662) scale(1,1)"><g><path fill="none" stroke="none"/><text fill="#000000" stroke="none" font-family="Arial" font-size="13px" font-style="normal" font-weight="bold" text-decoration="none" x="1493.88134765625" y="896.5">CompositionObjectFactory</text></g></g><g transform="translate(-222,-662) scale(1,1)"><g><path fill="none" stroke="none"/><text fill="#000000" stroke="none" font-family="Arial" font-size="13px" font-style="normal" font-weight="normal" text-decoration="none" x="1483" y="919.5">+deriveBrowseName(element)</text></g></g><g transform="translate(-222,-662) scale(1,1)"><g><path fill="none" stroke="none"/><text fill="#000000" stroke="none" font-family="Arial" font-size="13px" font-style="normal" font-weight="normal" text-decoration="none" x="1483" y="934.5">+deriveNodeId(element)</text></g></g><g transform="translate(-222,-662) scale(1,1)"><path fill="none" stroke="#000000" d="M 508 864 L 508 835 M 508 835 A 8 8 0 0 1 516 827 L 612 827 M 612 827 A 8 8 0 0 0 620 819 L 620 775" stroke-miterlimit="10"/></g><g transform="translate(-222,-662) scale(1,1)"><path fill="#FFFFFF" stroke="none" d="M 628.419035512032 795.3253497152483 L 620 775 L 611.580964487968 795.3253497152483"/></g><g transform="translate(-222,-662) scale(1,1)"><path fill="none" stroke="#000000" d="M 628.419035512032 795.3253497152483 L 620 775 L 611.580964487968 795.3253497152483 L 628.419035512032 795.3253497152483" stroke-miterlimit="10"/></g><g transform="translate(-222,-662) scale(1,1)"><path fill="none" stroke="#000000" d="M 720 864 L 720 835 M 720 835 A 8 8 0 0 0 712 827 L 628 827 M 628 827 A 8 8 0 0 1 620 819 L 620 775" stroke-miterlimit="10"/></g><g transform="translate(-222,-662) scale(1,1)"><path fill="#FFFFFF" stroke="none" d="M 628.419035512032 795.3253497152483 L 620 775 L 611.580964487968 795.3253497152483"/></g><g transform="translate(-222,-662) scale(1,1)"><path fill="none" stroke="#000000" d="M 628.419035512032 795.3253497152483 L 620 775 L 611.580964487968 795.3253497152483 L 628.419035512032 795.3253497152483" stroke-miterlimit="10"/></g><g transform="translate(-222,-662) scale(1,1)"><path fill="none" stroke="#000000" d="M 1369 864 L 1369 836 M 1369 836 A 8 8 0 0 0 1361 828 L 1080 828 M 1080 828 A 8 8 0 0 1 1072 820 L 1072 787" stroke-miterlimit="10"/></g><g transform="translate(-222,-662) scale(1,1)"><path fill="#FFFFFF" stroke="none" d="M 1080.419035512032 807.3253497152483 L 1072 787 L 1063.580964487968 807.3253497152483"/></g><g transform="translate(-222,-662) scale(1,1)"><path fill="none" stroke="#000000" d="M 1080.419035512032 807.3253497152483 L 1072 787 L 1063.580964487968 807.3253497152483 L 1080.419035512032 807.3253497152483" stroke-miterlimit="10"/></g><g transform="translate(-222,-662) scale(1,1)"><path fill="none" stroke="#000000" d="M 1570 864 L 1570 836 M 1570 836 A 8 8 0 0 0 1562 828 L 1080 828 M 1080 828 A 8 8 0 0 1 1072 820 L 1072 787" stroke-miterlimit="10"/></g><g transform="translate(-222,-662) scale(1,1)"><path fill="#FFFFFF" stroke="none" d="M 1080.419035512032 807.3253497152483 L 1072 787 L 1063.580964487968 807.3253497152483"/></g><g transform="translate(-222,-662) scale(1,1)"><path fill="none" stroke="#000000" d="M 1080.419035512032 807.3253497152483 L 1072 787 L 1063.580964487968 807.3253497152483 L 1080.419035512032 807.3253497152483" stroke-miterlimit="10"/></g><g transform="translate(-222,-662) scale(1,1)"><rect fill="#C0C0C0" stroke="none" x="239" y="871" width="169.76708984375" height="62" opacity="0.2"/></g><g transform="translate(-222,-662) scale(1,1)"><rect fill="#ffffff" stroke="none" x="232" y="864" width="169.76708984375" height="62"/></g><g transform="translate(-222,-662) scale(1,1)"><path fill="none" stroke="#000000" d="M 232 864 L 401.76708984375 864 L 401.76708984375 926 L 232 926 L 232 864 Z Z" stroke-miterlimit="10"/></g><g transform="translate(-222,-662) scale(1,1)"><path fill="none" stroke="#000000" d="M 232 902 L 401.76708984375 902" stroke-miterlimit="10"/></g><g transform="translate(-222,-662) scale(1,1)"><g><path fill="none" stroke="none"/><text fill="#000000" stroke="none" font-family="Arial" font-size="13px" font-style="normal" font-weight="normal" text-decoration="none" x="272.0849609375" y="881.5">«Type Factory»</text></g></g><g transform="translate(-222,-662) scale(1,1)"><g><path fill="none" stroke="none"/><text fill="#000000" stroke="none" font-family="Arial" font-size="13px" font-style="normal" font-weight="bold" text-decoration="none" x="251.496337890625" y="896.5">ConditionClassFactory</text></g></g><g transform="translate(-222,-662) scale(1,1)"><g><path fill="none" stroke="none"/><text fill="#000000" stroke="none" font-family="Arial" font-size="13px" font-style="normal" font-weight="normal" text-decoration="none" x="237" y="919.5">+deriveTypeName(element)</text></g></g><g transform="translate(-222,-662) scale(1,1)"><path fill="none" stroke="#000000" d="M 323 864 L 323 835 M 323 835 A 8 8 0 0 1 331 827 L 612 827 M 612 827 A 8 8 0 0 0 620 819 L 620 775" stroke-miterlimit="10"/></g><g transform="translate(-222,-662) scale(1,1)"><path fill="#FFFFFF" stroke="none" d="M 628.419035512032 795.3253497152483 L 620 775 L 611.580964487968 795.3253497152483"/></g><g transform="translate(-222,-662) scale(1,1)"><path fill="none" stroke="#000000" d="M 628.419035512032 795.3253497152483 L 620 775 L 611.580964487968 795.3253497152483 L 628.419035512032 795.3253497152483" stroke-miterlimit="10"/></g><g transform="translate(-222,-662) scale(1,1)"><rect fill="#C0C0C0" stroke="none" x="1686" y="871" width="184.931640625" height="115" opacity="0.2"/></g><g transform="translate(-222,-662) scale(1,1)"><rect fill="#ffffff" stroke="none" x="1679" y="864" width="184.931640625" height="115"/></g><g transform="translate(-222,-662) scale(1,1)"><path fill="none" stroke="#000000" d="M 1679 864 L 1863.931640625 864 L 1863.931640625 979 L 1679 979 L 1679 864 Z Z" stroke-miterlimit="10"/></g><g transform="translate(-222,-662) scale(1,1)"><path fill="none" stroke="#000000" d="M 1679 902 L 1863.931640625 902" stroke-miterlimit="10"/></g><g transform="translate(-222,-662) scale(1,1)"><g><path fill="none" stroke="none"/><text fill="#000000" stroke="none" font-family="Arial" font-size="13px" font-style="normal" font-weight="normal" text-decoration="none" x="1721.97314453125" y="881.5">«Object Factory»</text></g></g><g transform="translate(-222,-662) scale(1,1)"><g><path fill="none" stroke="none"/><text fill="#000000" stroke="none" font-family="Arial" font-size="13px" font-style="normal" font-weight="bold" text-decoration="none" x="1703.5458984375" y="896.5">ConditionObjectFactory</text></g></g><g transform="translate(-222,-662) scale(1,1)"><g><path fill="none" stroke="none"/><text fill="#000000" stroke="none" font-family="Arial" font-size="13px" font-style="normal" font-weight="normal" text-decoration="none" x="1684" y="919.5">+deriveBrowseName(element)</text></g></g><g transform="translate(-222,-662) scale(1,1)"><g><path fill="none" stroke="none"/><text fill="#000000" stroke="none" font-family="Arial" font-size="13px" font-style="normal" font-weight="normal" text-decoration="none" x="1684" y="934.5">+deriveNodeId(element)</text></g></g><g transform="translate(-222,-662) scale(1,1)"><path fill="none" stroke="#000000" d="M 1771 864 L 1771 836 M 1771 836 A 8 8 0 0 0 1763 828 L 1080 828 M 1080 828 A 8 8 0 0 1 1072 820 L 1072 787" stroke-miterlimit="10"/></g><g transform="translate(-222,-662) scale(1,1)"><path fill="#FFFFFF" stroke="none" d="M 1080.419035512032 807.3253497152483 L 1072 787 L 1063.580964487968 807.3253497152483"/></g><g transform="translate(-222,-662) scale(1,1)"><path fill="none" stroke="#000000" d="M 1080.419035512032 807.3253497152483 L 1072 787 L 1063.580964487968 807.3253497152483 L 1080.419035512032 807.3253497152483" stroke-miterlimit="10"/></g><g transform="translate(-222,-662) scale(1,1)"><rect fill="#C0C0C0" stroke="none" x="1895" y="871" width="191" height="119" opacity="0.2"/></g><g transform="translate(-222,-662) scale(1,1)"><rect fill="#ffffff" stroke="none" x="1888" y="864" width="191" height="119"/></g><g transform="translate(-222,-662) scale(1,1)"><path fill="none" stroke="#000000" d="M 1888 864 L 2079 864 L 2079 983 L 1888 983 L 1888 864 Z Z" stroke-miterlimit="10"/></g><g transform="translate(-222,-662) scale(1,1)"><path fill="none" stroke="#000000" d="M 1888 902 L 2079 902" stroke-miterlimit="10"/></g><g transform="translate(-222,-662) scale(1,1)"><g><path fill="none" stroke="none"/><text fill="#000000" stroke="none" font-family="Arial" font-size="13px" font-style="normal" font-weight="normal" text-decoration="none" x="1934.00732421875" y="881.5">«Object Factory»</text></g></g><g transform="translate(-222,-662) scale(1,1)"><g><path fill="none" stroke="none"/><text fill="#000000" stroke="none" font-family="Arial" font-size="13px" font-style="normal" font-weight="bold" text-decoration="none" x="1922.4482421875" y="896.5">SensorObjectFactory</text></g></g><g transform="translate(-222,-662) scale(1,1)"><g><path fill="none" stroke="none"/><text fill="#000000" stroke="none" font-family="Arial" font-size="13px" font-style="normal" font-weight="normal" text-decoration="none" x="1893" y="919.5">+deriveBrowseName(element)</text></g></g><g transform="translate(-222,-662) scale(1,1)"><g><path fill="none" stroke="none"/><text fill="#000000" stroke="none" font-family="Arial" font-size="13px" font-style="normal" font-weight="normal" text-decoration="none" x="1893" y="934.5">+deriveNodeId(element)</text></g></g><g transform="translate(-222,-662) scale(1,1)"><rect fill="#C0C0C0" stroke="none" x="2103" y="871" width="207" height="119" opacity="0.2"/></g><g transform="translate(-222,-662) scale(1,1)"><rect fill="#ffffff" stroke="none" x="2096" y="864" width="207" height="119"/></g><g transform="translate(-222,-662) scale(1,1)"><path fill="none" stroke="#000000" d="M 2096 864 L 2303 864 L 2303 983 L 2096 983 L 2096 864 Z Z" stroke-miterlimit="10"/></g><g transform="translate(-222,-662) scale(1,1)"><path fill="none" stroke="#000000" d="M 2096 902 L 2303 902" stroke-miterlimit="10"/></g><g transform="translate(-222,-662) scale(1,1)"><g><path fill="none" stroke="none"/><text fill="#000000" stroke="none" font-family="Arial" font-size="13px" font-style="normal" font-weight="normal" text-decoration="none" x="2150.00732421875" y="881.5">«Object Factory»</text></g></g><g transform="translate(-222,-662) scale(1,1)"><g><path fill="none" stroke="none"/><text fill="#000000" stroke="none" font-family="Arial" font-size="13px" font-style="normal" font-weight="bold" text-decoration="none" x="2114.235107421875" y="896.5">SensorChannelObjectFactory</text></g></g><g transform="translate(-222,-662) scale(1,1)"><g><path fill="none" stroke="none"/><text fill="#000000" stroke="none" font-family="Arial" font-size="13px" font-style="normal" font-weight="normal" text-decoration="none" x="2101" y="919.5">+deriveBrowseName(element)</text></g></g><g transform="translate(-222,-662) scale(1,1)"><g><path fill="none" stroke="none"/><text fill="#000000" stroke="none" font-family="Arial" font-size="13px" font-style="normal" font-weight="normal" text-decoration="none" x="2101" y="934.5">+deriveNodeId(element)</text></g></g><g transform="translate(-222,-662) scale(1,1)"><path fill="none" stroke="#000000" d="M 1983 864 L 1983 836 M 1983 836 A 8 8 0 0 0 1975 828 L 1080 828 M 1080 828 A 8 8 0 0 1 1072 820 L 1072 787" stroke-miterlimit="10"/></g><g transform="translate(-222,-662) scale(1,1)"><path fill="#FFFFFF" stroke="none" d="M 1080.419035512032 807.3253497152483 L 1072 787 L 1063.580964487968 807.3253497152483"/></g><g transform="translate(-222,-662) scale(1,1)"><path fill="none" stroke="#000000" d="M 1080.419035512032 807.3253497152483 L 1072 787 L 1063.580964487968 807.3253497152483 L 1080.419035512032 807.3253497152483" stroke-miterlimit="10"/></g><g transform="translate(-222,-662) scale(1,1)"><path fill="none" stroke="#000000" d="M 2199 864 L 2199 836 M 2199 836 A 8 8 0 0 0 2191 828 L 1080 828 M 1080 828 A 8 8 0 0 1 1072 820 L 1072 787" stroke-miterlimit="10"/></g><g transform="translate(-222,-662) scale(1,1)"><path fill="#FFFFFF" stroke="none" d="M 1080.419035512032 807.3253497152483 L 1072 787 L 1063.580964487968 807.3253497152483"/></g><g transform="translate(-222,-662) scale(1,1)"><path fill="none" stroke="#000000" d="M 1080.419035512032 807.3253497152483 L 1072 787 L 1063.580964487968 807.3253497152483 L 1080.419035512032 807.3253497152483" stroke-miterlimit="10"/></g><g transform="translate(-222,-662) scale(1,1)"><rect fill="#C0C0C0" stroke="none" x="1287" y="1039" width="184.931640625" height="151" opacity="0.2"/></g><g transform="translate(-222,-662) scale(1,1)"><rect fill="#ffffff" stroke="none" x="1280" y="1032" width="184.931640625" height="151"/></g><g transform="translate(-222,-662) scale(1,1)"><path fill="none" stroke="#000000" d="M 1280 1032 L 1464.931640625 1032 L 1464.931640625 1183 L 1280 1183 L 1280 1032 Z Z" stroke-miterlimit="10"/></g><g transform="translate(-222,-662) scale(1,1)"><path fill="none" stroke="#000000" d="M 1280 1070 L 1464.931640625 1070" stroke-miterlimit="10"/></g><g transform="translate(-222,-662) scale(1,1)"><g><path fill="none" stroke="none"/><text fill="#000000" stroke="none" font-family="Arial" font-size="13px" font-style="normal" font-weight="normal" text-decoration="none" x="1322.97314453125" y="1049.5">«Object Factory»</text></g></g><g transform="translate(-222,-662) scale(1,1)"><g><path fill="none" stroke="none"/><text fill="#000000" stroke="none" font-family="Arial" font-size="13px" font-style="normal" font-weight="bold" text-decoration="none" x="1312.140869140625" y="1064.5">DeviceObjectFactory</text></g></g><g transform="translate(-222,-662) scale(1,1)"><g><path fill="none" stroke="none"/><text fill="#000000" stroke="none" font-family="Arial" font-size="13px" font-style="normal" font-weight="normal" text-decoration="none" x="1285" y="1087.5">+deriveBrowseName(element)</text></g></g><g transform="translate(-222,-662) scale(1,1)"><g><path fill="none" stroke="none"/><text fill="#000000" stroke="none" font-family="Arial" font-size="13px" font-style="normal" font-weight="normal" text-decoration="none" x="1285" y="1102.5">+deriveNodeId(element)</text></g></g><g transform="translate(-222,-662) scale(1,1)"><g><path fill="none" stroke="none"/><text fill="#000000" stroke="none" font-family="Arial" font-size="13px" font-style="normal" font-weight="normal" text-decoration="none" x="1285" y="1117.5">+Operation1()</text></g></g><g transform="translate(-222,-662) scale(1,1)"><path fill="none" stroke="#000000" d="M 1370 1032 L 1370 979" stroke-miterlimit="10"/></g><g transform="translate(-222,-662) scale(1,1)"><path fill="#FFFFFF" stroke="none" d="M 1378.419035512032 999.3253497152483 L 1370 979 L 1361.580964487968 999.3253497152483"/></g><g transform="translate(-222,-662) scale(1,1)"><path fill="none" stroke="#000000" d="M 1378.419035512032 999.3253497152483 L 1370 979 L 1361.580964487968 999.3253497152483 L 1378.419035512032 999.3253497152483" stroke-miterlimit="10"/></g></g></svg>