<svg version="1.1" xmlns="http://www.w3.org/2000/svg" xmlns:xlink="http://www.w3.org/1999/xlink" width="756" height="620"><defs/><g><g transform="translate(-94,-110) scale(1,1)"><rect fill="#C0C0C0" stroke="none" x="111" y="127" width="294.4" height="15" opacity="0.2"/></g><g transform="translate(-94,-110) scale(1,1)"><rect fill="#C0C0C0" stroke="none" x="111" y="141" width="736" height="586" opacity="0.2"/></g><g transform="translate(-94,-110) scale(1,1)"><rect fill="#ffffff" stroke="none" x="104" y="135" width="736" height="585"/></g><g transform="translate(-94,-110) scale(1,1)"><path fill="none" stroke="#000000" d="M 104 135 L 840 135 L 840 720 L 104 720 L 104 135 Z Z" stroke-miterlimit="10"/></g><g transform="translate(-94,-110) scale(1,1)"><rect fill="#ffffff" stroke="none" x="104" y="120" width="294.4" height="15"/></g><g transform="translate(-94,-110) scale(1,1)"><path fill="none" stroke="#000000" d="M 104 120 L 398.4 120 L 398.4 135 L 104 135 L 104 120 Z Z" stroke-miterlimit="10"/></g><g transform="translate(-94,-110) scale(1,1)"><rect fill="#ffffff" stroke="none" x="104" y="134" width="736" height="586"/></g><g transform="translate(-94,-110) scale(1,1)"><path fill="none" stroke="#000000" d="M 104 134 L 840 134 L 840 720 L 104 720 L 104 134 Z Z" stroke-miterlimit="10"/></g><g transform="translate(-94,-110) scale(1,1)"><g><path fill="none" stroke="none"/><text fill="#000000" stroke="none" font-family="Arial" font-size="13px" font-style="normal" font-weight="bold" text-decoration="none" x="415.286865234375" y="154.5">MTConnectDevices</text></g></g><g transform="translate(-94,-110) scale(1,1)"><rect fill="#C0C0C0" stroke="none" x="351" y="279" width="115.19999999999999" height="15" opacity="0.2"/></g><g transform="translate(-94,-110) scale(1,1)"><rect fill="#C0C0C0" stroke="none" x="351" y="293" width="288" height="42" opacity="0.2"/></g><g transform="translate(-94,-110) scale(1,1)"><rect fill="#ffffff" stroke="none" x="344" y="287" width="288" height="41"/></g><g transform="translate(-94,-110) scale(1,1)"><path fill="none" stroke="#000000" d="M 344 287 L 632 287 L 632 328 L 344 328 L 344 287 Z Z" stroke-miterlimit="10"/></g><g transform="translate(-94,-110) scale(1,1)"><rect fill="#ffffff" stroke="none" x="344" y="272" width="115.19999999999999" height="15"/></g><g transform="translate(-94,-110) scale(1,1)"><path fill="none" stroke="#000000" d="M 344 272 L 459.2 272 L 459.2 287 L 344 287 L 344 272 Z Z" stroke-miterlimit="10"/></g><g transform="translate(-94,-110) scale(1,1)"><rect fill="#ffffff" stroke="none" x="344" y="286" width="288" height="42"/></g><g transform="translate(-94,-110) scale(1,1)"><path fill="none" stroke="#000000" d="M 344 286 L 632 286 L 632 328 L 344 328 L 344 286 Z Z" stroke-miterlimit="10"/></g><g transform="translate(-94,-110) scale(1,1)"><path fill="none" stroke="#000000" d="M 450.2 275 L 444.2 282 L 456.2 282 L 450.2 275" stroke-miterlimit="10"/></g><g transform="translate(-94,-110) scale(1,1)"><g><path fill="none" stroke="none"/><text fill="#000000" stroke="none" font-family="Arial" font-size="13px" font-style="normal" font-weight="bold" text-decoration="none" x="451.1455078125" y="306.5">Components</text></g></g><g transform="translate(-94,-110) scale(1,1)"><rect fill="#C0C0C0" stroke="none" x="519" y="439" width="92.79999999999995" height="15" opacity="0.2"/></g><g transform="translate(-94,-110) scale(1,1)"><rect fill="#C0C0C0" stroke="none" x="519" y="453" width="232" height="82" opacity="0.2"/></g><g transform="translate(-94,-110) scale(1,1)"><rect fill="#ffffff" stroke="none" x="512" y="447" width="232" height="81"/></g><g transform="translate(-94,-110) scale(1,1)"><path fill="none" stroke="#000000" d="M 512 447 L 744 447 L 744 528 L 512 528 L 512 447 Z Z" stroke-miterlimit="10"/></g><g transform="translate(-94,-110) scale(1,1)"><rect fill="#ffffff" stroke="none" x="512" y="432" width="92.79999999999995" height="15"/></g><g transform="translate(-94,-110) scale(1,1)"><path fill="none" stroke="#000000" d="M 512 432 L 604.8 432 L 604.8 447 L 512 447 L 512 432 Z Z" stroke-miterlimit="10"/></g><g transform="translate(-94,-110) scale(1,1)"><rect fill="#ffffff" stroke="none" x="512" y="446" width="232" height="82"/></g><g transform="translate(-94,-110) scale(1,1)"><path fill="none" stroke="#000000" d="M 512 446 L 744 446 L 744 528 L 512 528 L 512 446 Z Z" stroke-miterlimit="10"/></g><g transform="translate(-94,-110) scale(1,1)"><path fill="none" stroke="#000000" d="M 595.8 435 L 589.8 442 L 601.8 442 L 595.8 435" stroke-miterlimit="10"/></g><g transform="translate(-94,-110) scale(1,1)"><g><path fill="none" stroke="none"/><text fill="#000000" stroke="none" font-family="Arial" font-size="13px" font-style="normal" font-weight="bold" text-decoration="none" x="596.57275390625" y="466.5">Data Items</text></g></g><g transform="translate(-94,-110) scale(1,1)"><rect fill="#C0C0C0" stroke="none" x="199" y="439" width="92.80000000000001" height="15" opacity="0.2"/></g><g transform="translate(-94,-110) scale(1,1)"><rect fill="#C0C0C0" stroke="none" x="199" y="453" width="232" height="90" opacity="0.2"/></g><g transform="translate(-94,-110) scale(1,1)"><rect fill="#ffffff" stroke="none" x="192" y="447" width="232" height="89"/></g><g transform="translate(-94,-110) scale(1,1)"><path fill="none" stroke="#000000" d="M 192 447 L 424 447 L 424 536 L 192 536 L 192 447 Z Z" stroke-miterlimit="10"/></g><g transform="translate(-94,-110) scale(1,1)"><rect fill="#ffffff" stroke="none" x="192" y="432" width="92.80000000000001" height="15"/></g><g transform="translate(-94,-110) scale(1,1)"><path fill="none" stroke="#000000" d="M 192 432 L 284.8 432 L 284.8 447 L 192 447 L 192 432 Z Z" stroke-miterlimit="10"/></g><g transform="translate(-94,-110) scale(1,1)"><rect fill="#ffffff" stroke="none" x="192" y="446" width="232" height="90"/></g><g transform="translate(-94,-110) scale(1,1)"><path fill="none" stroke="#000000" d="M 192 446 L 424 446 L 424 536 L 192 536 L 192 446 Z Z" stroke-miterlimit="10"/></g><g transform="translate(-94,-110) scale(1,1)"><path fill="none" stroke="#000000" d="M 275.8 435 L 269.8 442 L 281.8 442 L 275.8 435" stroke-miterlimit="10"/></g><g transform="translate(-94,-110) scale(1,1)"><g><path fill="none" stroke="none"/><text fill="#000000" stroke="none" font-family="Arial" font-size="13px" font-style="normal" font-weight="bold" text-decoration="none" x="277.286865234375" y="466.5">Conditions</text></g></g><g transform="translate(-94,-110) scale(1,1)"><path fill="none" stroke="#000000" d="M 384 328 L 384 432" stroke-miterlimit="10" stroke-dasharray="3"/></g><g transform="translate(-94,-110) scale(1,1)"><path fill="none" stroke="#000000" d="M 379.790482243984 421.83732514237585 L 384 432 L 388.209517756016 421.83732514237585" stroke-miterlimit="10"/></g><g transform="translate(-94,-110) scale(1,1)"><g><path fill="none" stroke="none"/><text fill="#000000" stroke="none" font-family="Arial" font-size="13px" font-style="normal" font-weight="normal" text-decoration="none" x="343.5" y="379.5">«has»</text></g></g><g transform="translate(-94,-110) scale(1,1)"><path fill="none" stroke="#000000" d="M 544 328 L 544 432" stroke-miterlimit="10" stroke-dasharray="3"/></g><g transform="translate(-94,-110) scale(1,1)"><path fill="none" stroke="#000000" d="M 539.790482243984 421.83732514237585 L 544 432 L 548.209517756016 421.83732514237585" stroke-miterlimit="10"/></g><g transform="translate(-94,-110) scale(1,1)"><g><path fill="none" stroke="none"/><text fill="#000000" stroke="none" font-family="Arial" font-size="13px" font-style="normal" font-weight="normal" text-decoration="none" x="555.5" y="385.5">«has»</text></g></g><g transform="translate(-94,-110) scale(1,1)"><path fill="none" stroke="#000000" d="M 424 494 L 512 494" stroke-miterlimit="10" stroke-dasharray="3"/></g><g transform="translate(-94,-110) scale(1,1)"><path fill="none" stroke="#000000" d="M 501.83732514237585 498.209517756016 L 512 494 L 501.83732514237585 489.790482243984" stroke-miterlimit="10"/></g><g transform="translate(-94,-110) scale(1,1)"><g><path fill="none" stroke="none"/><text fill="#000000" stroke="none" font-family="Arial" font-size="13px" font-style="normal" font-weight="normal" text-decoration="none" x="447.5" y="470.5">«uses»</text></g></g><g transform="translate(-94,-110) scale(1,1)"><rect fill="#C0C0C0" stroke="none" x="151" y="615" width="99.19999999999999" height="15" opacity="0.2"/></g><g transform="translate(-94,-110) scale(1,1)"><rect fill="#C0C0C0" stroke="none" x="151" y="629" width="248" height="66" opacity="0.2"/></g><g transform="translate(-94,-110) scale(1,1)"><rect fill="#ffffff" stroke="none" x="144" y="623" width="248" height="65"/></g><g transform="translate(-94,-110) scale(1,1)"><path fill="none" stroke="#000000" d="M 144 623 L 392 623 L 392 688 L 144 688 L 144 623 Z Z" stroke-miterlimit="10"/></g><g transform="translate(-94,-110) scale(1,1)"><rect fill="#ffffff" stroke="none" x="144" y="608" width="99.19999999999999" height="15"/></g><g transform="translate(-94,-110) scale(1,1)"><path fill="none" stroke="#000000" d="M 144 608 L 243.2 608 L 243.2 623 L 144 623 L 144 608 Z Z" stroke-miterlimit="10"/></g><g transform="translate(-94,-110) scale(1,1)"><rect fill="#ffffff" stroke="none" x="144" y="622" width="248" height="66"/></g><g transform="translate(-94,-110) scale(1,1)"><path fill="none" stroke="#000000" d="M 144 622 L 392 622 L 392 688 L 144 688 L 144 622 Z Z" stroke-miterlimit="10"/></g><g transform="translate(-94,-110) scale(1,1)"><path fill="none" stroke="#000000" d="M 234.2 611 L 228.2 618 L 240.2 618 L 234.2 611" stroke-miterlimit="10"/></g><g transform="translate(-94,-110) scale(1,1)"><g><path fill="none" stroke="none"/><text fill="#000000" stroke="none" font-family="Arial" font-size="13px" font-style="normal" font-weight="bold" text-decoration="none" x="241.27001953125" y="642.5">Factories</text></g></g></g></svg>