<svg version="1.1" xmlns="http://www.w3.org/2000/svg" xmlns:xlink="http://www.w3.org/1999/xlink" width="756" height="532"><defs/><g><g transform="translate(-94,-190) scale(1,1)"><rect fill="#C0C0C0" stroke="none" x="111" y="207" width="294.4" height="15" opacity="0.2"/></g><g transform="translate(-94,-190) scale(1,1)"><rect fill="#C0C0C0" stroke="none" x="111" y="221" width="736" height="498" opacity="0.2"/></g><g transform="translate(-94,-190) scale(1,1)"><rect fill="#ffffff" stroke="none" x="104" y="215" width="736" height="497"/></g><g transform="translate(-94,-190) scale(1,1)"><path fill="none" stroke="#000000" d="M 104 215 L 840 215 L 840 712 L 104 712 L 104 215 Z Z" stroke-miterlimit="10"/></g><g transform="translate(-94,-190) scale(1,1)"><rect fill="#ffffff" stroke="none" x="104" y="200" width="294.4" height="15"/></g><g transform="translate(-94,-190) scale(1,1)"><path fill="none" stroke="#000000" d="M 104 200 L 398.4 200 L 398.4 215 L 104 215 L 104 200 Z Z" stroke-miterlimit="10"/></g><g transform="translate(-94,-190) scale(1,1)"><rect fill="#ffffff" stroke="none" x="104" y="214" width="736" height="498"/></g><g transform="translate(-94,-190) scale(1,1)"><path fill="none" stroke="#000000" d="M 104 214 L 840 214 L 840 712 L 104 712 L 104 214 Z Z" stroke-miterlimit="10"/></g><g transform="translate(-94,-190) scale(1,1)"><g><path fill="none" stroke="none"/><text fill="#000000" stroke="none" font-family="Arial" font-size="13px" font-style="normal" font-weight="bold" text-decoration="none" x="415.286865234375" y="234.5">MTConnectDevices</text></g></g><g transform="translate(-94,-190) scale(1,1)"><rect fill="#C0C0C0" stroke="none" x="351" y="263" width="102.39999999999998" height="15" opacity="0.2"/></g><g transform="translate(-94,-190) scale(1,1)"><rect fill="#C0C0C0" stroke="none" x="351" y="277" width="256" height="74" opacity="0.2"/></g><g transform="translate(-94,-190) scale(1,1)"><rect fill="#ffffff" stroke="none" x="344" y="271" width="256" height="73"/></g><g transform="translate(-94,-190) scale(1,1)"><path fill="none" stroke="#000000" d="M 344 271 L 600 271 L 600 344 L 344 344 L 344 271 Z Z" stroke-miterlimit="10"/></g><g transform="translate(-94,-190) scale(1,1)"><rect fill="#ffffff" stroke="none" x="344" y="256" width="102.39999999999998" height="15"/></g><g transform="translate(-94,-190) scale(1,1)"><path fill="none" stroke="#000000" d="M 344 256 L 446.4 256 L 446.4 271 L 344 271 L 344 256 Z Z" stroke-miterlimit="10"/></g><g transform="translate(-94,-190) scale(1,1)"><rect fill="#ffffff" stroke="none" x="344" y="270" width="256" height="74"/></g><g transform="translate(-94,-190) scale(1,1)"><path fill="none" stroke="#000000" d="M 344 270 L 600 270 L 600 344 L 344 344 L 344 270 Z Z" stroke-miterlimit="10"/></g><g transform="translate(-94,-190) scale(1,1)"><path fill="none" stroke="#000000" d="M 437.4 259 L 431.4 266 L 443.4 266 L 437.4 259" stroke-miterlimit="10"/></g><g transform="translate(-94,-190) scale(1,1)"><g><path fill="none" stroke="none"/><text fill="#000000" stroke="none" font-family="Arial" font-size="13px" font-style="normal" font-weight="bold" text-decoration="none" x="435.1455078125" y="290.5">Components</text></g></g><g transform="translate(-94,-190) scale(1,1)"><rect fill="#C0C0C0" stroke="none" x="543" y="442" width="92.79999999999995" height="15" opacity="0.2"/></g><g transform="translate(-94,-190) scale(1,1)"><rect fill="#C0C0C0" stroke="none" x="543" y="456" width="232" height="74" opacity="0.2"/></g><g transform="translate(-94,-190) scale(1,1)"><rect fill="#ffffff" stroke="none" x="536" y="450" width="232" height="73"/></g><g transform="translate(-94,-190) scale(1,1)"><path fill="none" stroke="#000000" d="M 536 450 L 768 450 L 768 523 L 536 523 L 536 450 Z Z" stroke-miterlimit="10"/></g><g transform="translate(-94,-190) scale(1,1)"><rect fill="#ffffff" stroke="none" x="536" y="435" width="92.79999999999995" height="15"/></g><g transform="translate(-94,-190) scale(1,1)"><path fill="none" stroke="#000000" d="M 536 435 L 628.8 435 L 628.8 450 L 536 450 L 536 435 Z Z" stroke-miterlimit="10"/></g><g transform="translate(-94,-190) scale(1,1)"><rect fill="#ffffff" stroke="none" x="536" y="449" width="232" height="74"/></g><g transform="translate(-94,-190) scale(1,1)"><path fill="none" stroke="#000000" d="M 536 449 L 768 449 L 768 523 L 536 523 L 536 449 Z Z" stroke-miterlimit="10"/></g><g transform="translate(-94,-190) scale(1,1)"><path fill="none" stroke="#000000" d="M 619.8 438 L 613.8 445 L 625.8 445 L 619.8 438" stroke-miterlimit="10"/></g><g transform="translate(-94,-190) scale(1,1)"><g><path fill="none" stroke="none"/><text fill="#000000" stroke="none" font-family="Arial" font-size="13px" font-style="normal" font-weight="bold" text-decoration="none" x="620.57275390625" y="469.5">Data Items</text></g></g><g transform="translate(-94,-190) scale(1,1)"><rect fill="#C0C0C0" stroke="none" x="175" y="442" width="92.80000000000001" height="15" opacity="0.2"/></g><g transform="translate(-94,-190) scale(1,1)"><rect fill="#C0C0C0" stroke="none" x="175" y="456" width="232" height="74" opacity="0.2"/></g><g transform="translate(-94,-190) scale(1,1)"><rect fill="#ffffff" stroke="none" x="168" y="450" width="232" height="73"/></g><g transform="translate(-94,-190) scale(1,1)"><path fill="none" stroke="#000000" d="M 168 450 L 400 450 L 400 523 L 168 523 L 168 450 Z Z" stroke-miterlimit="10"/></g><g transform="translate(-94,-190) scale(1,1)"><rect fill="#ffffff" stroke="none" x="168" y="435" width="92.80000000000001" height="15"/></g><g transform="translate(-94,-190) scale(1,1)"><path fill="none" stroke="#000000" d="M 168 435 L 260.8 435 L 260.8 450 L 168 450 L 168 435 Z Z" stroke-miterlimit="10"/></g><g transform="translate(-94,-190) scale(1,1)"><rect fill="#ffffff" stroke="none" x="168" y="449" width="232" height="74"/></g><g transform="translate(-94,-190) scale(1,1)"><path fill="none" stroke="#000000" d="M 168 449 L 400 449 L 400 523 L 168 523 L 168 449 Z Z" stroke-miterlimit="10"/></g><g transform="translate(-94,-190) scale(1,1)"><path fill="none" stroke="#000000" d="M 251.8 438 L 245.8 445 L 257.8 445 L 251.8 438" stroke-miterlimit="10"/></g><g transform="translate(-94,-190) scale(1,1)"><g><path fill="none" stroke="none"/><text fill="#000000" stroke="none" font-family="Arial" font-size="13px" font-style="normal" font-weight="bold" text-decoration="none" x="253.286865234375" y="469.5">Conditions</text></g></g><g transform="translate(-94,-190) scale(1,1)"><path fill="none" stroke="#000000" d="M 384 344 L 384 435" stroke-miterlimit="10" stroke-dasharray="3"/></g><g transform="translate(-94,-190) scale(1,1)"><path fill="none" stroke="#000000" d="M 379.790482243984 424.83732514237585 L 384 435 L 388.209517756016 424.83732514237585" stroke-miterlimit="10"/></g><g transform="translate(-94,-190) scale(1,1)"><g><path fill="none" stroke="none"/><text fill="#000000" stroke="none" font-family="Arial" font-size="13px" font-style="normal" font-weight="normal" text-decoration="none" x="343.5" y="388.5">«has»</text></g></g><g transform="translate(-94,-190) scale(1,1)"><path fill="none" stroke="#000000" d="M 576 344 L 576 435" stroke-miterlimit="10" stroke-dasharray="3"/></g><g transform="translate(-94,-190) scale(1,1)"><path fill="none" stroke="#000000" d="M 571.790482243984 424.83732514237585 L 576 435 L 580.209517756016 424.83732514237585" stroke-miterlimit="10"/></g><g transform="translate(-94,-190) scale(1,1)"><g><path fill="none" stroke="none"/><text fill="#000000" stroke="none" font-family="Arial" font-size="13px" font-style="normal" font-weight="normal" text-decoration="none" x="587.5" y="394.5">«has»</text></g></g><g transform="translate(-94,-190) scale(1,1)"><path fill="none" stroke="#000000" d="M 400 480 L 536 480" stroke-miterlimit="10" stroke-dasharray="3"/></g><g transform="translate(-94,-190) scale(1,1)"><path fill="none" stroke="#000000" d="M 525.8373251423759 484.209517756016 L 536 480 L 525.8373251423758 475.790482243984" stroke-miterlimit="10"/></g><g transform="translate(-94,-190) scale(1,1)"><g><path fill="none" stroke="none"/><text fill="#000000" stroke="none" font-family="Arial" font-size="13px" font-style="normal" font-weight="normal" text-decoration="none" x="407.5" y="475.5">«uses»</text></g></g><g transform="translate(-94,-190) scale(1,1)"><rect fill="#C0C0C0" stroke="none" x="351" y="599" width="102.39999999999998" height="15" opacity="0.2"/></g><g transform="translate(-94,-190) scale(1,1)"><rect fill="#C0C0C0" stroke="none" x="351" y="613" width="256" height="74" opacity="0.2"/></g><g transform="translate(-94,-190) scale(1,1)"><rect fill="#ffffff" stroke="none" x="344" y="607" width="256" height="73"/></g><g transform="translate(-94,-190) scale(1,1)"><path fill="none" stroke="#000000" d="M 344 607 L 600 607 L 600 680 L 344 680 L 344 607 Z Z" stroke-miterlimit="10"/></g><g transform="translate(-94,-190) scale(1,1)"><rect fill="#ffffff" stroke="none" x="344" y="592" width="102.39999999999998" height="15"/></g><g transform="translate(-94,-190) scale(1,1)"><path fill="none" stroke="#000000" d="M 344 592 L 446.4 592 L 446.4 607 L 344 607 L 344 592 Z Z" stroke-miterlimit="10"/></g><g transform="translate(-94,-190) scale(1,1)"><rect fill="#ffffff" stroke="none" x="344" y="606" width="256" height="74"/></g><g transform="translate(-94,-190) scale(1,1)"><path fill="none" stroke="#000000" d="M 344 606 L 600 606 L 600 680 L 344 680 L 344 606 Z Z" stroke-miterlimit="10"/></g><g transform="translate(-94,-190) scale(1,1)"><path fill="none" stroke="#000000" d="M 437.4 595 L 431.4 602 L 443.4 602 L 437.4 595" stroke-miterlimit="10"/></g><g transform="translate(-94,-190) scale(1,1)"><g><path fill="none" stroke="none"/><text fill="#000000" stroke="none" font-family="Arial" font-size="13px" font-style="normal" font-weight="bold" text-decoration="none" x="445.27001953125" y="626.5">Factories</text></g></g><g transform="translate(-94,-190) scale(1,1)"><path fill="none" stroke="#000000" d="M 361 592 L 361 523" stroke-miterlimit="10" stroke-dasharray="3"/></g><g transform="translate(-94,-190) scale(1,1)"><path fill="none" stroke="#000000" d="M 365.209517756016 533.1626748576241 L 361 523 L 356.790482243984 533.1626748576241" stroke-miterlimit="10"/></g><g transform="translate(-94,-190) scale(1,1)"><g><path fill="none" stroke="none"/><text fill="#000000" stroke="none" font-family="Arial" font-size="13px" font-style="normal" font-weight="normal" text-decoration="none" x="304.5" y="562.5">«Create»</text></g></g><g transform="translate(-94,-190) scale(1,1)"><path fill="none" stroke="#000000" d="M 580 592 L 580 523" stroke-miterlimit="10" stroke-dasharray="3"/></g><g transform="translate(-94,-190) scale(1,1)"><path fill="none" stroke="#000000" d="M 584.209517756016 533.1626748576241 L 580 523 L 575.790482243984 533.1626748576241" stroke-miterlimit="10"/></g><g transform="translate(-94,-190) scale(1,1)"><g><path fill="none" stroke="none"/><text fill="#000000" stroke="none" font-family="Arial" font-size="13px" font-style="normal" font-weight="normal" text-decoration="none" x="523.5" y="562.5">«Create»</text></g></g><g transform="translate(-94,-190) scale(1,1)"><path fill="none" stroke="#000000" d="M 486 592 L 486 344" stroke-miterlimit="10" stroke-dasharray="3"/></g><g transform="translate(-94,-190) scale(1,1)"><path fill="none" stroke="#000000" d="M 490.209517756016 354.16267485762415 L 486 344 L 481.790482243984 354.16267485762415" stroke-miterlimit="10"/></g><g transform="translate(-94,-190) scale(1,1)"><g><path fill="none" stroke="none"/><text fill="#000000" stroke="none" font-family="Arial" font-size="13px" font-style="normal" font-weight="normal" text-decoration="none" x="423.5" y="548.5">«Create»</text></g></g></g></svg>