<svg version="1.1" xmlns="http://www.w3.org/2000/svg" xmlns:xlink="http://www.w3.org/1999/xlink" width="2220" height="661"><defs/><g><g transform="translate(-6,-181) scale(1,1)"><rect fill="#C0C0C0" stroke="none" x="471" y="255" width="360" height="145" opacity="0.2"/></g><g transform="translate(-6,-181) scale(1,1)"><rect fill="#ffffff" stroke="none" x="464" y="248" width="360" height="145"/></g><g transform="translate(-6,-181) scale(1,1)"><path fill="none" stroke="#000000" d="M 464 248 L 824 248 L 824 393 L 464 393 L 464 248 Z Z" stroke-miterlimit="10"/></g><g transform="translate(-6,-181) scale(1,1)"><path fill="none" stroke="#000000" d="M 464 273 L 824 273" stroke-miterlimit="10"/></g><g transform="translate(-6,-181) scale(1,1)"><g><path fill="none" stroke="none"/><text fill="#000000" stroke="none" font-family="Arial" font-size="13px" font-style="italic" font-weight="bold" text-decoration="none" x="587.04248046875" y="267.5">MTComponentType</text></g></g><g transform="translate(-6,-181) scale(1,1)"><g><path fill="none" stroke="none"/><text fill="#000000" stroke="none" font-family="Arial" font-size="13px" font-style="normal" font-weight="normal" text-decoration="none" x="469" y="290.5">+name: String[0..1]</text></g></g><g transform="translate(-6,-181) scale(1,1)"><g><path fill="none" stroke="none"/><text fill="#000000" stroke="none" font-family="Arial" font-size="13px" font-style="normal" font-weight="normal" text-decoration="none" x="469" y="305.5">+nativeName: String[0..1]</text></g></g><g transform="translate(-6,-181) scale(1,1)"><g><path fill="none" stroke="none"/><text fill="#000000" stroke="none" font-family="Arial" font-size="13px" font-style="normal" font-weight="normal" text-decoration="none" x="469" y="320.5">+uuid: String[0..1] {unique}</text></g></g><g transform="translate(-6,-181) scale(1,1)"><g><path fill="none" stroke="none"/><text fill="#000000" stroke="none" font-family="Arial" font-size="13px" font-style="normal" font-weight="normal" text-decoration="none" x="469" y="335.5">«Deprecated»+sampleRate: float[0..1]</text></g></g><g transform="translate(-6,-181) scale(1,1)"><g><path fill="none" stroke="none"/><text fill="#000000" stroke="none" font-family="Arial" font-size="13px" font-style="normal" font-weight="normal" text-decoration="none" x="469" y="350.5">+sampleInterval: float[0..1]</text></g></g><g transform="translate(-6,-181) scale(1,1)"><rect fill="#C0C0C0" stroke="none" x="63" y="415" width="269.166015625" height="100" opacity="0.2"/></g><g transform="translate(-6,-181) scale(1,1)"><rect fill="#ffffff" stroke="none" x="56" y="408" width="269.166015625" height="100"/></g><g transform="translate(-6,-181) scale(1,1)"><path fill="none" stroke="#000000" d="M 56 408 L 325.166015625 408 L 325.166015625 508 L 56 508 L 56 408 Z Z" stroke-miterlimit="10"/></g><g transform="translate(-6,-181) scale(1,1)"><path fill="none" stroke="#000000" d="M 56 433 L 325.166015625 433" stroke-miterlimit="10"/></g><g transform="translate(-6,-181) scale(1,1)"><path fill="none" stroke="#000000" d="M 56 471 L 325.166015625 471" stroke-miterlimit="10"/></g><g transform="translate(-6,-181) scale(1,1)"><g><path fill="none" stroke="none"/><text fill="#000000" stroke="none" font-family="Arial" font-size="13px" font-style="normal" font-weight="bold" text-decoration="none" x="147.238037109375" y="427.5">MTDeviceType</text></g></g><g transform="translate(-6,-181) scale(1,1)"><g><path fill="none" stroke="none"/><text fill="#000000" stroke="none" font-family="Arial" font-size="13px" font-style="normal" font-weight="normal" text-decoration="none" x="61" y="450.5">+version: String[0..1]</text></g></g><g transform="translate(-6,-181) scale(1,1)"><g><path fill="none" stroke="none"/><text fill="#000000" stroke="none" font-family="Arial" font-size="13px" font-style="normal" font-weight="normal" text-decoration="none" x="61" y="465.5">«Deprecated»+iso841Class: String[0..1]</text></g></g><g transform="translate(-6,-181) scale(1,1)"><g><path fill="none" stroke="none"/><text fill="#000000" stroke="none" font-family="Arial" font-size="13px" font-style="normal" font-weight="normal" text-decoration="none" x="61" y="488.5">+deriveBrowseName(element)</text></g></g><g transform="translate(-6,-181) scale(1,1)"><g><path fill="none" stroke="none"/><text fill="#000000" stroke="none" font-family="Arial" font-size="13px" font-style="normal" font-weight="normal" text-decoration="none" x="61" y="503.5">+deriveNodeId(element)</text></g></g><g transform="translate(-6,-181) scale(1,1)"><path fill="none" stroke="#000000" d="M 325 456 L 408 456 M 408 456 A 8 8 0 0 0 416 448 L 416 368 M 416 368 A 8 8 0 0 1 424 360 L 464 360" stroke-miterlimit="10"/></g><g transform="translate(-6,-181) scale(1,1)"><path fill="#FFFFFF" stroke="none" d="M 443.6746502847517 368.419035512032 L 464 360 L 443.6746502847517 351.580964487968"/></g><g transform="translate(-6,-181) scale(1,1)"><path fill="none" stroke="#000000" d="M 443.6746502847517 368.419035512032 L 464 360 L 443.6746502847517 351.580964487968 L 443.6746502847517 368.419035512032" stroke-miterlimit="10"/></g><g transform="translate(-6,-181) scale(1,1)"><rect fill="#C0C0C0" stroke="none" x="391" y="519" width="197.1728515625" height="48" opacity="0.2"/></g><g transform="translate(-6,-181) scale(1,1)"><rect fill="#ffffff" stroke="none" x="384" y="512" width="197.1728515625" height="48"/></g><g transform="translate(-6,-181) scale(1,1)"><path fill="none" stroke="#000000" d="M 384 512 L 581.1728515625 512 L 581.1728515625 560 L 384 560 L 384 512 Z Z" stroke-miterlimit="10"/></g><g transform="translate(-6,-181) scale(1,1)"><path fill="none" stroke="#000000" d="M 384 537 L 581.1728515625 537" stroke-miterlimit="10"/></g><g transform="translate(-6,-181) scale(1,1)"><g><path fill="none" stroke="none"/><text fill="#000000" stroke="none" font-family="Arial" font-size="13px" font-style="italic" font-weight="bold" text-decoration="none" x="420.56982421875" y="531.5">MTConfigurationType</text></g></g><g transform="translate(-6,-181) scale(1,1)"><rect fill="#C0C0C0" stroke="none" x="103" y="247" width="193.58984375" height="130" opacity="0.2"/></g><g transform="translate(-6,-181) scale(1,1)"><rect fill="#ffffff" stroke="none" x="96" y="240" width="193.58984375" height="130"/></g><g transform="translate(-6,-181) scale(1,1)"><path fill="none" stroke="#000000" d="M 96 240 L 289.58984375 240 L 289.58984375 370 L 96 370 L 96 240 Z Z" stroke-miterlimit="10"/></g><g transform="translate(-6,-181) scale(1,1)"><path fill="none" stroke="#000000" d="M 96 265 L 289.58984375 265" stroke-miterlimit="10"/></g><g transform="translate(-6,-181) scale(1,1)"><path fill="none" stroke="#000000" d="M 96 333 L 289.58984375 333" stroke-miterlimit="10"/></g><g transform="translate(-6,-181) scale(1,1)"><g><path fill="none" stroke="none"/><text fill="#000000" stroke="none" font-family="Arial" font-size="13px" font-style="normal" font-weight="bold" text-decoration="none" x="146.1904296875" y="259.5">DescriptionType</text></g></g><g transform="translate(-6,-181) scale(1,1)"><g><path fill="none" stroke="none"/><text fill="#000000" stroke="none" font-family="Arial" font-size="13px" font-style="normal" font-weight="normal" text-decoration="none" x="101" y="282.5">+station: String[0..1]</text></g></g><g transform="translate(-6,-181) scale(1,1)"><g><path fill="none" stroke="none"/><text fill="#000000" stroke="none" font-family="Arial" font-size="13px" font-style="normal" font-weight="normal" text-decoration="none" x="101" y="297.5">+serialNumber: String[0..1]</text></g></g><g transform="translate(-6,-181) scale(1,1)"><g><path fill="none" stroke="none"/><text fill="#000000" stroke="none" font-family="Arial" font-size="13px" font-style="normal" font-weight="normal" text-decoration="none" x="101" y="312.5">+manufacturer: String[0..1]</text></g></g><g transform="translate(-6,-181) scale(1,1)"><g><path fill="none" stroke="none"/><text fill="#000000" stroke="none" font-family="Arial" font-size="13px" font-style="normal" font-weight="normal" text-decoration="none" x="101" y="327.5">+Data: String[0..1]</text></g></g><g transform="translate(-6,-181) scale(1,1)"><g><path fill="none" stroke="none"/><text fill="#000000" stroke="none" font-family="Arial" font-size="13px" font-style="normal" font-weight="normal" text-decoration="none" x="101" y="350.5">+deriveBrowseName(element)</text></g></g><g transform="translate(-6,-181) scale(1,1)"><g><path fill="none" stroke="none"/><text fill="#000000" stroke="none" font-family="Arial" font-size="13px" font-style="normal" font-weight="normal" text-decoration="none" x="101" y="365.5">+deriveNodeId(element)</text></g></g><g transform="translate(-6,-181) scale(1,1)"><path fill="none" stroke="#000000" d="M 464 304 L 290 304" stroke-miterlimit="10"/></g><g transform="translate(-6,-181) scale(1,1)"><path fill="none" stroke="#000000" d="M 300.16267485762415 299.790482243984 L 290 304 L 300.16267485762415 308.209517756016" stroke-miterlimit="10"/></g><g transform="translate(-6,-181) scale(1,1)"><g><path fill="none" stroke="none"/><text fill="#000000" stroke="none" font-family="Arial" font-size="13px" font-style="normal" font-weight="normal" text-decoration="none" x="334.5" y="299.5">+Description</text></g></g><g transform="translate(-6,-181) scale(1,1)"><g><path fill="none" stroke="none"/><text fill="#000000" stroke="none" font-family="Arial" font-size="13px" font-style="normal" font-weight="normal" text-decoration="none" x="318.5" y="324.5">«HasComponent»</text></g></g><g transform="translate(-6,-181) scale(1,1)"><g><path fill="none" stroke="none"/><text fill="#000000" stroke="none" font-family="Arial" font-size="13px" font-style="normal" font-weight="normal" text-decoration="none" x="431.5" y="297.5">0..1</text></g></g><g transform="translate(-6,-181) scale(1,1)"><g><path fill="none" stroke="none"/><text fill="#000000" stroke="none" font-family="Arial" font-size="13px" font-style="normal" font-weight="normal" text-decoration="none" x="307.5" y="297.5">1</text></g></g><g transform="translate(-6,-181) scale(1,1)"><path fill="none" stroke="#000000" d="M 528 393 L 528 512" stroke-miterlimit="10"/></g><g transform="translate(-6,-181) scale(1,1)"><path fill="none" stroke="#000000" d="M 523.790482243984 501.83732514237585 L 528 512 L 532.209517756016 501.83732514237585" stroke-miterlimit="10"/></g><g transform="translate(-6,-181) scale(1,1)"><g><path fill="none" stroke="none"/><text fill="#000000" stroke="none" font-family="Arial" font-size="13px" font-style="normal" font-weight="normal" text-decoration="none" x="541.5" y="460.5">+Configuration</text></g></g><g transform="translate(-6,-181) scale(1,1)"><g><path fill="none" stroke="none"/><text fill="#000000" stroke="none" font-family="Arial" font-size="13px" font-style="normal" font-weight="normal" text-decoration="none" x="533.5" y="476.5">«HasComponent»</text></g></g><g transform="translate(-6,-181) scale(1,1)"><g><path fill="none" stroke="none"/><text fill="#000000" stroke="none" font-family="Arial" font-size="13px" font-style="normal" font-weight="normal" text-decoration="none" x="504.5" y="420.5">0..1</text></g></g><g transform="translate(-6,-181) scale(1,1)"><g><path fill="none" stroke="none"/><text fill="#000000" stroke="none" font-family="Arial" font-size="13px" font-style="normal" font-weight="normal" text-decoration="none" x="511.5" y="496.5">1</text></g></g><g transform="translate(-6,-181) scale(1,1)"><rect fill="#C0C0C0" stroke="none" x="415" y="631" width="231.8916015625" height="130" opacity="0.2"/></g><g transform="translate(-6,-181) scale(1,1)"><rect fill="#ffffff" stroke="none" x="408" y="624" width="231.8916015625" height="130"/></g><g transform="translate(-6,-181) scale(1,1)"><path fill="none" stroke="#000000" d="M 408 624 L 639.8916015625 624 L 639.8916015625 754 L 408 754 L 408 624 Z Z" stroke-miterlimit="10"/></g><g transform="translate(-6,-181) scale(1,1)"><path fill="none" stroke="#000000" d="M 408 649 L 639.8916015625 649" stroke-miterlimit="10"/></g><g transform="translate(-6,-181) scale(1,1)"><path fill="none" stroke="#000000" d="M 408 717 L 639.8916015625 717" stroke-miterlimit="10"/></g><g transform="translate(-6,-181) scale(1,1)"><g><path fill="none" stroke="none"/><text fill="#000000" stroke="none" font-family="Arial" font-size="13px" font-style="normal" font-weight="bold" text-decoration="none" x="450.595458984375" y="643.5">SensorConfigurationType</text></g></g><g transform="translate(-6,-181) scale(1,1)"><g><path fill="none" stroke="none"/><text fill="#000000" stroke="none" font-family="Arial" font-size="13px" font-style="normal" font-weight="normal" text-decoration="none" x="413" y="666.5">+firwareVersion: String</text></g></g><g transform="translate(-6,-181) scale(1,1)"><g><path fill="none" stroke="none"/><text fill="#000000" stroke="none" font-family="Arial" font-size="13px" font-style="normal" font-weight="normal" text-decoration="none" x="413" y="681.5">+calibrationDate: UtcTime[0..1]</text></g></g><g transform="translate(-6,-181) scale(1,1)"><g><path fill="none" stroke="none"/><text fill="#000000" stroke="none" font-family="Arial" font-size="13px" font-style="normal" font-weight="normal" text-decoration="none" x="413" y="696.5">+nextCalibrationDate: UtcTime[0..1]</text></g></g><g transform="translate(-6,-181) scale(1,1)"><g><path fill="none" stroke="none"/><text fill="#000000" stroke="none" font-family="Arial" font-size="13px" font-style="normal" font-weight="normal" text-decoration="none" x="413" y="711.5">+calibrationInitials: String[0..1]</text></g></g><g transform="translate(-6,-181) scale(1,1)"><path fill="none" stroke="#000000" d="M 480 624 L 480 560" stroke-miterlimit="10"/></g><g transform="translate(-6,-181) scale(1,1)"><path fill="#FFFFFF" stroke="none" d="M 488.419035512032 580.3253497152483 L 480 560 L 471.580964487968 580.3253497152483"/></g><g transform="translate(-6,-181) scale(1,1)"><path fill="none" stroke="#000000" d="M 488.419035512032 580.3253497152483 L 480 560 L 471.580964487968 580.3253497152483 L 488.419035512032 580.3253497152483" stroke-miterlimit="10"/></g><g transform="translate(-6,-181) scale(1,1)"><rect fill="#C0C0C0" stroke="none" x="23" y="631" width="242.23828125" height="160" opacity="0.2"/></g><g transform="translate(-6,-181) scale(1,1)"><rect fill="#ffffff" stroke="none" x="16" y="624" width="242.23828125" height="160"/></g><g transform="translate(-6,-181) scale(1,1)"><path fill="none" stroke="#000000" d="M 16 624 L 258.23828125 624 L 258.23828125 784 L 16 784 L 16 624 Z Z" stroke-miterlimit="10"/></g><g transform="translate(-6,-181) scale(1,1)"><path fill="none" stroke="#000000" d="M 16 649 L 258.23828125 649" stroke-miterlimit="10"/></g><g transform="translate(-6,-181) scale(1,1)"><path fill="none" stroke="#000000" d="M 16 747 L 258.23828125 747" stroke-miterlimit="10"/></g><g transform="translate(-6,-181) scale(1,1)"><g><path fill="none" stroke="none"/><text fill="#000000" stroke="none" font-family="Arial" font-size="13px" font-style="normal" font-weight="bold" text-decoration="none" x="98.814208984375" y="643.5">ChannelType</text></g></g><g transform="translate(-6,-181) scale(1,1)"><g><path fill="none" stroke="none"/><text fill="#000000" stroke="none" font-family="Arial" font-size="13px" font-style="normal" font-weight="normal" text-decoration="none" x="21" y="666.5">+number: Int32</text></g></g><g transform="translate(-6,-181) scale(1,1)"><g><path fill="none" stroke="none"/><text fill="#000000" stroke="none" font-family="Arial" font-size="13px" font-style="normal" font-weight="normal" text-decoration="none" x="21" y="681.5">+name: String[0..1]</text></g></g><g transform="translate(-6,-181) scale(1,1)"><g><path fill="none" stroke="none"/><text fill="#000000" stroke="none" font-family="Arial" font-size="13px" font-style="normal" font-weight="normal" text-decoration="none" x="21" y="696.5">+description: String[0..1]</text></g></g><g transform="translate(-6,-181) scale(1,1)"><g><path fill="none" stroke="none"/><text fill="#000000" stroke="none" font-family="Arial" font-size="13px" font-style="normal" font-weight="normal" text-decoration="none" x="21" y="711.5">+calibrationDate: UtcTime[0..1]</text></g></g><g transform="translate(-6,-181) scale(1,1)"><g><path fill="none" stroke="none"/><text fill="#000000" stroke="none" font-family="Arial" font-size="13px" font-style="normal" font-weight="normal" text-decoration="none" x="21" y="726.5">+nextCalibrationDate: UtcTime[0..1]</text></g></g><g transform="translate(-6,-181) scale(1,1)"><g><path fill="none" stroke="none"/><text fill="#000000" stroke="none" font-family="Arial" font-size="13px" font-style="normal" font-weight="normal" text-decoration="none" x="21" y="741.5">+calibrationInitials: String[0..1]</text></g></g><g transform="translate(-6,-181) scale(1,1)"><path fill="none" stroke="#000000" d="M 408 676 L 258 676" stroke-miterlimit="10"/></g><g transform="translate(-6,-181) scale(1,1)"><path fill="none" stroke="#000000" d="M 268.16267485762415 671.790482243984 L 258 676 L 268.16267485762415 680.209517756016" stroke-miterlimit="10"/></g><g transform="translate(-6,-181) scale(1,1)"><g><path fill="none" stroke="none"/><text fill="#000000" stroke="none" font-family="Arial" font-size="13px" font-style="normal" font-weight="normal" text-decoration="none" x="296.5" y="692.5">+Channels</text></g></g><g transform="translate(-6,-181) scale(1,1)"><g><path fill="none" stroke="none"/><text fill="#000000" stroke="none" font-family="Arial" font-size="13px" font-style="normal" font-weight="normal" text-decoration="none" x="292.5" y="708.5">«FolderType»</text></g></g><g transform="translate(-6,-181) scale(1,1)"><g><path fill="none" stroke="none"/><text fill="#000000" stroke="none" font-family="Arial" font-size="13px" font-style="normal" font-weight="normal" text-decoration="none" x="375.5" y="669.5">0..1</text></g></g><g transform="translate(-6,-181) scale(1,1)"><g><path fill="none" stroke="none"/><text fill="#000000" stroke="none" font-family="Arial" font-size="13px" font-style="normal" font-weight="normal" text-decoration="none" x="266.5" y="652.5">+HasChannels</text></g></g><g transform="translate(-6,-181) scale(1,1)"><g><path fill="none" stroke="none"/><text fill="#000000" stroke="none" font-family="Arial" font-size="13px" font-style="normal" font-weight="normal" text-decoration="none" x="269.5" y="669.5">1..*</text></g></g><g transform="translate(-6,-181) scale(1,1)"><rect fill="#C0C0C0" stroke="none" x="903" y="329" width="158" height="47" opacity="0.2"/></g><g transform="translate(-6,-181) scale(1,1)"><rect fill="#C0C0C0" stroke="none" x="993.791015625" y="311" width="76.208984375" height="22" opacity="0.2"/></g><g transform="translate(-6,-181) scale(1,1)"><rect fill="#ffffff" stroke="none" x="896" y="322" width="158" height="47"/></g><g transform="translate(-6,-181) scale(1,1)"><path fill="none" stroke="#000000" d="M 896 322 L 1054 322 L 1054 369 L 896 369 L 896 322 Z Z" stroke-miterlimit="10"/></g><g transform="translate(-6,-181) scale(1,1)"><path fill="none" stroke="#000000" d="M 896 360 L 1054 360" stroke-miterlimit="10"/></g><g transform="translate(-6,-181) scale(1,1)"><g><path fill="none" stroke="none"/><text fill="#000000" stroke="none" font-family="Arial" font-size="13px" font-style="normal" font-weight="normal" text-decoration="none" x="926.589599609375" y="339.5">«Dynamic Type»</text></g></g><g transform="translate(-6,-181) scale(1,1)"><g><path fill="none" stroke="none"/><text fill="#000000" stroke="none" font-family="Arial" font-size="13px" font-style="normal" font-weight="bold" text-decoration="none" x="922.9619140625" y="354.5">{Component}Type</text></g></g><g transform="translate(-6,-181) scale(1,1)"><rect fill="#ffffff" stroke="none" x="986.791015625" y="304" width="76.208984375" height="22"/></g><g transform="translate(-6,-181) scale(1,1)"><path fill="none" stroke="#000000" d="M 986.791015625 304 L 1063 304 L 1063 326 L 986.791015625 326 L 986.791015625 304 Z Z" stroke-miterlimit="10" stroke-dasharray="3"/></g><g transform="translate(-6,-181) scale(1,1)"><g><path fill="none" stroke="none"/><text fill="#000000" stroke="none" font-family="Arial" font-size="13px" font-style="normal" font-weight="normal" text-decoration="none" x="991.791015625" y="321.5">Component</text></g></g><g transform="translate(-6,-181) scale(1,1)"><path fill="none" stroke="#000000" d="M 896 336 L 824 336" stroke-miterlimit="10"/></g><g transform="translate(-6,-181) scale(1,1)"><path fill="#FFFFFF" stroke="none" d="M 844.3253497152483 327.580964487968 L 824 336 L 844.3253497152483 344.419035512032"/></g><g transform="translate(-6,-181) scale(1,1)"><path fill="none" stroke="#000000" d="M 844.3253497152483 327.580964487968 L 824 336 L 844.3253497152483 344.419035512032 L 844.3253497152483 327.580964487968" stroke-miterlimit="10"/></g><g transform="translate(-6,-181) scale(1,1)"><path fill="none" stroke="#000000" d="M 612 248 L 612 208 L 904 208 L 904 272 L 824 272" stroke-miterlimit="10"/></g><g transform="translate(-6,-181) scale(1,1)"><path fill="none" stroke="#000000" d="M 834.1626748576241 267.790482243984 L 824 272 L 834.1626748576241 276.209517756016" stroke-miterlimit="10"/></g><g transform="translate(-6,-181) scale(1,1)"><g><path fill="none" stroke="none"/><text fill="#000000" stroke="none" font-family="Arial" font-size="13px" font-style="normal" font-weight="normal" text-decoration="none" x="783.5" y="203.5">+Components</text></g></g><g transform="translate(-6,-181) scale(1,1)"><g><path fill="none" stroke="none"/><text fill="#000000" stroke="none" font-family="Arial" font-size="13px" font-style="normal" font-weight="normal" text-decoration="none" x="790.5" y="227.5">«FolderType»</text></g></g><g transform="translate(-6,-181) scale(1,1)"><g><path fill="none" stroke="none"/><text fill="#000000" stroke="none" font-family="Arial" font-size="13px" font-style="normal" font-weight="normal" text-decoration="none" x="615.5" y="244.5">0..1</text></g></g><g transform="translate(-6,-181) scale(1,1)"><g><path fill="none" stroke="none"/><text fill="#000000" stroke="none" font-family="Arial" font-size="13px" font-style="normal" font-weight="normal" text-decoration="none" x="910.5" y="260.5">+HasComponents</text></g></g><g transform="translate(-6,-181) scale(1,1)"><g><path fill="none" stroke="none"/><text fill="#000000" stroke="none" font-family="Arial" font-size="13px" font-style="normal" font-weight="normal" text-decoration="none" x="839.5" y="268.5">1..*</text></g></g><g transform="translate(-6,-181) scale(1,1)"><rect fill="#C0C0C0" stroke="none" x="1391" y="335" width="239" height="130" opacity="0.2"/></g><g transform="translate(-6,-181) scale(1,1)"><rect fill="#ffffff" stroke="none" x="1384" y="328" width="239" height="130"/></g><g transform="translate(-6,-181) scale(1,1)"><path fill="none" stroke="#000000" d="M 1384 328 L 1623 328 L 1623 458 L 1384 458 L 1384 328 Z Z" stroke-miterlimit="10"/></g><g transform="translate(-6,-181) scale(1,1)"><path fill="none" stroke="#000000" d="M 1384 353 L 1623 353" stroke-miterlimit="10"/></g><g transform="translate(-6,-181) scale(1,1)"><path fill="none" stroke="#000000" d="M 1384 406 L 1623 406" stroke-miterlimit="10"/></g><g transform="translate(-6,-181) scale(1,1)"><g><path fill="none" stroke="none"/><text fill="#000000" stroke="none" font-family="Arial" font-size="13px" font-style="italic" font-weight="bold" text-decoration="none" x="1444.019287109375" y="347.5">MTCompositionType</text></g></g><g transform="translate(-6,-181) scale(1,1)"><g><path fill="none" stroke="none"/><text fill="#000000" stroke="none" font-family="Arial" font-size="13px" font-style="normal" font-weight="normal" text-decoration="none" x="1389" y="370.5">+uuid: String[0..1]</text></g></g><g transform="translate(-6,-181) scale(1,1)"><g><path fill="none" stroke="none"/><text fill="#000000" stroke="none" font-family="Arial" font-size="13px" font-style="normal" font-weight="normal" text-decoration="none" x="1389" y="385.5">+name: String[0..1]</text></g></g><g transform="translate(-6,-181) scale(1,1)"><g><path fill="none" stroke="none"/><text fill="#000000" stroke="none" font-family="Arial" font-size="13px" font-style="normal" font-weight="normal" text-decoration="none" x="1389" y="400.5">+description: String[0..1]</text></g></g><g transform="translate(-6,-181) scale(1,1)"><path fill="none" stroke="#000000" d="M 824 384 L 1384 384" stroke-miterlimit="10"/></g><g transform="translate(-6,-181) scale(1,1)"><path fill="none" stroke="#000000" d="M 1373.837325142376 388.209517756016 L 1384 384 L 1373.837325142376 379.790482243984" stroke-miterlimit="10"/></g><g transform="translate(-6,-181) scale(1,1)"><g><path fill="none" stroke="none"/><text fill="#000000" stroke="none" font-family="Arial" font-size="13px" font-style="normal" font-weight="normal" text-decoration="none" x="1110.5" y="380.5">+Compositions</text></g></g><g transform="translate(-6,-181) scale(1,1)"><g><path fill="none" stroke="none"/><text fill="#000000" stroke="none" font-family="Arial" font-size="13px" font-style="normal" font-weight="normal" text-decoration="none" x="1111.5" y="403.5">«FolderType»</text></g></g><g transform="translate(-6,-181) scale(1,1)"><g><path fill="none" stroke="none"/><text fill="#000000" stroke="none" font-family="Arial" font-size="13px" font-style="normal" font-weight="normal" text-decoration="none" x="834.5" y="402.5">0..1</text></g></g><g transform="translate(-6,-181) scale(1,1)"><g><path fill="none" stroke="none"/><text fill="#000000" stroke="none" font-family="Arial" font-size="13px" font-style="normal" font-weight="normal" text-decoration="none" x="1352.5" y="402.5">1..*</text></g></g><g transform="translate(-6,-181) scale(1,1)"><rect fill="#C0C0C0" stroke="none" x="1639" y="505" width="230" height="70" opacity="0.2"/></g><g transform="translate(-6,-181) scale(1,1)"><rect fill="#C0C0C0" stroke="none" x="1796.74462890625" y="487" width="81.25537109375" height="22" opacity="0.2"/></g><g transform="translate(-6,-181) scale(1,1)"><rect fill="#ffffff" stroke="none" x="1632" y="498" width="230" height="70"/></g><g transform="translate(-6,-181) scale(1,1)"><path fill="none" stroke="#000000" d="M 1632 498 L 1862 498 L 1862 568 L 1632 568 L 1632 498 Z Z" stroke-miterlimit="10"/></g><g transform="translate(-6,-181) scale(1,1)"><path fill="none" stroke="#000000" d="M 1632 536 L 1862 536" stroke-miterlimit="10"/></g><g transform="translate(-6,-181) scale(1,1)"><g><path fill="none" stroke="none"/><text fill="#000000" stroke="none" font-family="Arial" font-size="13px" font-style="normal" font-weight="normal" text-decoration="none" x="1698.589599609375" y="515.5">«Dynamic Type»</text></g></g><g transform="translate(-6,-181) scale(1,1)"><g><path fill="none" stroke="none"/><text fill="#000000" stroke="none" font-family="Arial" font-size="13px" font-style="normal" font-weight="bold" text-decoration="none" x="1692.438720703125" y="530.5">{Composition}Type</text></g></g><g transform="translate(-6,-181) scale(1,1)"><rect fill="#ffffff" stroke="none" x="1789.74462890625" y="480" width="81.25537109375" height="22"/></g><g transform="translate(-6,-181) scale(1,1)"><path fill="none" stroke="#000000" d="M 1789.74462890625 480 L 1871 480 L 1871 502 L 1789.74462890625 502 L 1789.74462890625 480 Z Z" stroke-miterlimit="10" stroke-dasharray="3"/></g><g transform="translate(-6,-181) scale(1,1)"><g><path fill="none" stroke="none"/><text fill="#000000" stroke="none" font-family="Arial" font-size="13px" font-style="normal" font-weight="normal" text-decoration="none" x="1794.74462890625" y="497.5">Composition</text></g></g><g transform="translate(-6,-181) scale(1,1)"><path fill="none" stroke="#000000" d="M 1752 480 L 1752 388 M 1752 388 A 8 8 0 0 0 1744 380 L 1623 380" stroke-miterlimit="10"/></g><g transform="translate(-6,-181) scale(1,1)"><path fill="#FFFFFF" stroke="none" d="M 1643.3253497152482 371.580964487968 L 1623 380 L 1643.3253497152482 388.419035512032"/></g><g transform="translate(-6,-181) scale(1,1)"><path fill="none" stroke="#000000" d="M 1643.3253497152482 371.580964487968 L 1623 380 L 1643.3253497152482 388.419035512032 L 1643.3253497152482 371.580964487968" stroke-miterlimit="10"/></g><g transform="translate(-6,-181) scale(1,1)"><g><path fill="none" stroke="none"/><text fill="#000000" stroke="none" font-family="Arial" font-size="13px" font-style="normal" font-weight="normal" text-decoration="none" x="1759.5" y="443.5">«bind»</text></g></g><g transform="translate(-6,-181) scale(1,1)"><rect fill="#C0C0C0" stroke="none" x="1679" y="623" width="310.666015625" height="128" opacity="0.2"/></g><g transform="translate(-6,-181) scale(1,1)"><rect fill="#ffffff" stroke="none" x="1672" y="616" width="310.666015625" height="128"/></g><g transform="translate(-6,-181) scale(1,1)"><path fill="none" stroke="#000000" d="M 1672 616 L 1982.666015625 616 L 1982.666015625 744 L 1672 744 L 1672 616 Z Z" stroke-miterlimit="10"/></g><g transform="translate(-6,-181) scale(1,1)"><path fill="none" stroke="#000000" d="M 1672 654 L 1982.666015625 654" stroke-miterlimit="10"/></g><g transform="translate(-6,-181) scale(1,1)"><g><path fill="none" stroke="none"/><text fill="#000000" stroke="none" font-family="Arial" font-size="13px" font-style="normal" font-weight="normal" text-decoration="none" x="1804.935302734375" y="633.5">«mixin»</text></g></g><g transform="translate(-6,-181) scale(1,1)"><g><path fill="none" stroke="none"/><text fill="#000000" stroke="none" font-family="Arial" font-size="13px" font-style="normal" font-weight="bold" text-decoration="none" x="1777.48486328125" y="648.5">MTDataItemType</text></g></g><g transform="translate(-6,-181) scale(1,1)"><g><path fill="none" stroke="none"/><text fill="#000000" stroke="none" font-family="Arial" font-size="13px" font-style="normal" font-weight="normal" text-decoration="none" x="1677" y="671.5">+sourceName: String[0..1]</text></g></g><g transform="translate(-6,-181) scale(1,1)"><g><path fill="none" stroke="none"/><text fill="#000000" stroke="none" font-family="Arial" font-size="13px" font-style="normal" font-weight="normal" text-decoration="none" x="1677" y="686.5">+streamRate: Double[0..1]</text></g></g><g transform="translate(-6,-181) scale(1,1)"><g><path fill="none" stroke="none"/><text fill="#000000" stroke="none" font-family="Arial" font-size="13px" font-style="normal" font-weight="normal" text-decoration="none" x="1677" y="701.5">+sampleRate: Double[0..1]</text></g></g><g transform="translate(-6,-181) scale(1,1)"><g><path fill="none" stroke="none"/><text fill="#000000" stroke="none" font-family="Arial" font-size="13px" font-style="normal" font-weight="normal" text-decoration="none" x="1677" y="716.5">+representation: RepresentationType[0..1]</text></g></g><g transform="translate(-6,-181) scale(1,1)"><g><path fill="none" stroke="none"/><text fill="#000000" stroke="none" font-family="Arial" font-size="13px" font-style="normal" font-weight="normal" text-decoration="none" x="1677" y="731.5">+category: MTCategoryType[0..1]</text></g></g><g transform="translate(-6,-181) scale(1,1)"><rect fill="#C0C0C0" stroke="none" x="1247" y="271" width="110.39111328125" height="49" opacity="0.2"/></g><g transform="translate(-6,-181) scale(1,1)"><rect fill="#ffffff" stroke="none" x="1240" y="264" width="110.39111328125" height="49"/></g><g transform="translate(-6,-181) scale(1,1)"><path fill="none" stroke="#000000" d="M 1240 264 L 1350.39111328125 264 L 1350.39111328125 313 L 1240 313 L 1240 264 Z Z" stroke-miterlimit="10"/></g><g transform="translate(-6,-181) scale(1,1)"><path fill="none" stroke="#000000" d="M 1240 304 L 1350.39111328125 304" stroke-miterlimit="10"/></g><g transform="translate(-6,-181) scale(1,1)"><g><path fill="none" stroke="none"/><text fill="#000000" stroke="none" font-family="Arial" font-size="13px" font-style="italic" font-weight="bold" text-decoration="none" x="1247.626220703125" y="283.5">BaseObjectType</text></g></g><g transform="translate(-6,-181) scale(1,1)"><g><path fill="none" stroke="none"/><text fill="#000000" stroke="none" font-family="Arial" font-size="13px" font-style="normal" font-weight="normal" text-decoration="none" x="1252.945556640625" y="298.5">(from OPCUA)</text></g></g><g transform="translate(-6,-181) scale(1,1)"><path fill="none" stroke="#000000" d="M 1912 616 L 1912 296 M 1912 296 A 8 8 0 0 0 1904 288 L 1350 288" stroke-miterlimit="10"/></g><g transform="translate(-6,-181) scale(1,1)"><path fill="none" stroke="#000000" d="M 1360.162674857624 283.790482243984 L 1350 288 L 1360.162674857624 292.209517756016" stroke-miterlimit="10"/></g><g transform="translate(-6,-181) scale(1,1)"><g><path fill="none" stroke="none"/><text fill="#000000" stroke="none" font-family="Arial" font-size="13px" font-style="normal" font-weight="normal" text-decoration="none" x="1662.5" y="283.5">+source</text></g></g><g transform="translate(-6,-181) scale(1,1)"><g><path fill="none" stroke="none"/><text fill="#000000" stroke="none" font-family="Arial" font-size="13px" font-style="normal" font-weight="normal" text-decoration="none" x="1816.5" y="324.5">«NonHierarchialReferenceType»</text></g></g><g transform="translate(-6,-181) scale(1,1)"><g><path fill="none" stroke="none"/><text fill="#000000" stroke="none" font-family="Arial" font-size="13px" font-style="normal" font-weight="normal" text-decoration="none" x="1920.5" y="612.5">0..1</text></g></g><g transform="translate(-6,-181) scale(1,1)"><g><path fill="none" stroke="none"/><text fill="#000000" stroke="none" font-family="Arial" font-size="13px" font-style="normal" font-weight="normal" text-decoration="none" x="1367.5" y="281.5">1</text></g></g><g transform="translate(-6,-181) scale(1,1)"><path fill="none" stroke="#000000" d="M 824 288 L 1240 288" stroke-miterlimit="10"/></g><g transform="translate(-6,-181) scale(1,1)"><path fill="none" stroke="#000000" d="M 1229.837325142376 292.209517756016 L 1240 288 L 1229.837325142376 283.790482243984" stroke-miterlimit="10"/></g><g transform="translate(-6,-181) scale(1,1)"><g><path fill="none" stroke="none"/><text fill="#000000" stroke="none" font-family="Arial" font-size="13px" font-style="normal" font-weight="normal" text-decoration="none" x="1033.5" y="276.5">«NonHierarchialReferenceType»</text></g></g><g transform="translate(-6,-181) scale(1,1)"><g><path fill="none" stroke="none"/><text fill="#000000" stroke="none" font-family="Arial" font-size="13px" font-style="normal" font-weight="normal" text-decoration="none" x="839.5" y="307.5">0..1</text></g></g><g transform="translate(-6,-181) scale(1,1)"><g><path fill="none" stroke="none"/><text fill="#000000" stroke="none" font-family="Arial" font-size="13px" font-style="normal" font-weight="normal" text-decoration="none" x="1208.5" y="306.5">1..*</text></g></g><g transform="translate(-6,-181) scale(1,1)"><path fill="none" stroke="#000000" d="M 680 393 L 680 464 M 680 464 A 8 8 0 0 0 688 472 L 774 472 M 774 472 A 8 8 0 0 1 782 480 L 782 640" stroke-miterlimit="10"/></g><g transform="translate(-6,-181) scale(1,1)"><path fill="none" stroke="#000000" d="M 777.790482243984 629.8373251423759 L 782 640 L 786.209517756016 629.8373251423759" stroke-miterlimit="10"/></g><g transform="translate(-6,-181) scale(1,1)"><g><path fill="none" stroke="none"/><text fill="#000000" stroke="none" font-family="Arial" font-size="13px" font-style="normal" font-weight="normal" text-decoration="none" x="687.5" y="467.5">+Conditions</text></g></g><g transform="translate(-6,-181) scale(1,1)"><g><path fill="none" stroke="none"/><text fill="#000000" stroke="none" font-family="Arial" font-size="13px" font-style="normal" font-weight="normal" text-decoration="none" x="682.108642578125" y="492.5">«FolderType»</text></g></g><g transform="translate(-6,-181) scale(1,1)"><g><path fill="none" stroke="none"/><text fill="#000000" stroke="none" font-family="Arial" font-size="13px" font-style="normal" font-weight="normal" text-decoration="none" x="656.5" y="420.5">0..1</text></g></g><g transform="translate(-6,-181) scale(1,1)"><g><path fill="none" stroke="none"/><text fill="#000000" stroke="none" font-family="Arial" font-size="13px" font-style="normal" font-weight="normal" text-decoration="none" x="759.5" y="624.5">1..*</text></g></g><g transform="translate(-6,-181) scale(1,1)"><rect fill="#C0C0C0" stroke="none" x="959" y="656" width="246" height="100" opacity="0.2"/></g><g transform="translate(-6,-181) scale(1,1)"><rect fill="#C0C0C0" stroke="none" x="1138.5146484375" y="623" width="75.4853515625" height="37" opacity="0.2"/></g><g transform="translate(-6,-181) scale(1,1)"><rect fill="#ffffff" stroke="none" x="952" y="649" width="246" height="100"/></g><g transform="translate(-6,-181) scale(1,1)"><path fill="none" stroke="#000000" d="M 952 649 L 1198 649 L 1198 749 L 952 749 L 952 649 Z Z" stroke-miterlimit="10"/></g><g transform="translate(-6,-181) scale(1,1)"><g><path fill="none" stroke="none"/><text fill="#000000" stroke="none" font-family="Arial" font-size="13px" font-style="normal" font-weight="normal" text-decoration="none" x="1026.589599609375" y="666.5">«Dynamic Type»</text></g></g><g transform="translate(-6,-181) scale(1,1)"><g><path fill="none" stroke="none"/><text fill="#000000" stroke="none" font-family="Arial" font-size="13px" font-style="normal" font-weight="bold" text-decoration="none" x="1030.195068359375" y="681.5">{DataItem}Type</text></g></g><g transform="translate(-6,-181) scale(1,1)"><rect fill="#ffffff" stroke="none" x="1131.5146484375" y="616" width="75.4853515625" height="37"/></g><g transform="translate(-6,-181) scale(1,1)"><path fill="none" stroke="#000000" d="M 1131.5146484375 616 L 1207 616 L 1207 653 L 1131.5146484375 653 L 1131.5146484375 616 Z Z" stroke-miterlimit="10" stroke-dasharray="3"/></g><g transform="translate(-6,-181) scale(1,1)"><g><path fill="none" stroke="none"/><text fill="#000000" stroke="none" font-family="Arial" font-size="13px" font-style="normal" font-weight="normal" text-decoration="none" x="1136.5146484375" y="633.5">DataItem</text></g></g><g transform="translate(-6,-181) scale(1,1)"><g><path fill="none" stroke="none"/><text fill="#000000" stroke="none" font-family="Arial" font-size="13px" font-style="normal" font-weight="normal" text-decoration="none" x="1136.5146484375" y="648.5">ParentType</text></g></g><g transform="translate(-6,-181) scale(1,1)"><path fill="none" stroke="#000000" d="M 1512 458 L 1512 640 M 1512 640 A 8 8 0 0 0 1520 648 L 1672 648" stroke-miterlimit="10"/></g><g transform="translate(-6,-181) scale(1,1)"><g><path fill="none" stroke="none"/><text fill="#000000" stroke="none" font-family="Arial" font-size="13px" font-style="normal" font-weight="normal" text-decoration="none" x="1520.944091796875" y="588.5">+composition</text></g></g><g transform="translate(-6,-181) scale(1,1)"><g><path fill="none" stroke="none"/><text fill="#000000" stroke="none" font-family="Arial" font-size="13px" font-style="normal" font-weight="normal" text-decoration="none" x="1417.5" y="624.5">«NonHierarchialReferenceType»</text></g></g><g transform="translate(-6,-181) scale(1,1)"><g><path fill="none" stroke="none"/><text fill="#000000" stroke="none" font-family="Arial" font-size="13px" font-style="normal" font-weight="normal" text-decoration="none" x="1482.5" y="481.5">0..1</text></g></g><g transform="translate(-6,-181) scale(1,1)"><g><path fill="none" stroke="none"/><text fill="#000000" stroke="none" font-family="Arial" font-size="13px" font-style="normal" font-weight="normal" text-decoration="none" x="1518.5" y="668.5">+Composed With</text></g></g><g transform="translate(-6,-181) scale(1,1)"><g><path fill="none" stroke="none"/><text fill="#000000" stroke="none" font-family="Arial" font-size="13px" font-style="normal" font-weight="normal" text-decoration="none" x="1640.5" y="666.5">0..*</text></g></g><g transform="translate(-6,-181) scale(1,1)"><path fill="#ffffff" stroke="none" d="M 2008 664 L 2205 664 L 2215 674 L 2215 717 L 2008 717 L 2008 664"/></g><g transform="translate(-6,-181) scale(1,1)"><path fill="none" stroke="#000000" d="M 2008 664 L 2205 664 L 2215 674 L 2215 717 L 2008 717 L 2008 664 L 2008 664" stroke-miterlimit="10"/></g><g transform="translate(-6,-181) scale(1,1)"><path fill="none" stroke="#000000" d="M 2205 664 L 2205 674 L 2215 674 L 2205 664" stroke-miterlimit="10"/></g><g transform="translate(-6,-181) scale(1,1)"><g><path fill="none" stroke="none"/><text fill="#000000" stroke="none" font-family="Arial" font-size="13px" font-style="normal" font-weight="normal" text-decoration="none" x="2013" y="682">See Data Item Package</text></g></g><g transform="translate(-6,-181) scale(1,1)"><path fill="none" stroke="#000000" d="M 1983 691 L 2008 691" stroke-miterlimit="10" stroke-dasharray="3"/></g><g transform="translate(-6,-181) scale(1,1)"><path fill="#ffffff" stroke="none" d="M 1240 768 L 1413 768 L 1423 778 L 1423 831 L 1240 831 L 1240 768"/></g><g transform="translate(-6,-181) scale(1,1)"><path fill="none" stroke="#000000" d="M 1240 768 L 1413 768 L 1423 778 L 1423 831 L 1240 831 L 1240 768 L 1240 768" stroke-miterlimit="10"/></g><g transform="translate(-6,-181) scale(1,1)"><path fill="none" stroke="#000000" d="M 1413 768 L 1413 778 L 1423 778 L 1413 768" stroke-miterlimit="10"/></g><g transform="translate(-6,-181) scale(1,1)"><g><path fill="none" stroke="none"/><text fill="#000000" stroke="none" font-family="Arial" font-size="13px" font-style="normal" font-weight="normal" text-decoration="none" x="1245" y="786">See Data Items Package.</text></g></g><g transform="translate(-6,-181) scale(1,1)"><path fill="none" stroke="#000000" d="M 1198 749 L 1198 768 M 1198 768 A 8 8 0 0 0 1206 776 L 1240 776" stroke-miterlimit="10" stroke-dasharray="3"/></g><g transform="translate(-6,-181) scale(1,1)"><path fill="none" stroke="#000000" d="M 805 393 L 805 480 M 805 480 A 8 8 0 0 0 813 488 L 1056 488 M 1056 488 A 8 8 0 0 1 1064 496 L 1064 616" stroke-miterlimit="10"/></g><g transform="translate(-6,-181) scale(1,1)"><path fill="none" stroke="#000000" d="M 1059.7904822439841 605.8373251423759 L 1064 616 L 1068.2095177560159 605.8373251423759" stroke-miterlimit="10"/></g><g transform="translate(-6,-181) scale(1,1)"><g><path fill="none" stroke="none"/><text fill="#000000" stroke="none" font-family="Arial" font-size="13px" font-style="normal" font-weight="normal" text-decoration="none" x="894.5" y="507.5">«HasProperty»</text></g></g><g transform="translate(-6,-181) scale(1,1)"><g><path fill="none" stroke="none"/><text fill="#000000" stroke="none" font-family="Arial" font-size="13px" font-style="normal" font-weight="normal" text-decoration="none" x="962.2958984375" y="620.5">Has DataItems</text></g></g><g transform="translate(-6,-181) scale(1,1)"><g><path fill="none" stroke="none"/><text fill="#000000" stroke="none" font-family="Arial" font-size="13px" font-style="normal" font-weight="normal" text-decoration="none" x="1041.5" y="600.5">0..*</text></g></g><g transform="translate(-6,-181) scale(1,1)"><rect fill="#C0C0C0" stroke="none" x="711" y="647" width="203.0478515625" height="112" opacity="0.2"/></g><g transform="translate(-6,-181) scale(1,1)"><rect fill="#ffffff" stroke="none" x="704" y="640" width="203.0478515625" height="112"/></g><g transform="translate(-6,-181) scale(1,1)"><path fill="none" stroke="#000000" d="M 704 640 L 907.0478515625 640 L 907.0478515625 752 L 704 752 L 704 640 Z Z" stroke-miterlimit="10"/></g><g transform="translate(-6,-181) scale(1,1)"><path fill="none" stroke="#000000" d="M 704 680 L 907.0478515625 680" stroke-miterlimit="10"/></g><g transform="translate(-6,-181) scale(1,1)"><g><path fill="none" stroke="none"/><text fill="#000000" stroke="none" font-family="Arial" font-size="13px" font-style="normal" font-weight="bold" text-decoration="none" x="715.206298828125" y="659.5">MTNonExclusiveConditionType</text></g></g><g transform="translate(-6,-181) scale(1,1)"><g><path fill="none" stroke="none"/><text fill="#000000" stroke="none" font-family="Arial" font-size="13px" font-style="normal" font-weight="normal" text-decoration="none" x="755.67578125" y="674.5">(from Conditions)</text></g></g></g></svg>