<svg version="1.1" xmlns="http://www.w3.org/2000/svg" xmlns:xlink="http://www.w3.org/1999/xlink" width="1371" height="700"><defs/><g><g transform="translate(-46,-158) scale(1,1)"><rect fill="#C0C0C0" stroke="none" x="471" y="255" width="360" height="168" opacity="0.2"/></g><g transform="translate(-46,-158) scale(1,1)"><rect fill="#ffffff" stroke="none" x="464" y="248" width="360" height="168"/></g><g transform="translate(-46,-158) scale(1,1)"><path fill="none" stroke="#000000" d="M 464 248 L 824 248 L 824 416 L 464 416 L 464 248 Z Z" stroke-miterlimit="10"/></g><g transform="translate(-46,-158) scale(1,1)"><path fill="none" stroke="#000000" d="M 464 273 L 824 273" stroke-miterlimit="10"/></g><g transform="translate(-46,-158) scale(1,1)"><g><path fill="none" stroke="none"/><text fill="#000000" stroke="none" font-family="Arial" font-size="13px" font-style="italic" font-weight="bold" text-decoration="none" x="587.04248046875" y="267.5">MTComponentType</text></g></g><g transform="translate(-46,-158) scale(1,1)"><g><path fill="none" stroke="none"/><text fill="#000000" stroke="none" font-family="Arial" font-size="13px" font-style="normal" font-weight="normal" text-decoration="none" x="469" y="290.5">+Id: IdType</text></g></g><g transform="translate(-46,-158) scale(1,1)"><g><path fill="none" stroke="none"/><text fill="#000000" stroke="none" font-family="Arial" font-size="13px" font-style="normal" font-weight="normal" text-decoration="none" x="469" y="305.5">+Name: String[0..1]</text></g></g><g transform="translate(-46,-158) scale(1,1)"><g><path fill="none" stroke="none"/><text fill="#000000" stroke="none" font-family="Arial" font-size="13px" font-style="normal" font-weight="normal" text-decoration="none" x="469" y="320.5">+NativeName: String[0..1]</text></g></g><g transform="translate(-46,-158) scale(1,1)"><g><path fill="none" stroke="none"/><text fill="#000000" stroke="none" font-family="Arial" font-size="13px" font-style="normal" font-weight="normal" text-decoration="none" x="469" y="335.5">+Uuid: String[0..1] {unique}</text></g></g><g transform="translate(-46,-158) scale(1,1)"><g><path fill="none" stroke="none"/><text fill="#000000" stroke="none" font-family="Arial" font-size="13px" font-style="normal" font-weight="normal" text-decoration="none" x="469" y="350.5">«Deprecated»+SampleRate: float[0..1]</text></g></g><g transform="translate(-46,-158) scale(1,1)"><g><path fill="none" stroke="none"/><text fill="#000000" stroke="none" font-family="Arial" font-size="13px" font-style="normal" font-weight="normal" text-decoration="none" x="469" y="365.5">+SampleInterval: float[0..1]</text></g></g><g transform="translate(-46,-158) scale(1,1)"><rect fill="#C0C0C0" stroke="none" x="63" y="415" width="269.166015625" height="100" opacity="0.2"/></g><g transform="translate(-46,-158) scale(1,1)"><rect fill="#ffffff" stroke="none" x="56" y="408" width="269.166015625" height="100"/></g><g transform="translate(-46,-158) scale(1,1)"><path fill="none" stroke="#000000" d="M 56 408 L 325.166015625 408 L 325.166015625 508 L 56 508 L 56 408 Z Z" stroke-miterlimit="10"/></g><g transform="translate(-46,-158) scale(1,1)"><path fill="none" stroke="#000000" d="M 56 433 L 325.166015625 433" stroke-miterlimit="10"/></g><g transform="translate(-46,-158) scale(1,1)"><path fill="none" stroke="#000000" d="M 56 471 L 325.166015625 471" stroke-miterlimit="10"/></g><g transform="translate(-46,-158) scale(1,1)"><g><path fill="none" stroke="none"/><text fill="#000000" stroke="none" font-family="Arial" font-size="13px" font-style="normal" font-weight="bold" text-decoration="none" x="147.238037109375" y="427.5">MTDeviceType</text></g></g><g transform="translate(-46,-158) scale(1,1)"><g><path fill="none" stroke="none"/><text fill="#000000" stroke="none" font-family="Arial" font-size="13px" font-style="normal" font-weight="normal" text-decoration="none" x="61" y="450.5">+Version: String[0..1]</text></g></g><g transform="translate(-46,-158) scale(1,1)"><g><path fill="none" stroke="none"/><text fill="#000000" stroke="none" font-family="Arial" font-size="13px" font-style="normal" font-weight="normal" text-decoration="none" x="61" y="465.5">«Deprecated»+Iso841Class: String[0..1]</text></g></g><g transform="translate(-46,-158) scale(1,1)"><g><path fill="none" stroke="none"/><text fill="#000000" stroke="none" font-family="Arial" font-size="13px" font-style="normal" font-weight="normal" text-decoration="none" x="61" y="488.5">+deriveBrowseName(element)</text></g></g><g transform="translate(-46,-158) scale(1,1)"><g><path fill="none" stroke="none"/><text fill="#000000" stroke="none" font-family="Arial" font-size="13px" font-style="normal" font-weight="normal" text-decoration="none" x="61" y="503.5">+deriveNodeId(element)</text></g></g><g transform="translate(-46,-158) scale(1,1)"><path fill="none" stroke="#000000" d="M 325 456 L 408 456 M 408 456 A 8 8 0 0 0 416 448 L 416 368 M 416 368 A 8 8 0 0 1 424 360 L 464 360" stroke-miterlimit="10"/></g><g transform="translate(-46,-158) scale(1,1)"><path fill="#FFFFFF" stroke="none" d="M 443.6746502847517 368.419035512032 L 464 360 L 443.6746502847517 351.580964487968"/></g><g transform="translate(-46,-158) scale(1,1)"><path fill="none" stroke="#000000" d="M 443.6746502847517 368.419035512032 L 464 360 L 443.6746502847517 351.580964487968 L 443.6746502847517 368.419035512032" stroke-miterlimit="10"/></g><g transform="translate(-46,-158) scale(1,1)"><rect fill="#C0C0C0" stroke="none" x="263" y="575" width="197.1728515625" height="48" opacity="0.2"/></g><g transform="translate(-46,-158) scale(1,1)"><rect fill="#ffffff" stroke="none" x="256" y="568" width="197.1728515625" height="48"/></g><g transform="translate(-46,-158) scale(1,1)"><path fill="none" stroke="#000000" d="M 256 568 L 453.1728515625 568 L 453.1728515625 616 L 256 616 L 256 568 Z Z" stroke-miterlimit="10"/></g><g transform="translate(-46,-158) scale(1,1)"><path fill="none" stroke="#000000" d="M 256 593 L 453.1728515625 593" stroke-miterlimit="10"/></g><g transform="translate(-46,-158) scale(1,1)"><g><path fill="none" stroke="none"/><text fill="#000000" stroke="none" font-family="Arial" font-size="13px" font-style="italic" font-weight="bold" text-decoration="none" x="292.56982421875" y="587.5">MTConfigurationType</text></g></g><g transform="translate(-46,-158) scale(1,1)"><rect fill="#C0C0C0" stroke="none" x="103" y="247" width="193.58984375" height="130" opacity="0.2"/></g><g transform="translate(-46,-158) scale(1,1)"><rect fill="#ffffff" stroke="none" x="96" y="240" width="193.58984375" height="130"/></g><g transform="translate(-46,-158) scale(1,1)"><path fill="none" stroke="#000000" d="M 96 240 L 289.58984375 240 L 289.58984375 370 L 96 370 L 96 240 Z Z" stroke-miterlimit="10"/></g><g transform="translate(-46,-158) scale(1,1)"><path fill="none" stroke="#000000" d="M 96 265 L 289.58984375 265" stroke-miterlimit="10"/></g><g transform="translate(-46,-158) scale(1,1)"><path fill="none" stroke="#000000" d="M 96 333 L 289.58984375 333" stroke-miterlimit="10"/></g><g transform="translate(-46,-158) scale(1,1)"><g><path fill="none" stroke="none"/><text fill="#000000" stroke="none" font-family="Arial" font-size="13px" font-style="normal" font-weight="bold" text-decoration="none" x="146.1904296875" y="259.5">DescriptionType</text></g></g><g transform="translate(-46,-158) scale(1,1)"><g><path fill="none" stroke="none"/><text fill="#000000" stroke="none" font-family="Arial" font-size="13px" font-style="normal" font-weight="normal" text-decoration="none" x="101" y="282.5">+Station: String[0..1]</text></g></g><g transform="translate(-46,-158) scale(1,1)"><g><path fill="none" stroke="none"/><text fill="#000000" stroke="none" font-family="Arial" font-size="13px" font-style="normal" font-weight="normal" text-decoration="none" x="101" y="297.5">+SerialNumber: String[0..1]</text></g></g><g transform="translate(-46,-158) scale(1,1)"><g><path fill="none" stroke="none"/><text fill="#000000" stroke="none" font-family="Arial" font-size="13px" font-style="normal" font-weight="normal" text-decoration="none" x="101" y="312.5">+Manufacturer: String[0..1]</text></g></g><g transform="translate(-46,-158) scale(1,1)"><g><path fill="none" stroke="none"/><text fill="#000000" stroke="none" font-family="Arial" font-size="13px" font-style="normal" font-weight="normal" text-decoration="none" x="101" y="327.5">+Data: String[0..1]</text></g></g><g transform="translate(-46,-158) scale(1,1)"><g><path fill="none" stroke="none"/><text fill="#000000" stroke="none" font-family="Arial" font-size="13px" font-style="normal" font-weight="normal" text-decoration="none" x="101" y="350.5">+deriveBrowseName(element)</text></g></g><g transform="translate(-46,-158) scale(1,1)"><g><path fill="none" stroke="none"/><text fill="#000000" stroke="none" font-family="Arial" font-size="13px" font-style="normal" font-weight="normal" text-decoration="none" x="101" y="365.5">+deriveNodeId(element)</text></g></g><g transform="translate(-46,-158) scale(1,1)"><path fill="none" stroke="#000000" d="M 464 304 L 290 304" stroke-miterlimit="10"/></g><g transform="translate(-46,-158) scale(1,1)"><path fill="none" stroke="#000000" d="M 300.16267485762415 299.790482243984 L 290 304 L 300.16267485762415 308.209517756016" stroke-miterlimit="10"/></g><g transform="translate(-46,-158) scale(1,1)"><g><path fill="none" stroke="none"/><text fill="#000000" stroke="none" font-family="Arial" font-size="13px" font-style="normal" font-weight="normal" text-decoration="none" x="334.5" y="299.5">+Description</text></g></g><g transform="translate(-46,-158) scale(1,1)"><g><path fill="none" stroke="none"/><text fill="#000000" stroke="none" font-family="Arial" font-size="13px" font-style="normal" font-weight="normal" text-decoration="none" x="318.5" y="324.5">«HasComponent»</text></g></g><g transform="translate(-46,-158) scale(1,1)"><g><path fill="none" stroke="none"/><text fill="#000000" stroke="none" font-family="Arial" font-size="13px" font-style="normal" font-weight="normal" text-decoration="none" x="431.5" y="297.5">0..1</text></g></g><g transform="translate(-46,-158) scale(1,1)"><g><path fill="none" stroke="none"/><text fill="#000000" stroke="none" font-family="Arial" font-size="13px" font-style="normal" font-weight="normal" text-decoration="none" x="307.5" y="297.5">1</text></g></g><g transform="translate(-46,-158) scale(1,1)"><path fill="none" stroke="#000000" d="M 528 416 L 528 488 M 528 488 A 8 8 0 0 1 520 496 L 362 496 M 362 496 A 8 8 0 0 0 354 504 L 354 568" stroke-miterlimit="10"/></g><g transform="translate(-46,-158) scale(1,1)"><path fill="none" stroke="#000000" d="M 349.790482243984 557.8373251423759 L 354 568 L 358.209517756016 557.8373251423759" stroke-miterlimit="10"/></g><g transform="translate(-46,-158) scale(1,1)"><g><path fill="none" stroke="none"/><text fill="#000000" stroke="none" font-family="Arial" font-size="13px" font-style="normal" font-weight="normal" text-decoration="none" x="390.5" y="491.5">+Configuration</text></g></g><g transform="translate(-46,-158) scale(1,1)"><g><path fill="none" stroke="none"/><text fill="#000000" stroke="none" font-family="Arial" font-size="13px" font-style="normal" font-weight="normal" text-decoration="none" x="382.5" y="516.5">«HasComponent»</text></g></g><g transform="translate(-46,-158) scale(1,1)"><g><path fill="none" stroke="none"/><text fill="#000000" stroke="none" font-family="Arial" font-size="13px" font-style="normal" font-weight="normal" text-decoration="none" x="504.5" y="443.5">0..1</text></g></g><g transform="translate(-46,-158) scale(1,1)"><g><path fill="none" stroke="none"/><text fill="#000000" stroke="none" font-family="Arial" font-size="13px" font-style="normal" font-weight="normal" text-decoration="none" x="337.5" y="552.5">1</text></g></g><g transform="translate(-46,-158) scale(1,1)"><rect fill="#C0C0C0" stroke="none" x="903" y="321" width="158" height="47" opacity="0.2"/></g><g transform="translate(-46,-158) scale(1,1)"><rect fill="#C0C0C0" stroke="none" x="993.791015625" y="303" width="76.208984375" height="22" opacity="0.2"/></g><g transform="translate(-46,-158) scale(1,1)"><rect fill="#ffffff" stroke="none" x="896" y="314" width="158" height="47"/></g><g transform="translate(-46,-158) scale(1,1)"><path fill="none" stroke="#000000" d="M 896 314 L 1054 314 L 1054 361 L 896 361 L 896 314 Z Z" stroke-miterlimit="10"/></g><g transform="translate(-46,-158) scale(1,1)"><path fill="none" stroke="#000000" d="M 896 352 L 1054 352" stroke-miterlimit="10"/></g><g transform="translate(-46,-158) scale(1,1)"><g><path fill="none" stroke="none"/><text fill="#000000" stroke="none" font-family="Arial" font-size="13px" font-style="normal" font-weight="normal" text-decoration="none" x="926.589599609375" y="331.5">«Dynamic Type»</text></g></g><g transform="translate(-46,-158) scale(1,1)"><g><path fill="none" stroke="none"/><text fill="#000000" stroke="none" font-family="Arial" font-size="13px" font-style="normal" font-weight="bold" text-decoration="none" x="922.9619140625" y="346.5">{Component}Type</text></g></g><g transform="translate(-46,-158) scale(1,1)"><rect fill="#ffffff" stroke="none" x="986.791015625" y="296" width="76.208984375" height="22"/></g><g transform="translate(-46,-158) scale(1,1)"><path fill="none" stroke="#000000" d="M 986.791015625 296 L 1063 296 L 1063 318 L 986.791015625 318 L 986.791015625 296 Z Z" stroke-miterlimit="10" stroke-dasharray="3"/></g><g transform="translate(-46,-158) scale(1,1)"><g><path fill="none" stroke="none"/><text fill="#000000" stroke="none" font-family="Arial" font-size="13px" font-style="normal" font-weight="normal" text-decoration="none" x="991.791015625" y="313.5">Component</text></g></g><g transform="translate(-46,-158) scale(1,1)"><path fill="none" stroke="#000000" d="M 896 336 L 824 336" stroke-miterlimit="10"/></g><g transform="translate(-46,-158) scale(1,1)"><path fill="#FFFFFF" stroke="none" d="M 844.3253497152483 327.580964487968 L 824 336 L 844.3253497152483 344.419035512032"/></g><g transform="translate(-46,-158) scale(1,1)"><path fill="none" stroke="#000000" d="M 844.3253497152483 327.580964487968 L 824 336 L 844.3253497152483 344.419035512032 L 844.3253497152483 327.580964487968" stroke-miterlimit="10"/></g><g transform="translate(-46,-158) scale(1,1)"><path fill="none" stroke="#000000" d="M 612 248 L 612 208 L 904 208 L 904 272 L 824 272" stroke-miterlimit="10"/></g><g transform="translate(-46,-158) scale(1,1)"><path fill="none" stroke="#000000" d="M 834.1626748576241 267.790482243984 L 824 272 L 834.1626748576241 276.209517756016" stroke-miterlimit="10"/></g><g transform="translate(-46,-158) scale(1,1)"><g><path fill="none" stroke="none"/><text fill="#000000" stroke="none" font-family="Arial" font-size="13px" font-style="normal" font-weight="normal" text-decoration="none" x="783.5" y="203.5">+Components</text></g></g><g transform="translate(-46,-158) scale(1,1)"><g><path fill="none" stroke="none"/><text fill="#000000" stroke="none" font-family="Arial" font-size="13px" font-style="normal" font-weight="normal" text-decoration="none" x="790.5" y="227.5">«FolderType»</text></g></g><g transform="translate(-46,-158) scale(1,1)"><g><path fill="none" stroke="none"/><text fill="#000000" stroke="none" font-family="Arial" font-size="13px" font-style="normal" font-weight="normal" text-decoration="none" x="615.5" y="244.5">0..1</text></g></g><g transform="translate(-46,-158) scale(1,1)"><g><path fill="none" stroke="none"/><text fill="#000000" stroke="none" font-family="Arial" font-size="13px" font-style="normal" font-weight="normal" text-decoration="none" x="910.5" y="260.5">+HasComponents</text></g></g><g transform="translate(-46,-158) scale(1,1)"><g><path fill="none" stroke="none"/><text fill="#000000" stroke="none" font-family="Arial" font-size="13px" font-style="normal" font-weight="normal" text-decoration="none" x="839.5" y="268.5">1..*</text></g></g><g transform="translate(-46,-158) scale(1,1)"><rect fill="#C0C0C0" stroke="none" x="1175" y="383" width="239" height="80" opacity="0.2"/></g><g transform="translate(-46,-158) scale(1,1)"><rect fill="#ffffff" stroke="none" x="1168" y="376" width="239" height="80"/></g><g transform="translate(-46,-158) scale(1,1)"><path fill="none" stroke="#000000" d="M 1168 376 L 1407 376 L 1407 456 L 1168 456 L 1168 376 Z Z" stroke-miterlimit="10"/></g><g transform="translate(-46,-158) scale(1,1)"><path fill="none" stroke="#000000" d="M 1168 401 L 1407 401" stroke-miterlimit="10"/></g><g transform="translate(-46,-158) scale(1,1)"><g><path fill="none" stroke="none"/><text fill="#000000" stroke="none" font-family="Arial" font-size="13px" font-style="italic" font-weight="bold" text-decoration="none" x="1228.019287109375" y="395.5">MTCompositionType</text></g></g><g transform="translate(-46,-158) scale(1,1)"><g><path fill="none" stroke="none"/><text fill="#000000" stroke="none" font-family="Arial" font-size="13px" font-style="normal" font-weight="normal" text-decoration="none" x="1173" y="418.5">+Uuid: String[0..1]</text></g></g><g transform="translate(-46,-158) scale(1,1)"><g><path fill="none" stroke="none"/><text fill="#000000" stroke="none" font-family="Arial" font-size="13px" font-style="normal" font-weight="normal" text-decoration="none" x="1173" y="433.5">+Name: String[0..1]</text></g></g><g transform="translate(-46,-158) scale(1,1)"><g><path fill="none" stroke="none"/><text fill="#000000" stroke="none" font-family="Arial" font-size="13px" font-style="normal" font-weight="normal" text-decoration="none" x="1173" y="448.5">+Description: String[0..1]</text></g></g><g transform="translate(-46,-158) scale(1,1)"><path fill="none" stroke="#000000" d="M 824 400 L 1168 400" stroke-miterlimit="10"/></g><g transform="translate(-46,-158) scale(1,1)"><path fill="none" stroke="#000000" d="M 1157.837325142376 404.209517756016 L 1168 400 L 1157.837325142376 395.790482243984" stroke-miterlimit="10"/></g><g transform="translate(-46,-158) scale(1,1)"><g><path fill="none" stroke="none"/><text fill="#000000" stroke="none" font-family="Arial" font-size="13px" font-style="normal" font-weight="normal" text-decoration="none" x="1002.5" y="396.5">+Compositions</text></g></g><g transform="translate(-46,-158) scale(1,1)"><g><path fill="none" stroke="none"/><text fill="#000000" stroke="none" font-family="Arial" font-size="13px" font-style="normal" font-weight="normal" text-decoration="none" x="1003.5" y="419.5">«FolderType»</text></g></g><g transform="translate(-46,-158) scale(1,1)"><g><path fill="none" stroke="none"/><text fill="#000000" stroke="none" font-family="Arial" font-size="13px" font-style="normal" font-weight="normal" text-decoration="none" x="834.5" y="418.5">0..1</text></g></g><g transform="translate(-46,-158) scale(1,1)"><g><path fill="none" stroke="none"/><text fill="#000000" stroke="none" font-family="Arial" font-size="13px" font-style="normal" font-weight="normal" text-decoration="none" x="1136.5" y="418.5">1..*</text></g></g><g transform="translate(-46,-158) scale(1,1)"><rect fill="#C0C0C0" stroke="none" x="1167" y="545" width="230" height="70" opacity="0.2"/></g><g transform="translate(-46,-158) scale(1,1)"><rect fill="#C0C0C0" stroke="none" x="1324.74462890625" y="527" width="81.25537109375" height="22" opacity="0.2"/></g><g transform="translate(-46,-158) scale(1,1)"><rect fill="#ffffff" stroke="none" x="1160" y="538" width="230" height="70"/></g><g transform="translate(-46,-158) scale(1,1)"><path fill="none" stroke="#000000" d="M 1160 538 L 1390 538 L 1390 608 L 1160 608 L 1160 538 Z Z" stroke-miterlimit="10"/></g><g transform="translate(-46,-158) scale(1,1)"><path fill="none" stroke="#000000" d="M 1160 576 L 1390 576" stroke-miterlimit="10"/></g><g transform="translate(-46,-158) scale(1,1)"><g><path fill="none" stroke="none"/><text fill="#000000" stroke="none" font-family="Arial" font-size="13px" font-style="normal" font-weight="normal" text-decoration="none" x="1226.589599609375" y="555.5">«Dynamic Type»</text></g></g><g transform="translate(-46,-158) scale(1,1)"><g><path fill="none" stroke="none"/><text fill="#000000" stroke="none" font-family="Arial" font-size="13px" font-style="normal" font-weight="bold" text-decoration="none" x="1220.438720703125" y="570.5">{Composition}Type</text></g></g><g transform="translate(-46,-158) scale(1,1)"><rect fill="#ffffff" stroke="none" x="1317.74462890625" y="520" width="81.25537109375" height="22"/></g><g transform="translate(-46,-158) scale(1,1)"><path fill="none" stroke="#000000" d="M 1317.74462890625 520 L 1399 520 L 1399 542 L 1317.74462890625 542 L 1317.74462890625 520 Z Z" stroke-miterlimit="10" stroke-dasharray="3"/></g><g transform="translate(-46,-158) scale(1,1)"><g><path fill="none" stroke="none"/><text fill="#000000" stroke="none" font-family="Arial" font-size="13px" font-style="normal" font-weight="normal" text-decoration="none" x="1322.74462890625" y="537.5">Composition</text></g></g><g transform="translate(-46,-158) scale(1,1)"><path fill="none" stroke="#000000" d="M 1288 520 L 1288 456" stroke-miterlimit="10"/></g><g transform="translate(-46,-158) scale(1,1)"><path fill="#FFFFFF" stroke="none" d="M 1296.419035512032 476.3253497152483 L 1288 456 L 1279.580964487968 476.3253497152483"/></g><g transform="translate(-46,-158) scale(1,1)"><path fill="none" stroke="#000000" d="M 1296.419035512032 476.3253497152483 L 1288 456 L 1279.580964487968 476.3253497152483 L 1296.419035512032 476.3253497152483" stroke-miterlimit="10"/></g><g transform="translate(-46,-158) scale(1,1)"><g><path fill="none" stroke="none"/><text fill="#000000" stroke="none" font-family="Arial" font-size="13px" font-style="normal" font-weight="normal" text-decoration="none" x="1239.5" y="500.5">«bind»</text></g></g><g transform="translate(-46,-158) scale(1,1)"><rect fill="#C0C0C0" stroke="none" x="1247" y="271" width="110.39111328125" height="49" opacity="0.2"/></g><g transform="translate(-46,-158) scale(1,1)"><rect fill="#ffffff" stroke="none" x="1240" y="264" width="110.39111328125" height="49"/></g><g transform="translate(-46,-158) scale(1,1)"><path fill="none" stroke="#000000" d="M 1240 264 L 1350.39111328125 264 L 1350.39111328125 313 L 1240 313 L 1240 264 Z Z" stroke-miterlimit="10"/></g><g transform="translate(-46,-158) scale(1,1)"><path fill="none" stroke="#000000" d="M 1240 304 L 1350.39111328125 304" stroke-miterlimit="10"/></g><g transform="translate(-46,-158) scale(1,1)"><g><path fill="none" stroke="none"/><text fill="#000000" stroke="none" font-family="Arial" font-size="13px" font-style="italic" font-weight="bold" text-decoration="none" x="1247.626220703125" y="283.5">BaseObjectType</text></g></g><g transform="translate(-46,-158) scale(1,1)"><g><path fill="none" stroke="none"/><text fill="#000000" stroke="none" font-family="Arial" font-size="13px" font-style="normal" font-weight="normal" text-decoration="none" x="1252.945556640625" y="298.5">(from OPCUA)</text></g></g><g transform="translate(-46,-158) scale(1,1)"><path fill="none" stroke="#000000" d="M 824 288 L 1240 288" stroke-miterlimit="10"/></g><g transform="translate(-46,-158) scale(1,1)"><path fill="none" stroke="#000000" d="M 1229.837325142376 292.209517756016 L 1240 288 L 1229.837325142376 283.790482243984" stroke-miterlimit="10"/></g><g transform="translate(-46,-158) scale(1,1)"><g><path fill="none" stroke="none"/><text fill="#000000" stroke="none" font-family="Arial" font-size="13px" font-style="normal" font-weight="normal" text-decoration="none" x="1033.5" y="276.5">«NonHierarchialReferenceType»</text></g></g><g transform="translate(-46,-158) scale(1,1)"><g><path fill="none" stroke="none"/><text fill="#000000" stroke="none" font-family="Arial" font-size="13px" font-style="normal" font-weight="normal" text-decoration="none" x="839.5" y="307.5">0..1</text></g></g><g transform="translate(-46,-158) scale(1,1)"><g><path fill="none" stroke="none"/><text fill="#000000" stroke="none" font-family="Arial" font-size="13px" font-style="normal" font-weight="normal" text-decoration="none" x="1208.5" y="306.5">1..*</text></g></g><g transform="translate(-46,-158) scale(1,1)"><path fill="none" stroke="#000000" d="M 632 416 L 632 616" stroke-miterlimit="10"/></g><g transform="translate(-46,-158) scale(1,1)"><path fill="none" stroke="#000000" d="M 627.790482243984 605.8373251423759 L 632 616 L 636.209517756016 605.8373251423759" stroke-miterlimit="10"/></g><g transform="translate(-46,-158) scale(1,1)"><g><path fill="none" stroke="none"/><text fill="#000000" stroke="none" font-family="Arial" font-size="13px" font-style="normal" font-weight="normal" text-decoration="none" x="639.5" y="547.5">+Conditions</text></g></g><g transform="translate(-46,-158) scale(1,1)"><g><path fill="none" stroke="none"/><text fill="#000000" stroke="none" font-family="Arial" font-size="13px" font-style="normal" font-weight="normal" text-decoration="none" x="642.108642578125" y="563.5">«FolderType»</text></g></g><g transform="translate(-46,-158) scale(1,1)"><g><path fill="none" stroke="none"/><text fill="#000000" stroke="none" font-family="Arial" font-size="13px" font-style="normal" font-weight="normal" text-decoration="none" x="608.5" y="443.5">0..1</text></g></g><g transform="translate(-46,-158) scale(1,1)"><g><path fill="none" stroke="none"/><text fill="#000000" stroke="none" font-family="Arial" font-size="13px" font-style="normal" font-weight="normal" text-decoration="none" x="609.5" y="600.5">1..*</text></g></g><g transform="translate(-46,-158) scale(1,1)"><rect fill="#C0C0C0" stroke="none" x="823" y="656" width="246" height="100" opacity="0.2"/></g><g transform="translate(-46,-158) scale(1,1)"><rect fill="#C0C0C0" stroke="none" x="1002.5146484375" y="623" width="75.4853515625" height="37" opacity="0.2"/></g><g transform="translate(-46,-158) scale(1,1)"><rect fill="#ffffff" stroke="none" x="816" y="649" width="246" height="100"/></g><g transform="translate(-46,-158) scale(1,1)"><path fill="none" stroke="#000000" d="M 816 649 L 1062 649 L 1062 749 L 816 749 L 816 649 Z Z" stroke-miterlimit="10"/></g><g transform="translate(-46,-158) scale(1,1)"><g><path fill="none" stroke="none"/><text fill="#000000" stroke="none" font-family="Arial" font-size="13px" font-style="normal" font-weight="normal" text-decoration="none" x="890.589599609375" y="666.5">«Dynamic Type»</text></g></g><g transform="translate(-46,-158) scale(1,1)"><g><path fill="none" stroke="none"/><text fill="#000000" stroke="none" font-family="Arial" font-size="13px" font-style="normal" font-weight="bold" text-decoration="none" x="894.195068359375" y="681.5">{DataItem}Type</text></g></g><g transform="translate(-46,-158) scale(1,1)"><rect fill="#ffffff" stroke="none" x="995.5146484375" y="616" width="75.4853515625" height="37"/></g><g transform="translate(-46,-158) scale(1,1)"><path fill="none" stroke="#000000" d="M 995.5146484375 616 L 1071 616 L 1071 653 L 995.5146484375 653 L 995.5146484375 616 Z Z" stroke-miterlimit="10" stroke-dasharray="3"/></g><g transform="translate(-46,-158) scale(1,1)"><g><path fill="none" stroke="none"/><text fill="#000000" stroke="none" font-family="Arial" font-size="13px" font-style="normal" font-weight="normal" text-decoration="none" x="1000.5146484375" y="633.5">DataItem</text></g></g><g transform="translate(-46,-158) scale(1,1)"><g><path fill="none" stroke="none"/><text fill="#000000" stroke="none" font-family="Arial" font-size="13px" font-style="normal" font-weight="normal" text-decoration="none" x="1000.5146484375" y="648.5">ParentType</text></g></g><g transform="translate(-46,-158) scale(1,1)"><path fill="#ffffff" stroke="none" d="M 856 784 L 1029 784 L 1039 794 L 1039 847 L 856 847 L 856 784"/></g><g transform="translate(-46,-158) scale(1,1)"><path fill="none" stroke="#000000" d="M 856 784 L 1029 784 L 1039 794 L 1039 847 L 856 847 L 856 784 L 856 784" stroke-miterlimit="10"/></g><g transform="translate(-46,-158) scale(1,1)"><path fill="none" stroke="#000000" d="M 1029 784 L 1029 794 L 1039 794 L 1029 784" stroke-miterlimit="10"/></g><g transform="translate(-46,-158) scale(1,1)"><g><path fill="none" stroke="none"/><text fill="#000000" stroke="none" font-family="Arial" font-size="13px" font-style="normal" font-weight="normal" text-decoration="none" x="861" y="802">See Data Items Package.</text></g></g><g transform="translate(-46,-158) scale(1,1)"><path fill="none" stroke="#000000" d="M 976 749 L 976 784" stroke-miterlimit="10" stroke-dasharray="3"/></g><g transform="translate(-46,-158) scale(1,1)"><path fill="none" stroke="#000000" d="M 805 416 L 805 480 M 805 480 A 8 8 0 0 0 813 488 L 936 488 M 936 488 A 8 8 0 0 1 944 496 L 944 616" stroke-miterlimit="10"/></g><g transform="translate(-46,-158) scale(1,1)"><path fill="none" stroke="#000000" d="M 939.790482243984 605.8373251423759 L 944 616 L 948.209517756016 605.8373251423759" stroke-miterlimit="10"/></g><g transform="translate(-46,-158) scale(1,1)"><g><path fill="none" stroke="none"/><text fill="#000000" stroke="none" font-family="Arial" font-size="13px" font-style="normal" font-weight="normal" text-decoration="none" x="834.5" y="507.5">«HasProperty»</text></g></g><g transform="translate(-46,-158) scale(1,1)"><g><path fill="none" stroke="none"/><text fill="#000000" stroke="none" font-family="Arial" font-size="13px" font-style="normal" font-weight="normal" text-decoration="none" x="954.2958984375" y="603.5">Has DataItems</text></g></g><g transform="translate(-46,-158) scale(1,1)"><g><path fill="none" stroke="none"/><text fill="#000000" stroke="none" font-family="Arial" font-size="13px" font-style="normal" font-weight="normal" text-decoration="none" x="921.5" y="600.5">0..*</text></g></g><g transform="translate(-46,-158) scale(1,1)"><rect fill="#C0C0C0" stroke="none" x="535" y="623" width="203.0478515625" height="112" opacity="0.2"/></g><g transform="translate(-46,-158) scale(1,1)"><rect fill="#ffffff" stroke="none" x="528" y="616" width="203.0478515625" height="112"/></g><g transform="translate(-46,-158) scale(1,1)"><path fill="none" stroke="#000000" d="M 528 616 L 731.0478515625 616 L 731.0478515625 728 L 528 728 L 528 616 Z Z" stroke-miterlimit="10"/></g><g transform="translate(-46,-158) scale(1,1)"><path fill="none" stroke="#000000" d="M 528 656 L 731.0478515625 656" stroke-miterlimit="10"/></g><g transform="translate(-46,-158) scale(1,1)"><g><path fill="none" stroke="none"/><text fill="#000000" stroke="none" font-family="Arial" font-size="13px" font-style="normal" font-weight="bold" text-decoration="none" x="539.206298828125" y="635.5">MTNonExclusiveConditionType</text></g></g><g transform="translate(-46,-158) scale(1,1)"><g><path fill="none" stroke="none"/><text fill="#000000" stroke="none" font-family="Arial" font-size="13px" font-style="normal" font-weight="normal" text-decoration="none" x="579.67578125" y="650.5">(from Conditions)</text></g></g><g transform="translate(-46,-158) scale(1,1)"><path fill="#ffffff" stroke="none" d="M 264 672 L 409.708984375 672 L 419.708984375 682 L 419.708984375 721 L 264 721 L 264 672"/></g><g transform="translate(-46,-158) scale(1,1)"><path fill="none" stroke="#000000" d="M 264 672 L 409.708984375 672 L 419.708984375 682 L 419.708984375 721 L 264 721 L 264 672 L 264 672" stroke-miterlimit="10"/></g><g transform="translate(-46,-158) scale(1,1)"><path fill="none" stroke="#000000" d="M 409.708984375 672 L 409.708984375 682 L 419.708984375 682 L 409.708984375 672" stroke-miterlimit="10"/></g><g transform="translate(-46,-158) scale(1,1)"><g><path fill="none" stroke="none"/><text fill="#000000" stroke="none" font-family="Arial" font-size="13px" font-style="normal" font-weight="normal" text-decoration="none" x="269" y="690">See Componetns</text><text fill="#000000" stroke="none" font-family="Arial" font-size="13px" font-style="normal" font-weight="normal" text-decoration="none" x="269" y="703">Package</text></g></g><g transform="translate(-46,-158) scale(1,1)"><path fill="none" stroke="#000000" d="M 364 616 L 364 672" stroke-miterlimit="10" stroke-dasharray="3"/></g><g transform="translate(-46,-158) scale(1,1)"><path fill="#ffffff" stroke="none" d="M 368 168 L 484 168 L 494 178 L 494 214 L 368 214 L 368 168"/></g><g transform="translate(-46,-158) scale(1,1)"><path fill="none" stroke="#000000" d="M 368 168 L 484 168 L 494 178 L 494 214 L 368 214 L 368 168 L 368 168" stroke-miterlimit="10"/></g><g transform="translate(-46,-158) scale(1,1)"><path fill="none" stroke="#000000" d="M 484 168 L 484 178 L 494 178 L 484 168" stroke-miterlimit="10"/></g><g transform="translate(-46,-158) scale(1,1)"><g><path fill="none" stroke="none"/><text fill="#000000" stroke="none" font-family="Arial" font-size="13px" font-style="normal" font-weight="normal" text-decoration="none" x="373" y="186">See Components</text><text fill="#000000" stroke="none" font-family="Arial" font-size="13px" font-style="normal" font-weight="normal" text-decoration="none" x="373" y="199">Package</text></g></g><g transform="translate(-46,-158) scale(1,1)"><path fill="none" stroke="#000000" d="M 467 215 L 467 248" stroke-miterlimit="10" stroke-dasharray="3"/></g><g transform="translate(-46,-158) scale(1,1)"><path fill="#ffffff" stroke="none" d="M 1224 656 L 1312 656 L 1322 666 L 1322 705 L 1224 705 L 1224 656"/></g><g transform="translate(-46,-158) scale(1,1)"><path fill="none" stroke="#000000" d="M 1224 656 L 1312 656 L 1322 666 L 1322 705 L 1224 705 L 1224 656 L 1224 656" stroke-miterlimit="10"/></g><g transform="translate(-46,-158) scale(1,1)"><path fill="none" stroke="#000000" d="M 1312 656 L 1312 666 L 1322 666 L 1312 656" stroke-miterlimit="10"/></g><g transform="translate(-46,-158) scale(1,1)"><g><path fill="none" stroke="none"/><text fill="#000000" stroke="none" font-family="Arial" font-size="13px" font-style="normal" font-weight="normal" text-decoration="none" x="1229" y="674">See</text><text fill="#000000" stroke="none" font-family="Arial" font-size="13px" font-style="normal" font-weight="normal" text-decoration="none" x="1229" y="687">Components</text><text fill="#000000" stroke="none" font-family="Arial" font-size="13px" font-style="normal" font-weight="normal" text-decoration="none" x="1229" y="700">Package</text></g></g><g transform="translate(-46,-158) scale(1,1)"><path fill="none" stroke="#000000" d="M 1273 608 L 1273 656" stroke-miterlimit="10" stroke-dasharray="3"/></g><g transform="translate(-46,-158) scale(1,1)"><path fill="#ffffff" stroke="none" d="M 576 768 L 712 768 L 722 778 L 722 817 L 576 817 L 576 768"/></g><g transform="translate(-46,-158) scale(1,1)"><path fill="none" stroke="#000000" d="M 576 768 L 712 768 L 722 778 L 722 817 L 576 817 L 576 768 L 576 768" stroke-miterlimit="10"/></g><g transform="translate(-46,-158) scale(1,1)"><path fill="none" stroke="#000000" d="M 712 768 L 712 778 L 722 778 L 712 768" stroke-miterlimit="10"/></g><g transform="translate(-46,-158) scale(1,1)"><g><path fill="none" stroke="none"/><text fill="#000000" stroke="none" font-family="Arial" font-size="13px" font-style="normal" font-weight="normal" text-decoration="none" x="581" y="786">See Conditions</text><text fill="#000000" stroke="none" font-family="Arial" font-size="13px" font-style="normal" font-weight="normal" text-decoration="none" x="581" y="799">Package</text></g></g><g transform="translate(-46,-158) scale(1,1)"><path fill="none" stroke="#000000" d="M 681 728 L 681 768" stroke-miterlimit="10" stroke-dasharray="3"/></g></g></svg>