<svg version="1.1" xmlns="http://www.w3.org/2000/svg" xmlns:xlink="http://www.w3.org/1999/xlink" width="619" height="475"><defs/><g><g transform="translate(-366,-246) scale(1,1)"><rect fill="#ffffff" stroke="none" x="376" y="256" width="599" height="455"/></g><g transform="translate(-366,-246) scale(1,1)"><path fill="none" stroke="#000000" d="M 376 256 L 975 256 L 975 711 L 376 711 L 376 256 Z Z" stroke-miterlimit="10"/></g><g transform="translate(-366,-246) scale(1,1)"><path fill="#C0C0C0" stroke="none" d="M 657 334.5 C 657 329.2532944 661.2532944 325 666.5 325 C 671.7467056 325 676 329.2532944 676 334.5 C 676 339.7467056 671.7467056 344 666.5 344 C 661.2532944 344 657 339.7467056 657 334.5 Z" opacity="0.2"/></g><g transform="translate(-366,-246) scale(1,1)"><path fill="#000000" stroke="none" d="M 650 327.5 C 650 322.2532944 654.2532944 318 659.5 318 C 664.7467056 318 669 322.2532944 669 327.5 C 669 332.7467056 664.7467056 337 659.5 337 C 654.2532944 337 650 332.7467056 650 327.5 Z"/></g><g transform="translate(-366,-246) scale(1,1)"><path fill="#C0C0C0" stroke="none" d="M 497 407 L 815.51953125 407 Q 825.51953125 407 825.51953125 417 L 825.51953125 460 Q 825.51953125 470 815.51953125 470 L 497 470 Q 487 470 487 460 L 487 417 Q 487 407 497 407 Z" opacity="0.2"/></g><g transform="translate(-366,-246) scale(1,1)"><path fill="#ffffff" stroke="none" d="M 490 400 L 808.51953125 400 Q 818.51953125 400 818.51953125 410 L 818.51953125 453 Q 818.51953125 463 808.51953125 463 L 490 463 Q 480 463 480 453 L 480 410 Q 480 400 490 400 Z"/></g><g transform="translate(-366,-246) scale(1,1)"><path fill="none" stroke="#000000" d="M 490 400 L 808.51953125 400 Q 818.51953125 400 818.51953125 410 L 818.51953125 453 Q 818.51953125 463 808.51953125 463 L 490 463 Q 480 463 480 453 L 480 410 Q 480 400 490 400 Z" stroke-miterlimit="10"/></g><g transform="translate(-366,-246) scale(1,1)"><g><path fill="none" stroke="none"/><text fill="#000000" stroke="none" font-family="Arial" font-size="13px" font-style="normal" font-weight="bold" text-decoration="none" x="628.3125" y="419.5">Normal</text></g></g><g transform="translate(-366,-246) scale(1,1)"><g><path fill="none" stroke="none"/><text fill="#000000" stroke="none" font-family="Arial" font-size="13px" font-style="normal" font-weight="normal" text-decoration="none" x="484" y="434.5">{Active=false, Acked=true, Confirmed=true, Retain=false}</text></g></g><g transform="translate(-366,-246) scale(1,1)"><path fill="none" stroke="#000000" d="M 659 337 L 659 400" stroke-miterlimit="10"/></g><g transform="translate(-366,-246) scale(1,1)"><path fill="none" stroke="#000000" d="M 654.790482243984 389.83732514237585 L 659 400 L 663.209517756016 389.83732514237585" stroke-miterlimit="10"/></g><g transform="translate(-366,-246) scale(1,1)"><path fill="#C0C0C0" stroke="none" d="M 497 583 L 810.46044921875 583 Q 820.46044921875 583 820.46044921875 593 L 820.46044921875 652 Q 820.46044921875 662 810.46044921875 662 L 497 662 Q 487 662 487 652 L 487 593 Q 487 583 497 583 Z" opacity="0.2"/></g><g transform="translate(-366,-246) scale(1,1)"><path fill="#ffffff" stroke="none" d="M 490 576 L 803.46044921875 576 Q 813.46044921875 576 813.46044921875 586 L 813.46044921875 645 Q 813.46044921875 655 803.46044921875 655 L 490 655 Q 480 655 480 645 L 480 586 Q 480 576 490 576 Z"/></g><g transform="translate(-366,-246) scale(1,1)"><path fill="none" stroke="#000000" d="M 490 576 L 803.46044921875 576 Q 813.46044921875 576 813.46044921875 586 L 813.46044921875 645 Q 813.46044921875 655 803.46044921875 655 L 490 655 Q 480 655 480 645 L 480 586 Q 480 576 490 576 Z" stroke-miterlimit="10"/></g><g transform="translate(-366,-246) scale(1,1)"><g><path fill="none" stroke="none"/><text fill="#000000" stroke="none" font-family="Arial" font-size="13px" font-style="normal" font-weight="bold" text-decoration="none" x="632.27978515625" y="595.5">Fault</text></g></g><g transform="translate(-366,-246) scale(1,1)"><g><path fill="none" stroke="none"/><text fill="#000000" stroke="none" font-family="Arial" font-size="13px" font-style="normal" font-weight="normal" text-decoration="none" x="484" y="610.5">{Active=true, Acked=false, Confirmed=true, Retain=true}</text></g></g><g transform="translate(-366,-246) scale(1,1)"><path fill="none" stroke="#000000" d="M 560 463 L 560 576" stroke-miterlimit="10"/></g><g transform="translate(-366,-246) scale(1,1)"><path fill="none" stroke="#000000" d="M 555.790482243984 565.8373251423759 L 560 576 L 564.209517756016 565.8373251423759" stroke-miterlimit="10"/></g><g transform="translate(-366,-246) scale(1,1)"><g><path fill="none" stroke="none"/><text fill="#000000" stroke="none" font-family="Arial" font-size="13px" font-style="normal" font-weight="normal" text-decoration="none" x="568.860107421875" y="516.5">Fault</text></g></g><g transform="translate(-366,-246) scale(1,1)"><path fill="none" stroke="#000000" d="M 744 576 L 744 463" stroke-miterlimit="10"/></g><g transform="translate(-366,-246) scale(1,1)"><path fill="none" stroke="#000000" d="M 748.209517756016 473.16267485762415 L 744 463 L 739.790482243984 473.16267485762415" stroke-miterlimit="10"/></g><g transform="translate(-366,-246) scale(1,1)"><g><path fill="none" stroke="none"/><text fill="#000000" stroke="none" font-family="Arial" font-size="13px" font-style="normal" font-weight="normal" text-decoration="none" x="751.5" y="531.5">Normal</text></g></g><g transform="translate(-366,-246) scale(1,1)"><g><path fill="none" stroke="none"/><text fill="#000000" stroke="none" font-family="Arial" font-size="13px" font-style="normal" font-weight="normal" text-decoration="none" x="397" y="290">Simple Condition Activation</text></g></g></g></svg>