<svg version="1.1" xmlns="http://www.w3.org/2000/svg" xmlns:xlink="http://www.w3.org/1999/xlink" width="1491" height="888"><defs/><g><g transform="translate(-198,-238) scale(1,1)"><rect fill="#C0C0C0" stroke="none" x="708" y="552" width="106.27783203125" height="49" opacity="0.2"/></g><g transform="translate(-198,-238) scale(1,1)"><rect fill="#ffffff" stroke="none" x="701" y="545" width="106.27783203125" height="49"/></g><g transform="translate(-198,-238) scale(1,1)"><path fill="none" stroke="#000000" d="M 701 545 L 807.27783203125 545 L 807.27783203125 594 L 701 594 L 701 545 Z Z" stroke-miterlimit="10"/></g><g transform="translate(-198,-238) scale(1,1)"><path fill="none" stroke="#000000" d="M 701 585 L 807.27783203125 585" stroke-miterlimit="10"/></g><g transform="translate(-198,-238) scale(1,1)"><g><path fill="none" stroke="none"/><text fill="#000000" stroke="none" font-family="Arial" font-size="13px" font-style="normal" font-weight="bold" text-decoration="none" x="709.349853515625" y="564.5">LimitAlarmType</text></g></g><g transform="translate(-198,-238) scale(1,1)"><g><path fill="none" stroke="none"/><text fill="#000000" stroke="none" font-family="Arial" font-size="13px" font-style="normal" font-weight="normal" text-decoration="none" x="711.888916015625" y="579.5">(from OPCUA)</text></g></g><g transform="translate(-198,-238) scale(1,1)"><rect fill="#C0C0C0" stroke="none" x="799" y="711" width="184.30322265625" height="49" opacity="0.2"/></g><g transform="translate(-198,-238) scale(1,1)"><rect fill="#ffffff" stroke="none" x="792" y="704" width="184.30322265625" height="49"/></g><g transform="translate(-198,-238) scale(1,1)"><path fill="none" stroke="#000000" d="M 792 704 L 976.30322265625 704 L 976.30322265625 753 L 792 753 L 792 704 Z Z" stroke-miterlimit="10"/></g><g transform="translate(-198,-238) scale(1,1)"><path fill="none" stroke="#000000" d="M 792 744 L 976.30322265625 744" stroke-miterlimit="10"/></g><g transform="translate(-198,-238) scale(1,1)"><g><path fill="none" stroke="none"/><text fill="#000000" stroke="none" font-family="Arial" font-size="13px" font-style="normal" font-weight="bold" text-decoration="none" x="803.23486328125" y="723.5">NonEclusiveLimitAlarmType</text></g></g><g transform="translate(-198,-238) scale(1,1)"><g><path fill="none" stroke="none"/><text fill="#000000" stroke="none" font-family="Arial" font-size="13px" font-style="normal" font-weight="normal" text-decoration="none" x="841.901611328125" y="738.5">(from OPCUA)</text></g></g><g transform="translate(-198,-238) scale(1,1)"><path fill="none" stroke="#000000" d="M 884 704 L 884 667 M 884 667 A 8 8 0 0 0 876 659 L 762 659 M 762 659 A 8 8 0 0 1 754 651 L 754 594" stroke-miterlimit="10"/></g><g transform="translate(-198,-238) scale(1,1)"><path fill="#FFFFFF" stroke="none" d="M 762.419035512032 614.3253497152483 L 754 594 L 745.580964487968 614.3253497152483"/></g><g transform="translate(-198,-238) scale(1,1)"><path fill="none" stroke="#000000" d="M 762.419035512032 614.3253497152483 L 754 594 L 745.580964487968 614.3253497152483 L 762.419035512032 614.3253497152483" stroke-miterlimit="10"/></g><g transform="translate(-198,-238) scale(1,1)"><rect fill="#C0C0C0" stroke="none" x="591" y="711" width="166.26318359375" height="49" opacity="0.2"/></g><g transform="translate(-198,-238) scale(1,1)"><rect fill="#ffffff" stroke="none" x="584" y="704" width="166.26318359375" height="49"/></g><g transform="translate(-198,-238) scale(1,1)"><path fill="none" stroke="#000000" d="M 584 704 L 750.26318359375 704 L 750.26318359375 753 L 584 753 L 584 704 Z Z" stroke-miterlimit="10"/></g><g transform="translate(-198,-238) scale(1,1)"><path fill="none" stroke="#000000" d="M 584 744 L 750.26318359375 744" stroke-miterlimit="10"/></g><g transform="translate(-198,-238) scale(1,1)"><g><path fill="none" stroke="none"/><text fill="#000000" stroke="none" font-family="Arial" font-size="13px" font-style="normal" font-weight="bold" text-decoration="none" x="594.888916015625" y="723.5">ExclusiveLimitAlarmType</text></g></g><g transform="translate(-198,-238) scale(1,1)"><g><path fill="none" stroke="none"/><text fill="#000000" stroke="none" font-family="Arial" font-size="13px" font-style="normal" font-weight="normal" text-decoration="none" x="624.881591796875" y="738.5">(from OPCUA)</text></g></g><g transform="translate(-198,-238) scale(1,1)"><path fill="none" stroke="#000000" d="M 667 704 L 667 667 M 667 667 A 8 8 0 0 1 675 659 L 746 659 M 746 659 A 8 8 0 0 0 754 651 L 754 594" stroke-miterlimit="10"/></g><g transform="translate(-198,-238) scale(1,1)"><path fill="#FFFFFF" stroke="none" d="M 762.419035512032 614.3253497152483 L 754 594 L 745.580964487968 614.3253497152483"/></g><g transform="translate(-198,-238) scale(1,1)"><path fill="none" stroke="#000000" d="M 762.419035512032 614.3253497152483 L 754 594 L 745.580964487968 614.3253497152483 L 762.419035512032 614.3253497152483" stroke-miterlimit="10"/></g><g transform="translate(-198,-238) scale(1,1)"><rect fill="#C0C0C0" stroke="none" x="775" y="839" width="239" height="104" opacity="0.2"/></g><g transform="translate(-198,-238) scale(1,1)"><rect fill="#ffffff" stroke="none" x="768" y="832" width="239" height="104"/></g><g transform="translate(-198,-238) scale(1,1)"><path fill="none" stroke="#000000" d="M 768 832 L 1007 832 L 1007 936 L 768 936 L 768 832 Z Z" stroke-miterlimit="10"/></g><g transform="translate(-198,-238) scale(1,1)"><path fill="none" stroke="#000000" d="M 768 857 L 1007 857" stroke-miterlimit="10"/></g><g transform="translate(-198,-238) scale(1,1)"><g><path fill="none" stroke="none"/><text fill="#000000" stroke="none" font-family="Arial" font-size="13px" font-style="normal" font-weight="bold" text-decoration="none" x="797.182373046875" y="851.5">MTNonExclusiveConditionType</text></g></g><g transform="translate(-198,-238) scale(1,1)"><path fill="none" stroke="#000000" d="M 883 832 L 883 753" stroke-miterlimit="10"/></g><g transform="translate(-198,-238) scale(1,1)"><path fill="#FFFFFF" stroke="none" d="M 891.419035512032 773.3253497152483 L 883 753 L 874.580964487968 773.3253497152483"/></g><g transform="translate(-198,-238) scale(1,1)"><path fill="none" stroke="#000000" d="M 891.419035512032 773.3253497152483 L 883 753 L 874.580964487968 773.3253497152483 L 891.419035512032 773.3253497152483" stroke-miterlimit="10"/></g><g transform="translate(-198,-238) scale(1,1)"><rect fill="#C0C0C0" stroke="none" x="983" y="407" width="257.244140625" height="135" opacity="0.2"/></g><g transform="translate(-198,-238) scale(1,1)"><rect fill="#ffffff" stroke="none" x="976" y="400" width="257.244140625" height="135"/></g><g transform="translate(-198,-238) scale(1,1)"><path fill="none" stroke="#000000" d="M 976 400 L 1233.244140625 400 L 1233.244140625 535 L 976 535 L 976 400 Z Z" stroke-miterlimit="10"/></g><g transform="translate(-198,-238) scale(1,1)"><path fill="none" stroke="#000000" d="M 976 453 L 1233.244140625 453" stroke-miterlimit="10"/></g><g transform="translate(-198,-238) scale(1,1)"><g><path fill="none" stroke="none"/><text fill="#000000" stroke="none" font-family="Arial" font-size="13px" font-style="normal" font-weight="normal" text-decoration="none" x="1082.224365234375" y="417.5">«mixin»</text></g></g><g transform="translate(-198,-238) scale(1,1)"><g><path fill="none" stroke="none"/><text fill="#000000" stroke="none" font-family="Arial" font-size="13px" font-style="normal" font-weight="bold" text-decoration="none" x="1054.77392578125" y="432.5">MTDataItemType</text></g></g><g transform="translate(-198,-238) scale(1,1)"><g><path fill="none" stroke="none"/><text fill="#000000" stroke="none" font-family="Arial" font-size="13px" font-style="normal" font-weight="normal" text-decoration="none" x="1054.059814453125" y="447.5">(from Data Items)</text></g></g><g transform="translate(-198,-238) scale(1,1)"><g><path fill="none" stroke="none"/><text fill="#000000" stroke="none" font-family="Arial" font-size="13px" font-style="normal" font-weight="normal" text-decoration="none" x="981" y="470.5">+SourceName: String[0..1]</text></g></g><g transform="translate(-198,-238) scale(1,1)"><g><path fill="none" stroke="none"/><text fill="#000000" stroke="none" font-family="Arial" font-size="13px" font-style="normal" font-weight="normal" text-decoration="none" x="981" y="485.5">+StreamRate: Double[0..1]</text></g></g><g transform="translate(-198,-238) scale(1,1)"><g><path fill="none" stroke="none"/><text fill="#000000" stroke="none" font-family="Arial" font-size="13px" font-style="normal" font-weight="normal" text-decoration="none" x="981" y="500.5">+SampleRate: Double[0..1]</text></g></g><g transform="translate(-198,-238) scale(1,1)"><g><path fill="none" stroke="none"/><text fill="#000000" stroke="none" font-family="Arial" font-size="13px" font-style="normal" font-weight="normal" text-decoration="none" x="981" y="515.5">+Representation: RepresentationType[0..1]</text></g></g><g transform="translate(-198,-238) scale(1,1)"><g><path fill="none" stroke="none"/><text fill="#000000" stroke="none" font-family="Arial" font-size="13px" font-style="normal" font-weight="normal" text-decoration="none" x="981" y="530.5">+Category: MTCategoryType[0..1]</text></g></g><g transform="translate(-198,-238) scale(1,1)"><path fill="none" stroke="#000000" d="M 1007 879 L 1160 879 M 1160 879 A 8 8 0 0 0 1168 871 L 1168 535" stroke-miterlimit="10" stroke-dasharray="3"/></g><g transform="translate(-198,-238) scale(1,1)"><path fill="none" stroke="#000000" d="M 1172.2095177560159 545.1626748576241 L 1168 535 L 1163.7904822439841 545.1626748576241" stroke-miterlimit="10"/></g><g transform="translate(-198,-238) scale(1,1)"><g><path fill="none" stroke="none"/><text fill="#000000" stroke="none" font-family="Arial" font-size="13px" font-style="normal" font-weight="normal" text-decoration="none" x="1087.5" y="900.5">«MIxes In»</text></g></g><g transform="translate(-198,-238) scale(1,1)"><rect fill="#C0C0C0" stroke="none" x="1487" y="807" width="180.44384765625" height="49" opacity="0.2"/></g><g transform="translate(-198,-238) scale(1,1)"><rect fill="#ffffff" stroke="none" x="1480" y="800" width="180.44384765625" height="49"/></g><g transform="translate(-198,-238) scale(1,1)"><path fill="none" stroke="#000000" d="M 1480 800 L 1660.44384765625 800 L 1660.44384765625 849 L 1480 849 L 1480 800 Z Z" stroke-miterlimit="10"/></g><g transform="translate(-198,-238) scale(1,1)"><path fill="none" stroke="#000000" d="M 1480 840 L 1660.44384765625 840" stroke-miterlimit="10"/></g><g transform="translate(-198,-238) scale(1,1)"><g><path fill="none" stroke="none"/><text fill="#000000" stroke="none" font-family="Arial" font-size="13px" font-style="italic" font-weight="bold" text-decoration="none" x="1490.86669921875" y="819.5">SystemConditionClassType</text></g></g><g transform="translate(-198,-238) scale(1,1)"><g><path fill="none" stroke="none"/><text fill="#000000" stroke="none" font-family="Arial" font-size="13px" font-style="normal" font-weight="normal" text-decoration="none" x="1527.971923828125" y="834.5">(from OPCUA)</text></g></g><g transform="translate(-198,-238) scale(1,1)"><rect fill="#C0C0C0" stroke="none" x="1503" y="921" width="173" height="61" opacity="0.2"/></g><g transform="translate(-198,-238) scale(1,1)"><rect fill="#C0C0C0" stroke="none" x="1588.5673828125" y="903" width="96.4326171875" height="22" opacity="0.2"/></g><g transform="translate(-198,-238) scale(1,1)"><rect fill="#ffffff" stroke="none" x="1496" y="914" width="173" height="61"/></g><g transform="translate(-198,-238) scale(1,1)"><path fill="none" stroke="#000000" d="M 1496 914 L 1669 914 L 1669 975 L 1496 975 L 1496 914 Z Z" stroke-miterlimit="10"/></g><g transform="translate(-198,-238) scale(1,1)"><path fill="none" stroke="#000000" d="M 1496 952 L 1669 952" stroke-miterlimit="10"/></g><g transform="translate(-198,-238) scale(1,1)"><g><path fill="none" stroke="none"/><text fill="#000000" stroke="none" font-family="Arial" font-size="13px" font-style="normal" font-weight="normal" text-decoration="none" x="1534.089599609375" y="931.5">«Dynamic Type»</text></g></g><g transform="translate(-198,-238) scale(1,1)"><g><path fill="none" stroke="none"/><text fill="#000000" stroke="none" font-family="Arial" font-size="13px" font-style="normal" font-weight="bold" text-decoration="none" x="1520.35009765625" y="946.5">{ConditionClass}Type</text></g></g><g transform="translate(-198,-238) scale(1,1)"><rect fill="#ffffff" stroke="none" x="1581.5673828125" y="896" width="96.4326171875" height="22"/></g><g transform="translate(-198,-238) scale(1,1)"><path fill="none" stroke="#000000" d="M 1581.5673828125 896 L 1678 896 L 1678 918 L 1581.5673828125 918 L 1581.5673828125 896 Z Z" stroke-miterlimit="10" stroke-dasharray="3"/></g><g transform="translate(-198,-238) scale(1,1)"><g><path fill="none" stroke="none"/><text fill="#000000" stroke="none" font-family="Arial" font-size="13px" font-style="normal" font-weight="normal" text-decoration="none" x="1586.5673828125" y="913.5">ConditionClass</text></g></g><g transform="translate(-198,-238) scale(1,1)"><rect fill="#C0C0C0" stroke="none" x="1479" y="1039" width="207" height="79" opacity="0.2"/></g><g transform="translate(-198,-238) scale(1,1)"><rect fill="#ffffff" stroke="none" x="1472" y="1032" width="207" height="79"/></g><g transform="translate(-198,-238) scale(1,1)"><path fill="none" stroke="#000000" d="M 1472 1032 L 1679 1032 L 1679 1111 L 1472 1111 L 1472 1032 Z Z" stroke-miterlimit="10"/></g><g transform="translate(-198,-238) scale(1,1)"><path fill="none" stroke="#000000" d="M 1472 1085 L 1679 1085" stroke-miterlimit="10"/></g><g transform="translate(-198,-238) scale(1,1)"><g><path fill="none" stroke="none"/><text fill="#000000" stroke="none" font-family="Arial" font-size="13px" font-style="normal" font-weight="normal" text-decoration="none" x="1530.701416015625" y="1049.5">«Type Factory»</text></g></g><g transform="translate(-198,-238) scale(1,1)"><g><path fill="none" stroke="none"/><text fill="#000000" stroke="none" font-family="Arial" font-size="13px" font-style="normal" font-weight="bold" text-decoration="none" x="1510.11279296875" y="1064.5">ConditionClassFactory</text></g></g><g transform="translate(-198,-238) scale(1,1)"><g><path fill="none" stroke="none"/><text fill="#000000" stroke="none" font-family="Arial" font-size="13px" font-style="normal" font-weight="normal" text-decoration="none" x="1529.635009765625" y="1079.5">(from Factories)</text></g></g><g transform="translate(-198,-238) scale(1,1)"><g><path fill="none" stroke="none"/><text fill="#000000" stroke="none" font-family="Arial" font-size="13px" font-style="normal" font-weight="normal" text-decoration="none" x="1477" y="1102.5">+deriveTypeName(element)</text></g></g><g transform="translate(-198,-238) scale(1,1)"><path fill="none" stroke="#000000" d="M 1583 1032 L 1583 975" stroke-miterlimit="10" stroke-dasharray="3"/></g><g transform="translate(-198,-238) scale(1,1)"><path fill="none" stroke="#000000" d="M 1587.2095177560159 985.1626748576241 L 1583 975 L 1578.7904822439841 985.1626748576241" stroke-miterlimit="10"/></g><g transform="translate(-198,-238) scale(1,1)"><g><path fill="none" stroke="none"/><text fill="#000000" stroke="none" font-family="Arial" font-size="13px" font-style="normal" font-weight="normal" text-decoration="none" x="1598.5" y="1007.5">«Create»</text></g></g><g transform="translate(-198,-238) scale(1,1)"><path fill="none" stroke="#000000" d="M 1574 896 L 1574 849" stroke-miterlimit="10"/></g><g transform="translate(-198,-238) scale(1,1)"><path fill="#FFFFFF" stroke="none" d="M 1582.419035512032 869.3253497152483 L 1574 849 L 1565.580964487968 869.3253497152483"/></g><g transform="translate(-198,-238) scale(1,1)"><path fill="none" stroke="#000000" d="M 1582.419035512032 869.3253497152483 L 1574 849 L 1565.580964487968 869.3253497152483 L 1582.419035512032 869.3253497152483" stroke-miterlimit="10"/></g><g transform="translate(-198,-238) scale(1,1)"><rect fill="#C0C0C0" stroke="none" x="511" y="839" width="231" height="104" opacity="0.2"/></g><g transform="translate(-198,-238) scale(1,1)"><rect fill="#ffffff" stroke="none" x="504" y="832" width="231" height="104"/></g><g transform="translate(-198,-238) scale(1,1)"><path fill="none" stroke="#000000" d="M 504 832 L 735 832 L 735 936 L 504 936 L 504 832 Z Z" stroke-miterlimit="10"/></g><g transform="translate(-198,-238) scale(1,1)"><path fill="none" stroke="#000000" d="M 504 857 L 735 857" stroke-miterlimit="10"/></g><g transform="translate(-198,-238) scale(1,1)"><g><path fill="none" stroke="none"/><text fill="#000000" stroke="none" font-family="Arial" font-size="13px" font-style="normal" font-weight="bold" text-decoration="none" x="527.3828125" y="851.5">MTExclusiveLimitConditionType</text></g></g><g transform="translate(-198,-238) scale(1,1)"><path fill="none" stroke="#000000" d="M 658 832 L 658 753" stroke-miterlimit="10"/></g><g transform="translate(-198,-238) scale(1,1)"><path fill="#FFFFFF" stroke="none" d="M 666.419035512032 773.3253497152483 L 658 753 L 649.580964487968 773.3253497152483"/></g><g transform="translate(-198,-238) scale(1,1)"><path fill="none" stroke="#000000" d="M 666.419035512032 773.3253497152483 L 658 753 L 649.580964487968 773.3253497152483 L 666.419035512032 773.3253497152483" stroke-miterlimit="10"/></g><g transform="translate(-198,-238) scale(1,1)"><rect fill="#C0C0C0" stroke="none" x="639" y="1023" width="263" height="100" opacity="0.2"/></g><g transform="translate(-198,-238) scale(1,1)"><rect fill="#ffffff" stroke="none" x="632" y="1016" width="263" height="100"/></g><g transform="translate(-198,-238) scale(1,1)"><path fill="none" stroke="#000000" d="M 632 1016 L 895 1016 L 895 1116 L 632 1116 L 632 1016 Z Z" stroke-miterlimit="10"/></g><g transform="translate(-198,-238) scale(1,1)"><path fill="none" stroke="#000000" d="M 632 1069 L 895 1069" stroke-miterlimit="10"/></g><g transform="translate(-198,-238) scale(1,1)"><g><path fill="none" stroke="none"/><text fill="#000000" stroke="none" font-family="Arial" font-size="13px" font-style="normal" font-weight="normal" text-decoration="none" x="714.00732421875" y="1033.5">«Object Factory»</text></g></g><g transform="translate(-198,-238) scale(1,1)"><g><path fill="none" stroke="none"/><text fill="#000000" stroke="none" font-family="Arial" font-size="13px" font-style="normal" font-weight="bold" text-decoration="none" x="695.580078125" y="1048.5">ConditionObjectFactory</text></g></g><g transform="translate(-198,-238) scale(1,1)"><g><path fill="none" stroke="none"/><text fill="#000000" stroke="none" font-family="Arial" font-size="13px" font-style="normal" font-weight="normal" text-decoration="none" x="717.635009765625" y="1063.5">(from Factories)</text></g></g><g transform="translate(-198,-238) scale(1,1)"><g><path fill="none" stroke="none"/><text fill="#000000" stroke="none" font-family="Arial" font-size="13px" font-style="normal" font-weight="normal" text-decoration="none" x="637" y="1086.5">+deriveBrowseName(element)</text></g></g><g transform="translate(-198,-238) scale(1,1)"><g><path fill="none" stroke="none"/><text fill="#000000" stroke="none" font-family="Arial" font-size="13px" font-style="normal" font-weight="normal" text-decoration="none" x="637" y="1101.5">+deriveNodeId(element)</text></g></g><g transform="translate(-198,-238) scale(1,1)"><path fill="none" stroke="#000000" d="M 661 1016 L 661 936" stroke-miterlimit="10" stroke-dasharray="3"/></g><g transform="translate(-198,-238) scale(1,1)"><path fill="none" stroke="#000000" d="M 665.209517756016 946.1626748576241 L 661 936 L 656.790482243984 946.1626748576241" stroke-miterlimit="10"/></g><g transform="translate(-198,-238) scale(1,1)"><g><path fill="none" stroke="none"/><text fill="#000000" stroke="none" font-family="Arial" font-size="13px" font-style="normal" font-weight="normal" text-decoration="none" x="573.5" y="981.5">«Instantiates»</text></g></g><g transform="translate(-198,-238) scale(1,1)"><path fill="none" stroke="#000000" d="M 851 1016 L 851 936" stroke-miterlimit="10" stroke-dasharray="3"/></g><g transform="translate(-198,-238) scale(1,1)"><path fill="none" stroke="#000000" d="M 855.209517756016 946.1626748576241 L 851 936 L 846.790482243984 946.1626748576241" stroke-miterlimit="10"/></g><g transform="translate(-198,-238) scale(1,1)"><g><path fill="none" stroke="none"/><text fill="#000000" stroke="none" font-family="Arial" font-size="13px" font-style="normal" font-weight="normal" text-decoration="none" x="861.5" y="980.5">«Instantiates»</text></g></g><g transform="translate(-198,-238) scale(1,1)"><path fill="none" stroke="#000000" d="M 552 832 L 552 472 M 552 472 A 8 8 0 0 1 560 464 L 976 464" stroke-miterlimit="10" stroke-dasharray="3"/></g><g transform="translate(-198,-238) scale(1,1)"><path fill="none" stroke="#000000" d="M 965.8373251423759 468.209517756016 L 976 464 L 965.8373251423758 459.790482243984" stroke-miterlimit="10"/></g><g transform="translate(-198,-238) scale(1,1)"><g><path fill="none" stroke="none"/><text fill="#000000" stroke="none" font-family="Arial" font-size="13px" font-style="normal" font-weight="normal" text-decoration="none" x="479.5" y="812.5">«MIxes In»</text></g></g><g transform="translate(-198,-238) scale(1,1)"><rect fill="#C0C0C0" stroke="none" x="295" y="255" width="196.51611328125" height="152" opacity="0.2"/></g><g transform="translate(-198,-238) scale(1,1)"><rect fill="#ffffff" stroke="none" x="288" y="248" width="196.51611328125" height="152"/></g><g transform="translate(-198,-238) scale(1,1)"><path fill="none" stroke="#000000" d="M 288 248 L 484.51611328125 248 L 484.51611328125 400 L 288 400 L 288 248 Z Z" stroke-miterlimit="10"/></g><g transform="translate(-198,-238) scale(1,1)"><path fill="none" stroke="#000000" d="M 288 288 L 484.51611328125 288" stroke-miterlimit="10"/></g><g transform="translate(-198,-238) scale(1,1)"><g><path fill="none" stroke="none"/><text fill="#000000" stroke="none" font-family="Arial" font-size="13px" font-style="italic" font-weight="bold" text-decoration="none" x="370.718994140625" y="267.5">Node</text></g></g><g transform="translate(-198,-238) scale(1,1)"><g><path fill="none" stroke="none"/><text fill="#000000" stroke="none" font-family="Arial" font-size="13px" font-style="normal" font-weight="normal" text-decoration="none" x="344.008056640625" y="282.5">(from OPCUA)</text></g></g><g transform="translate(-198,-238) scale(1,1)"><g><path fill="none" stroke="none"/><text fill="#000000" stroke="none" font-family="Arial" font-size="13px" font-style="normal" font-weight="normal" text-decoration="none" x="293" y="305.5">+NodeId: NodeId {id, unique}</text></g></g><g transform="translate(-198,-238) scale(1,1)"><g><path fill="none" stroke="none"/><text fill="#000000" stroke="none" font-family="Arial" font-size="13px" font-style="normal" font-weight="normal" text-decoration="none" x="293" y="320.5">+NodeClass: NodeClass</text></g></g><g transform="translate(-198,-238) scale(1,1)"><g><path fill="none" stroke="none"/><text fill="#000000" stroke="none" font-family="Arial" font-size="13px" font-style="normal" font-weight="normal" text-decoration="none" x="293" y="335.5">+BrowseName: QualifiedName</text></g></g><g transform="translate(-198,-238) scale(1,1)"><g><path fill="none" stroke="none"/><text fill="#000000" stroke="none" font-family="Arial" font-size="13px" font-style="normal" font-weight="normal" text-decoration="none" x="293" y="350.5">+DisplayName: LocalizedText</text></g></g><g transform="translate(-198,-238) scale(1,1)"><g><path fill="none" stroke="none"/><text fill="#000000" stroke="none" font-family="Arial" font-size="13px" font-style="normal" font-weight="normal" text-decoration="none" x="293" y="365.5">+Description: LocalizedText[0..1]</text></g></g><g transform="translate(-198,-238) scale(1,1)"><g><path fill="none" stroke="none"/><text fill="#000000" stroke="none" font-family="Arial" font-size="13px" font-style="normal" font-weight="normal" text-decoration="none" x="293" y="380.5">+WriteMask: UInt32[0..1]</text></g></g><g transform="translate(-198,-238) scale(1,1)"><g><path fill="none" stroke="none"/><text fill="#000000" stroke="none" font-family="Arial" font-size="13px" font-style="normal" font-weight="normal" text-decoration="none" x="293" y="395.5">+UserWriteMask: UInt32[0..1]</text></g></g><g transform="translate(-198,-238) scale(1,1)"><rect fill="#C0C0C0" stroke="none" x="303" y="735" width="99.5048828125" height="49" opacity="0.2"/></g><g transform="translate(-198,-238) scale(1,1)"><rect fill="#ffffff" stroke="none" x="296" y="728" width="99.5048828125" height="49"/></g><g transform="translate(-198,-238) scale(1,1)"><path fill="none" stroke="#000000" d="M 296 728 L 395.5048828125 728 L 395.5048828125 777 L 296 777 L 296 728 Z Z" stroke-miterlimit="10"/></g><g transform="translate(-198,-238) scale(1,1)"><path fill="none" stroke="#000000" d="M 296 768 L 395.5048828125 768" stroke-miterlimit="10"/></g><g transform="translate(-198,-238) scale(1,1)"><g><path fill="none" stroke="none"/><text fill="#000000" stroke="none" font-family="Arial" font-size="13px" font-style="italic" font-weight="bold" text-decoration="none" x="304.3212890625" y="747.5">ConditionType</text></g></g><g transform="translate(-198,-238) scale(1,1)"><g><path fill="none" stroke="none"/><text fill="#000000" stroke="none" font-family="Arial" font-size="13px" font-style="normal" font-weight="normal" text-decoration="none" x="303.50244140625" y="762.5">(from OPCUA)</text></g></g><g transform="translate(-198,-238) scale(1,1)"><rect fill="#C0C0C0" stroke="none" x="215" y="463" width="289.4775390625" height="182" opacity="0.2"/></g><g transform="translate(-198,-238) scale(1,1)"><rect fill="#ffffff" stroke="none" x="208" y="456" width="289.4775390625" height="182"/></g><g transform="translate(-198,-238) scale(1,1)"><path fill="none" stroke="#000000" d="M 208 456 L 497.4775390625 456 L 497.4775390625 638 L 208 638 L 208 456 Z Z" stroke-miterlimit="10"/></g><g transform="translate(-198,-238) scale(1,1)"><path fill="none" stroke="#000000" d="M 208 496 L 497.4775390625 496" stroke-miterlimit="10"/></g><g transform="translate(-198,-238) scale(1,1)"><g><path fill="none" stroke="none"/><text fill="#000000" stroke="none" font-family="Arial" font-size="13px" font-style="italic" font-weight="bold" text-decoration="none" x="307.333984375" y="475.5">BaseEventType</text></g></g><g transform="translate(-198,-238) scale(1,1)"><g><path fill="none" stroke="none"/><text fill="#000000" stroke="none" font-family="Arial" font-size="13px" font-style="normal" font-weight="normal" text-decoration="none" x="310.48876953125" y="490.5">(from OPCUA)</text></g></g><g transform="translate(-198,-238) scale(1,1)"><g><path fill="none" stroke="none"/><text fill="#000000" stroke="none" font-family="Arial" font-size="13px" font-style="normal" font-weight="normal" text-decoration="none" x="213" y="513.5">«Property»+EventId: ByteString</text></g></g><g transform="translate(-198,-238) scale(1,1)"><g><path fill="none" stroke="none"/><text fill="#000000" stroke="none" font-family="Arial" font-size="13px" font-style="normal" font-weight="normal" text-decoration="none" x="213" y="528.5">«Property»+EventType: NodeId</text></g></g><g transform="translate(-198,-238) scale(1,1)"><g><path fill="none" stroke="none"/><text fill="#000000" stroke="none" font-family="Arial" font-size="13px" font-style="normal" font-weight="normal" text-decoration="none" x="213" y="543.5">«Properety»+SourceNode: NodeId</text></g></g><g transform="translate(-198,-238) scale(1,1)"><g><path fill="none" stroke="none"/><text fill="#000000" stroke="none" font-family="Arial" font-size="13px" font-style="normal" font-weight="normal" text-decoration="none" x="213" y="558.5">«Property»+SourceName: String</text></g></g><g transform="translate(-198,-238) scale(1,1)"><g><path fill="none" stroke="none"/><text fill="#000000" stroke="none" font-family="Arial" font-size="13px" font-style="normal" font-weight="normal" text-decoration="none" x="213" y="573.5">«Property»+Time: UtcTime</text></g></g><g transform="translate(-198,-238) scale(1,1)"><g><path fill="none" stroke="none"/><text fill="#000000" stroke="none" font-family="Arial" font-size="13px" font-style="normal" font-weight="normal" text-decoration="none" x="213" y="588.5">«Property»+ReceiveTime: UtcTime</text></g></g><g transform="translate(-198,-238) scale(1,1)"><g><path fill="none" stroke="none"/><text fill="#000000" stroke="none" font-family="Arial" font-size="13px" font-style="normal" font-weight="normal" text-decoration="none" x="213" y="603.5">«Property»+LocalTime: TimeZoneDataType[0..1]</text></g></g><g transform="translate(-198,-238) scale(1,1)"><g><path fill="none" stroke="none"/><text fill="#000000" stroke="none" font-family="Arial" font-size="13px" font-style="normal" font-weight="normal" text-decoration="none" x="213" y="618.5">«Property»+Message: LocalizedText</text></g></g><g transform="translate(-198,-238) scale(1,1)"><g><path fill="none" stroke="none"/><text fill="#000000" stroke="none" font-family="Arial" font-size="13px" font-style="normal" font-weight="normal" text-decoration="none" x="213" y="633.5">«Property»+Severity: UInt16</text></g></g><g transform="translate(-198,-238) scale(1,1)"><path fill="none" stroke="#000000" d="M 344 728 L 344 638" stroke-miterlimit="10"/></g><g transform="translate(-198,-238) scale(1,1)"><path fill="#FFFFFF" stroke="none" d="M 352.419035512032 658.3253497152483 L 344 638 L 335.580964487968 658.3253497152483"/></g><g transform="translate(-198,-238) scale(1,1)"><path fill="none" stroke="#000000" d="M 352.419035512032 658.3253497152483 L 344 638 L 335.580964487968 658.3253497152483 L 352.419035512032 658.3253497152483" stroke-miterlimit="10"/></g><g transform="translate(-198,-238) scale(1,1)"><path fill="none" stroke="#000000" d="M 365 456 L 365 400" stroke-miterlimit="10"/></g><g transform="translate(-198,-238) scale(1,1)"><path fill="#FFFFFF" stroke="none" d="M 373.419035512032 420.3253497152483 L 365 400 L 356.580964487968 420.3253497152483"/></g><g transform="translate(-198,-238) scale(1,1)"><path fill="none" stroke="#000000" d="M 373.419035512032 420.3253497152483 L 365 400 L 356.580964487968 420.3253497152483 L 373.419035512032 420.3253497152483" stroke-miterlimit="10"/></g></g></svg>