<svg version="1.1" xmlns="http://www.w3.org/2000/svg" xmlns:xlink="http://www.w3.org/1999/xlink" width="1116" height="776"><defs/><g><g transform="translate(-222,-190) scale(1,1)"><path fill="#C0C0C0" stroke="none" d="M 743 511.5 L 759.5 495 L 775 511.5 L 759.5 527 L 743 511.5" opacity="0.2"/></g><g transform="translate(-222,-190) scale(1,1)"><path fill="#ffffff" stroke="none" d="M 736 504 L 752 488 L 768 504 L 752 520 L 736 504"/></g><g transform="translate(-222,-190) scale(1,1)"><path fill="none" stroke="#000000" d="M 736 504 L 752 488 L 768 504 L 752 520 L 736 504 L 736 504" stroke-miterlimit="10"/></g><g transform="translate(-222,-190) scale(1,1)"><path fill="#C0C0C0" stroke="none" d="M 1145 607 L 1325 607 Q 1335 607 1335 617 L 1335 653 Q 1335 663 1325 663 L 1145 663 Q 1135 663 1135 653 L 1135 617 Q 1135 607 1145 607 Z" opacity="0.2"/></g><g transform="translate(-222,-190) scale(1,1)"><path fill="#ffffff" stroke="none" d="M 1138 600 L 1318 600 Q 1328 600 1328 610 L 1328 646 Q 1328 656 1318 656 L 1138 656 Q 1128 656 1128 646 L 1128 610 Q 1128 600 1138 600 Z"/></g><g transform="translate(-222,-190) scale(1,1)"><path fill="none" stroke="#000000" d="M 1138 600 L 1318 600 Q 1328 600 1328 610 L 1328 646 Q 1328 656 1318 656 L 1138 656 Q 1128 656 1128 646 L 1128 610 Q 1128 600 1138 600 Z" stroke-miterlimit="10"/></g><g transform="translate(-222,-190) scale(1,1)"><g><path fill="none" stroke="none"/><text fill="#000000" stroke="none" font-family="Arial" font-size="13px" font-style="normal" font-weight="bold" text-decoration="none" x="1170.921875" y="619.5">MTStringEventType</text></g></g><g transform="translate(-222,-190) scale(1,1)"><path fill="#C0C0C0" stroke="none" d="M 1145 307 L 1325 307 Q 1335 307 1335 317 L 1335 353 Q 1335 363 1325 363 L 1145 363 Q 1135 363 1135 353 L 1135 317 Q 1135 307 1145 307 Z" opacity="0.2"/></g><g transform="translate(-222,-190) scale(1,1)"><path fill="#ffffff" stroke="none" d="M 1138 300 L 1318 300 Q 1328 300 1328 310 L 1328 346 Q 1328 356 1318 356 L 1138 356 Q 1128 356 1128 346 L 1128 310 Q 1128 300 1138 300 Z"/></g><g transform="translate(-222,-190) scale(1,1)"><path fill="none" stroke="#000000" d="M 1138 300 L 1318 300 Q 1328 300 1328 310 L 1328 346 Q 1328 356 1318 356 L 1138 356 Q 1128 356 1128 346 L 1128 310 Q 1128 300 1138 300 Z" stroke-miterlimit="10"/></g><g transform="translate(-222,-190) scale(1,1)"><g><path fill="none" stroke="none"/><text fill="#000000" stroke="none" font-family="Arial" font-size="13px" font-style="normal" font-weight="bold" text-decoration="none" x="1165.86279296875" y="319.5">MTSampleEventType</text></g></g><g transform="translate(-222,-190) scale(1,1)"><path fill="none" stroke="#000000" d="M 608 416 L 608 336 M 608 336 A 8 8 0 0 1 616 328 L 1128 328" stroke-miterlimit="10"/></g><g transform="translate(-222,-190) scale(1,1)"><path fill="none" stroke="#000000" d="M 1117.837325142376 332.209517756016 L 1128 328 L 1117.837325142376 323.790482243984" stroke-miterlimit="10"/></g><g transform="translate(-222,-190) scale(1,1)"><g><path fill="none" stroke="none"/><text fill="#000000" stroke="none" font-family="Arial" font-size="13px" font-style="normal" font-weight="normal" text-decoration="none" x="641.6328125" y="324.5">[@category='SAMPLE']</text></g></g><g transform="translate(-222,-190) scale(1,1)"><path fill="#C0C0C0" stroke="none" d="M 1145 407 L 1325 407 Q 1335 407 1335 417 L 1335 453 Q 1335 463 1325 463 L 1145 463 Q 1135 463 1135 453 L 1135 417 Q 1135 407 1145 407 Z" opacity="0.2"/></g><g transform="translate(-222,-190) scale(1,1)"><path fill="#ffffff" stroke="none" d="M 1138 400 L 1318 400 Q 1328 400 1328 410 L 1328 446 Q 1328 456 1318 456 L 1138 456 Q 1128 456 1128 446 L 1128 410 Q 1128 400 1138 400 Z"/></g><g transform="translate(-222,-190) scale(1,1)"><path fill="none" stroke="#000000" d="M 1138 400 L 1318 400 Q 1328 400 1328 410 L 1328 446 Q 1328 456 1318 456 L 1138 456 Q 1128 456 1128 446 L 1128 410 Q 1128 400 1138 400 Z" stroke-miterlimit="10"/></g><g transform="translate(-222,-190) scale(1,1)"><g><path fill="none" stroke="none"/><text fill="#000000" stroke="none" font-family="Arial" font-size="13px" font-style="normal" font-weight="bold" text-decoration="none" x="1163.70458984375" y="419.5">MTNumericEventType</text></g></g><g transform="translate(-222,-190) scale(1,1)"><path fill="none" stroke="#000000" d="M 752 488 L 752 436 M 752 436 A 8 8 0 0 1 760 428 L 1128 428" stroke-miterlimit="10"/></g><g transform="translate(-222,-190) scale(1,1)"><path fill="none" stroke="#000000" d="M 1117.837325142376 432.209517756016 L 1128 428 L 1117.837325142376 423.790482243984" stroke-miterlimit="10"/></g><g transform="translate(-222,-190) scale(1,1)"><g><path fill="none" stroke="none"/><text fill="#000000" stroke="none" font-family="Arial" font-size="13px" font-style="normal" font-weight="normal" text-decoration="none" x="825.434326171875" y="424.5">[@type in IntegerEventDataItemTypes]</text></g></g><g transform="translate(-222,-190) scale(1,1)"><path fill="#C0C0C0" stroke="none" d="M 1145 507 L 1325 507 Q 1335 507 1335 517 L 1335 553 Q 1335 563 1325 563 L 1145 563 Q 1135 563 1135 553 L 1135 517 Q 1135 507 1145 507 Z" opacity="0.2"/></g><g transform="translate(-222,-190) scale(1,1)"><path fill="#ffffff" stroke="none" d="M 1138 500 L 1318 500 Q 1328 500 1328 510 L 1328 546 Q 1328 556 1318 556 L 1138 556 Q 1128 556 1128 546 L 1128 510 Q 1128 500 1138 500 Z"/></g><g transform="translate(-222,-190) scale(1,1)"><path fill="none" stroke="#000000" d="M 1138 500 L 1318 500 Q 1328 500 1328 510 L 1328 546 Q 1328 556 1318 556 L 1138 556 Q 1128 556 1128 546 L 1128 510 Q 1128 500 1138 500 Z" stroke-miterlimit="10"/></g><g transform="translate(-222,-190) scale(1,1)"><g><path fill="none" stroke="none"/><text fill="#000000" stroke="none" font-family="Arial" font-size="13px" font-style="normal" font-weight="bold" text-decoration="none" x="1152.491455078125" y="519.5">MTEnumeratedEventType</text></g></g><g transform="translate(-222,-190) scale(1,1)"><path fill="none" stroke="#000000" d="M 848 592 L 848 536 M 848 536 A 8 8 0 0 1 856 528 L 1128 528" stroke-miterlimit="10"/></g><g transform="translate(-222,-190) scale(1,1)"><path fill="none" stroke="#000000" d="M 1117.837325142376 532.209517756016 L 1128 528 L 1117.837325142376 523.790482243984" stroke-miterlimit="10"/></g><g transform="translate(-222,-190) scale(1,1)"><g><path fill="none" stroke="none"/><text fill="#000000" stroke="none" font-family="Arial" font-size="13px" font-style="normal" font-weight="normal" text-decoration="none" x="847.5" y="524.5">[@type in EnumeratedEventDataItemTypes]</text></g></g><g transform="translate(-222,-190) scale(1,1)"><path fill="#C0C0C0" stroke="none" d="M 599 439.5 L 615.5 423 L 631 439.5 L 615.5 455 L 599 439.5" opacity="0.2"/></g><g transform="translate(-222,-190) scale(1,1)"><path fill="#ffffff" stroke="none" d="M 592 432 L 608 416 L 624 432 L 608 448 L 592 432"/></g><g transform="translate(-222,-190) scale(1,1)"><path fill="none" stroke="#000000" d="M 592 432 L 608 416 L 624 432 L 608 448 L 592 432 L 592 432" stroke-miterlimit="10"/></g><g transform="translate(-222,-190) scale(1,1)"><path fill="none" stroke="#000000" d="M 608 448 L 608 496 M 608 496 A 8 8 0 0 0 616 504 L 736 504" stroke-miterlimit="10"/></g><g transform="translate(-222,-190) scale(1,1)"><path fill="none" stroke="#000000" d="M 725.8373251423759 508.209517756016 L 736 504 L 725.8373251423758 499.790482243984" stroke-miterlimit="10"/></g><g transform="translate(-222,-190) scale(1,1)"><g><path fill="none" stroke="none"/><text fill="#000000" stroke="none" font-family="Arial" font-size="13px" font-style="normal" font-weight="normal" text-decoration="none" x="598.5" y="522.5">[@category='EVENT']</text></g></g><g transform="translate(-222,-190) scale(1,1)"><path fill="#C0C0C0" stroke="none" d="M 337 479 L 380.18994140625 479 Q 390.18994140625 479 390.18994140625 489 L 390.18994140625 509 Q 390.18994140625 519 380.18994140625 519 L 337 519 Q 327 519 327 509 L 327 489 Q 327 479 337 479 Z" opacity="0.2"/></g><g transform="translate(-222,-190) scale(1,1)"><path fill="#ffffff" stroke="none" d="M 330 472 L 373.18994140625 472 Q 383.18994140625 472 383.18994140625 482 L 383.18994140625 502 Q 383.18994140625 512 373.18994140625 512 L 330 512 Q 320 512 320 502 L 320 482 Q 320 472 330 472 Z"/></g><g transform="translate(-222,-190) scale(1,1)"><path fill="none" stroke="#000000" d="M 330 472 L 373.18994140625 472 Q 383.18994140625 472 383.18994140625 482 L 383.18994140625 502 Q 383.18994140625 512 373.18994140625 512 L 330 512 Q 320 512 320 502 L 320 482 Q 320 472 330 472 Z" stroke-miterlimit="10"/></g><g transform="translate(-222,-190) scale(1,1)"><g><path fill="none" stroke="none"/><text fill="#000000" stroke="none" font-family="Arial" font-size="13px" font-style="normal" font-weight="bold" text-decoration="none" x="326.66455078125" y="491.5">category</text></g></g><g transform="translate(-222,-190) scale(1,1)"><path fill="#C0C0C0" stroke="none" d="M 617 559 L 700 559 Q 710 559 710 569 L 710 589 Q 710 599 700 599 L 617 599 Q 607 599 607 589 L 607 569 Q 607 559 617 559 Z" opacity="0.2"/></g><g transform="translate(-222,-190) scale(1,1)"><path fill="#ffffff" stroke="none" d="M 610 552 L 693 552 Q 703 552 703 562 L 703 582 Q 703 592 693 592 L 610 592 Q 600 592 600 582 L 600 562 Q 600 552 610 552 Z"/></g><g transform="translate(-222,-190) scale(1,1)"><path fill="none" stroke="#000000" d="M 610 552 L 693 552 Q 703 552 703 562 L 703 582 Q 703 592 693 592 L 610 592 Q 600 592 600 582 L 600 562 Q 600 552 610 552 Z" stroke-miterlimit="10"/></g><g transform="translate(-222,-190) scale(1,1)"><g><path fill="none" stroke="none"/><text fill="#000000" stroke="none" font-family="Arial" font-size="13px" font-style="normal" font-weight="bold" text-decoration="none" x="639.214111328125" y="571.5">type</text></g></g><g transform="translate(-222,-190) scale(1,1)"><path fill="none" stroke="#000000" d="M 703 568 L 728 568 M 728 568 A 8 8 0 0 0 736 560 L 736 520" stroke-miterlimit="10"/></g><g transform="translate(-222,-190) scale(1,1)"><path fill="none" stroke="#000000" d="M 740.209517756016 530.1626748576241 L 736 520 L 731.790482243984 530.1626748576241" stroke-miterlimit="10"/></g><g transform="translate(-222,-190) scale(1,1)"><path fill="#C0C0C0" stroke="none" d="M 839 611.5 L 855.5 599 L 871 611.5 L 855.5 623 L 839 611.5" opacity="0.2"/></g><g transform="translate(-222,-190) scale(1,1)"><path fill="#ffffff" stroke="none" d="M 832 604 L 848 592 L 864 604 L 848 616 L 832 604"/></g><g transform="translate(-222,-190) scale(1,1)"><path fill="none" stroke="#000000" d="M 832 604 L 848 592 L 864 604 L 848 616 L 832 604 L 832 604" stroke-miterlimit="10"/></g><g transform="translate(-222,-190) scale(1,1)"><path fill="none" stroke="#000000" d="M 752 520 L 752 592 M 752 592 A 8 8 0 0 0 760 600 L 832 600" stroke-miterlimit="10"/></g><g transform="translate(-222,-190) scale(1,1)"><path fill="none" stroke="#000000" d="M 821.8373251423759 604.209517756016 L 832 600 L 821.8373251423758 595.790482243984" stroke-miterlimit="10"/></g><g transform="translate(-222,-190) scale(1,1)"><g><path fill="none" stroke="none"/><text fill="#000000" stroke="none" font-family="Arial" font-size="13px" font-style="normal" font-weight="normal" text-decoration="none" x="740.5" y="619.5">[otherwise]</text></g></g><g transform="translate(-222,-190) scale(1,1)"><path fill="none" stroke="#000000" d="M 848 616 L 848 640 M 848 640 A 8 8 0 0 0 856 648 L 1128 648" stroke-miterlimit="10"/></g><g transform="translate(-222,-190) scale(1,1)"><path fill="none" stroke="#000000" d="M 1117.837325142376 652.209517756016 L 1128 648 L 1117.837325142376 643.790482243984" stroke-miterlimit="10"/></g><g transform="translate(-222,-190) scale(1,1)"><g><path fill="none" stroke="none"/><text fill="#000000" stroke="none" font-family="Arial" font-size="13px" font-style="normal" font-weight="normal" text-decoration="none" x="926.5" y="660.5">[otherwise]</text></g></g><g transform="translate(-222,-190) scale(1,1)"><path fill="#ffffff" stroke="none" d="M 232 680 L 565 680 L 575 690 L 575 727 L 232 727 L 232 680"/></g><g transform="translate(-222,-190) scale(1,1)"><path fill="none" stroke="#000000" d="M 232 680 L 565 680 L 575 690 L 575 727 L 232 727 L 232 680 L 232 680" stroke-miterlimit="10"/></g><g transform="translate(-222,-190) scale(1,1)"><path fill="none" stroke="#000000" d="M 565 680 L 565 690 L 575 690 L 565 680" stroke-miterlimit="10"/></g><g transform="translate(-222,-190) scale(1,1)"><g><path fill="none" stroke="none"/><text fill="#000000" stroke="none" font-family="Arial" font-size="13px" font-style="normal" font-weight="normal" text-decoration="none" x="237" y="698">Add special case for Message, AssetChanged, and</text><text fill="#000000" stroke="none" font-family="Arial" font-size="13px" font-style="normal" font-weight="normal" text-decoration="none" x="237" y="711">AssdetRemoved</text></g></g><g transform="translate(-222,-190) scale(1,1)"><path fill="#C0C0C0" stroke="none" d="M 463 359.5 L 483.5 343 L 503 359.5 L 483.5 375 L 463 359.5" opacity="0.2"/></g><g transform="translate(-222,-190) scale(1,1)"><path fill="#ffffff" stroke="none" d="M 456 352 L 476 336 L 496 352 L 476 368 L 456 352"/></g><g transform="translate(-222,-190) scale(1,1)"><path fill="none" stroke="#000000" d="M 456 352 L 476 336 L 496 352 L 476 368 L 456 352 L 456 352" stroke-miterlimit="10"/></g><g transform="translate(-222,-190) scale(1,1)"><path fill="none" stroke="#000000" d="M 472 368 L 472 424 M 472 424 A 8 8 0 0 0 480 432 L 592 432" stroke-miterlimit="10"/></g><g transform="translate(-222,-190) scale(1,1)"><path fill="none" stroke="#000000" d="M 581.8373251423759 436.209517756016 L 592 432 L 581.8373251423758 427.790482243984" stroke-miterlimit="10"/></g><g transform="translate(-222,-190) scale(1,1)"><g><path fill="none" stroke="none"/><text fill="#000000" stroke="none" font-family="Arial" font-size="13px" font-style="normal" font-weight="normal" text-decoration="none" x="486.5" y="453.5">[otherwise]</text></g></g><g transform="translate(-222,-190) scale(1,1)"><path fill="#C0C0C0" stroke="none" d="M 1145 207 L 1325 207 Q 1335 207 1335 217 L 1335 253 Q 1335 263 1325 263 L 1145 263 Q 1135 263 1135 253 L 1135 217 Q 1135 207 1145 207 Z" opacity="0.2"/></g><g transform="translate(-222,-190) scale(1,1)"><path fill="#ffffff" stroke="none" d="M 1138 200 L 1318 200 Q 1328 200 1328 210 L 1328 246 Q 1328 256 1318 256 L 1138 256 Q 1128 256 1128 246 L 1128 210 Q 1128 200 1138 200 Z"/></g><g transform="translate(-222,-190) scale(1,1)"><path fill="none" stroke="#000000" d="M 1138 200 L 1318 200 Q 1328 200 1328 210 L 1328 246 Q 1328 256 1318 256 L 1138 256 Q 1128 256 1128 246 L 1128 210 Q 1128 200 1138 200 Z" stroke-miterlimit="10"/></g><g transform="translate(-222,-190) scale(1,1)"><g><path fill="none" stroke="none"/><text fill="#000000" stroke="none" font-family="Arial" font-size="13px" font-style="normal" font-weight="bold" text-decoration="none" x="1177.06005859375" y="219.5">MTConditionType</text></g></g><g transform="translate(-222,-190) scale(1,1)"><path fill="none" stroke="#000000" d="M 480 336 L 480 232 M 480 232 A 8 8 0 0 1 488 224 L 1128 224" stroke-miterlimit="10"/></g><g transform="translate(-222,-190) scale(1,1)"><path fill="none" stroke="#000000" d="M 1117.837325142376 228.209517756016 L 1128 224 L 1117.837325142376 219.790482243984" stroke-miterlimit="10"/></g><g transform="translate(-222,-190) scale(1,1)"><g><path fill="none" stroke="none"/><text fill="#000000" stroke="none" font-family="Arial" font-size="13px" font-style="normal" font-weight="normal" text-decoration="none" x="623.5" y="215.5">[@category='CONDITION']</text></g></g><g transform="translate(-222,-190) scale(1,1)"><path fill="#C0C0C0" stroke="none" d="M 1145 707 L 1325 707 Q 1335 707 1335 717 L 1335 753 Q 1335 763 1325 763 L 1145 763 Q 1135 763 1135 753 L 1135 717 Q 1135 707 1145 707 Z" opacity="0.2"/></g><g transform="translate(-222,-190) scale(1,1)"><path fill="#ffffff" stroke="none" d="M 1138 700 L 1318 700 Q 1328 700 1328 710 L 1328 746 Q 1328 756 1318 756 L 1138 756 Q 1128 756 1128 746 L 1128 710 Q 1128 700 1138 700 Z"/></g><g transform="translate(-222,-190) scale(1,1)"><path fill="none" stroke="#000000" d="M 1138 700 L 1318 700 Q 1328 700 1328 710 L 1328 746 Q 1328 756 1318 756 L 1138 756 Q 1128 756 1128 746 L 1128 710 Q 1128 700 1138 700 Z" stroke-miterlimit="10"/></g><g transform="translate(-222,-190) scale(1,1)"><g><path fill="none" stroke="none"/><text fill="#000000" stroke="none" font-family="Arial" font-size="13px" font-style="normal" font-weight="bold" text-decoration="none" x="1178.148681640625" y="719.5">MTMessageType</text></g></g><g transform="translate(-222,-190) scale(1,1)"><path fill="#C0C0C0" stroke="none" d="M 1145 807 L 1325 807 Q 1335 807 1335 817 L 1335 853 Q 1335 863 1325 863 L 1145 863 Q 1135 863 1135 853 L 1135 817 Q 1135 807 1145 807 Z" opacity="0.2"/></g><g transform="translate(-222,-190) scale(1,1)"><path fill="#ffffff" stroke="none" d="M 1138 800 L 1318 800 Q 1328 800 1328 810 L 1328 846 Q 1328 856 1318 856 L 1138 856 Q 1128 856 1128 846 L 1128 810 Q 1128 800 1138 800 Z"/></g><g transform="translate(-222,-190) scale(1,1)"><path fill="none" stroke="#000000" d="M 1138 800 L 1318 800 Q 1328 800 1328 810 L 1328 846 Q 1328 856 1318 856 L 1138 856 Q 1128 856 1128 846 L 1128 810 Q 1128 800 1138 800 Z" stroke-miterlimit="10"/></g><g transform="translate(-222,-190) scale(1,1)"><g><path fill="none" stroke="none"/><text fill="#000000" stroke="none" font-family="Arial" font-size="13px" font-style="normal" font-weight="bold" text-decoration="none" x="1162.365234375" y="819.5">MTAssetChangedType</text></g></g><g transform="translate(-222,-190) scale(1,1)"><path fill="#C0C0C0" stroke="none" d="M 1145 907 L 1325 907 Q 1335 907 1335 917 L 1335 953 Q 1335 963 1325 963 L 1145 963 Q 1135 963 1135 953 L 1135 917 Q 1135 907 1145 907 Z" opacity="0.2"/></g><g transform="translate(-222,-190) scale(1,1)"><path fill="#ffffff" stroke="none" d="M 1138 900 L 1318 900 Q 1328 900 1328 910 L 1328 946 Q 1328 956 1318 956 L 1138 956 Q 1128 956 1128 946 L 1128 910 Q 1128 900 1138 900 Z"/></g><g transform="translate(-222,-190) scale(1,1)"><path fill="none" stroke="#000000" d="M 1138 900 L 1318 900 Q 1328 900 1328 910 L 1328 946 Q 1328 956 1318 956 L 1138 956 Q 1128 956 1128 946 L 1128 910 Q 1128 900 1138 900 Z" stroke-miterlimit="10"/></g><g transform="translate(-222,-190) scale(1,1)"><g><path fill="none" stroke="none"/><text fill="#000000" stroke="none" font-family="Arial" font-size="13px" font-style="normal" font-weight="bold" text-decoration="none" x="1160.9306640625" y="919.5">MTAssetRemovedType</text></g></g><g transform="translate(-222,-190) scale(1,1)"><path fill="none" stroke="#000000" d="M 343 472 L 343 360 M 343 360 A 8 8 0 0 1 351 352 L 456 352" stroke-miterlimit="10"/></g><g transform="translate(-222,-190) scale(1,1)"><path fill="none" stroke="#000000" d="M 445.83732514237585 356.209517756016 L 456 352 L 445.83732514237585 347.790482243984" stroke-miterlimit="10"/></g><g transform="translate(-222,-190) scale(1,1)"><path fill="none" stroke="#000000" d="M 383 484 L 584 484 M 584 484 A 8 8 0 0 0 592 476 L 592 448" stroke-miterlimit="10"/></g><g transform="translate(-222,-190) scale(1,1)"><path fill="none" stroke="#000000" d="M 596.209517756016 458.16267485762415 L 592 448 L 587.790482243984 458.16267485762415" stroke-miterlimit="10"/></g></g></svg>