<svg version="1.1" xmlns="http://www.w3.org/2000/svg" xmlns:xlink="http://www.w3.org/1999/xlink" width="1509.4951171875" height="491"><defs/><g><g transform="translate(-630,-166) scale(1,1)"><rect fill="#C0C0C0" stroke="none" x="647" y="303" width="176" height="112" opacity="0.2"/></g><g transform="translate(-630,-166) scale(1,1)"><rect fill="#ffffff" stroke="none" x="640" y="296" width="176" height="112"/></g><g transform="translate(-630,-166) scale(1,1)"><path fill="none" stroke="#000000" d="M 640 296 L 816 296 L 816 408 L 640 408 L 640 296 Z Z" stroke-miterlimit="10"/></g><g transform="translate(-630,-166) scale(1,1)"><path fill="none" stroke="#000000" d="M 640 334 L 816 334" stroke-miterlimit="10"/></g><g transform="translate(-630,-166) scale(1,1)"><g><path fill="none" stroke="none"/><text fill="#000000" stroke="none" font-family="Arial" font-size="13px" font-style="normal" font-weight="normal" text-decoration="none" x="690.418701171875" y="313.5">«stereotype»</text></g></g><g transform="translate(-630,-166) scale(1,1)"><g><path fill="none" stroke="none"/><text fill="#000000" stroke="none" font-family="Arial" font-size="13px" font-style="normal" font-weight="bold" text-decoration="none" x="712.832275390625" y="328.5">mixin</text></g></g><g transform="translate(-630,-166) scale(1,1)"><rect fill="#C0C0C0" stroke="none" x="847" y="303" width="159" height="111" opacity="0.2"/></g><g transform="translate(-630,-166) scale(1,1)"><rect fill="#ffffff" stroke="none" x="840" y="296" width="159" height="111"/></g><g transform="translate(-630,-166) scale(1,1)"><path fill="none" stroke="#000000" d="M 840 296 L 999 296 L 999 407 L 840 407 L 840 296 Z Z" stroke-miterlimit="10"/></g><g transform="translate(-630,-166) scale(1,1)"><path fill="none" stroke="#000000" d="M 840 334 L 999 334" stroke-miterlimit="10"/></g><g transform="translate(-630,-166) scale(1,1)"><g><path fill="none" stroke="none"/><text fill="#000000" stroke="none" font-family="Arial" font-size="13px" font-style="normal" font-weight="normal" text-decoration="none" x="881.918701171875" y="313.5">«stereotype»</text></g></g><g transform="translate(-630,-166) scale(1,1)"><g><path fill="none" stroke="none"/><text fill="#000000" stroke="none" font-family="Arial" font-size="13px" font-style="normal" font-weight="bold" text-decoration="none" x="894.937744140625" y="328.5">MIxes In</text></g></g><g transform="translate(-630,-166) scale(1,1)"><rect fill="#C0C0C0" stroke="none" x="1031" y="303" width="207" height="111" opacity="0.2"/></g><g transform="translate(-630,-166) scale(1,1)"><rect fill="#ffffff" stroke="none" x="1024" y="296" width="207" height="111"/></g><g transform="translate(-630,-166) scale(1,1)"><path fill="none" stroke="#000000" d="M 1024 296 L 1231 296 L 1231 407 L 1024 407 L 1024 296 Z Z" stroke-miterlimit="10"/></g><g transform="translate(-630,-166) scale(1,1)"><path fill="none" stroke="#000000" d="M 1024 334 L 1231 334" stroke-miterlimit="10"/></g><g transform="translate(-630,-166) scale(1,1)"><g><path fill="none" stroke="none"/><text fill="#000000" stroke="none" font-family="Arial" font-size="13px" font-style="normal" font-weight="normal" text-decoration="none" x="1089.918701171875" y="313.5">«stereotype»</text></g></g><g transform="translate(-630,-166) scale(1,1)"><g><path fill="none" stroke="none"/><text fill="#000000" stroke="none" font-family="Arial" font-size="13px" font-style="normal" font-weight="bold" text-decoration="none" x="1068.2509765625" y="328.5">MTRelationshipType</text></g></g><g transform="translate(-630,-166) scale(1,1)"><rect fill="#C0C0C0" stroke="none" x="1031" y="183" width="193.716796875" height="62" opacity="0.2"/></g><g transform="translate(-630,-166) scale(1,1)"><rect fill="#ffffff" stroke="none" x="1024" y="176" width="193.716796875" height="62"/></g><g transform="translate(-630,-166) scale(1,1)"><path fill="none" stroke="#000000" d="M 1024 176 L 1217.716796875 176 L 1217.716796875 238 L 1024 238 L 1024 176 Z Z" stroke-miterlimit="10"/></g><g transform="translate(-630,-166) scale(1,1)"><path fill="none" stroke="#000000" d="M 1024 229 L 1217.716796875 229" stroke-miterlimit="10"/></g><g transform="translate(-630,-166) scale(1,1)"><g><path fill="none" stroke="none"/><text fill="#000000" stroke="none" font-family="Arial" font-size="13px" font-style="normal" font-weight="normal" text-decoration="none" x="1083.277099609375" y="193.5">«stereotype»</text></g></g><g transform="translate(-630,-166) scale(1,1)"><g><path fill="none" stroke="none"/><text fill="#000000" stroke="none" font-family="Arial" font-size="13px" font-style="normal" font-weight="bold" text-decoration="none" x="1033.78759765625" y="208.5">NonHierarchialReferenceType</text></g></g><g transform="translate(-630,-166) scale(1,1)"><g><path fill="none" stroke="none"/><text fill="#000000" stroke="none" font-family="Arial" font-size="13px" font-style="normal" font-weight="normal" text-decoration="none" x="1058.37841796875" y="223.5">(from OPCUA Profile)</text></g></g><g transform="translate(-630,-166) scale(1,1)"><path fill="none" stroke="#000000" d="M 1115 296 L 1115 238" stroke-miterlimit="10"/></g><g transform="translate(-630,-166) scale(1,1)"><path fill="#FFFFFF" stroke="none" d="M 1123.419035512032 258.3253497152483 L 1115 238 L 1106.580964487968 258.3253497152483"/></g><g transform="translate(-630,-166) scale(1,1)"><path fill="none" stroke="#000000" d="M 1123.419035512032 258.3253497152483 L 1115 238 L 1106.580964487968 258.3253497152483 L 1123.419035512032 258.3253497152483" stroke-miterlimit="10"/></g><g transform="translate(-630,-166) scale(1,1)"><rect fill="#C0C0C0" stroke="none" x="1295" y="303" width="223" height="103" opacity="0.2"/></g><g transform="translate(-630,-166) scale(1,1)"><rect fill="#ffffff" stroke="none" x="1288" y="296" width="223" height="103"/></g><g transform="translate(-630,-166) scale(1,1)"><path fill="none" stroke="#000000" d="M 1288 296 L 1511 296 L 1511 399 L 1288 399 L 1288 296 Z Z" stroke-miterlimit="10"/></g><g transform="translate(-630,-166) scale(1,1)"><path fill="none" stroke="#000000" d="M 1288 334 L 1511 334" stroke-miterlimit="10"/></g><g transform="translate(-630,-166) scale(1,1)"><g><path fill="none" stroke="none"/><text fill="#000000" stroke="none" font-family="Arial" font-size="13px" font-style="normal" font-weight="normal" text-decoration="none" x="1361.918701171875" y="313.5">«stereotype»</text></g></g><g transform="translate(-630,-166) scale(1,1)"><g><path fill="none" stroke="none"/><text fill="#000000" stroke="none" font-family="Arial" font-size="13px" font-style="normal" font-weight="bold" text-decoration="none" x="1358.319580078125" y="328.5">Dynamic Type</text></g></g><g transform="translate(-630,-166) scale(1,1)"><rect fill="#C0C0C0" stroke="none" x="647" y="431" width="175" height="95" opacity="0.2"/></g><g transform="translate(-630,-166) scale(1,1)"><rect fill="#ffffff" stroke="none" x="640" y="424" width="175" height="95"/></g><g transform="translate(-630,-166) scale(1,1)"><path fill="none" stroke="#000000" d="M 640 424 L 815 424 L 815 519 L 640 519 L 640 424 Z Z" stroke-miterlimit="10"/></g><g transform="translate(-630,-166) scale(1,1)"><path fill="none" stroke="#000000" d="M 640 462 L 815 462" stroke-miterlimit="10"/></g><g transform="translate(-630,-166) scale(1,1)"><g><path fill="none" stroke="none"/><text fill="#000000" stroke="none" font-family="Arial" font-size="13px" font-style="normal" font-weight="normal" text-decoration="none" x="689.918701171875" y="441.5">«stereotype»</text></g></g><g transform="translate(-630,-166) scale(1,1)"><g><path fill="none" stroke="none"/><text fill="#000000" stroke="none" font-family="Arial" font-size="13px" font-style="normal" font-weight="bold" text-decoration="none" x="715.2109375" y="456.5">bind</text></g></g><g transform="translate(-630,-166) scale(1,1)"><rect fill="#C0C0C0" stroke="none" x="1879" y="303" width="128.666015625" height="47" opacity="0.2"/></g><g transform="translate(-630,-166) scale(1,1)"><rect fill="#ffffff" stroke="none" x="1872" y="296" width="128.666015625" height="47"/></g><g transform="translate(-630,-166) scale(1,1)"><path fill="none" stroke="#000000" d="M 1872 296 L 2000.666015625 296 L 2000.666015625 343 L 1872 343 L 1872 296 Z Z" stroke-miterlimit="10"/></g><g transform="translate(-630,-166) scale(1,1)"><path fill="none" stroke="#000000" d="M 1872 334 L 2000.666015625 334" stroke-miterlimit="10"/></g><g transform="translate(-630,-166) scale(1,1)"><g><path fill="none" stroke="none"/><text fill="#000000" stroke="none" font-family="Arial" font-size="13px" font-style="normal" font-weight="normal" text-decoration="none" x="1892.968994140625" y="313.5">«enumeration»</text></g></g><g transform="translate(-630,-166) scale(1,1)"><g><path fill="none" stroke="none"/><text fill="#000000" stroke="none" font-family="Arial" font-size="13px" font-style="normal" font-weight="bold" text-decoration="none" x="1879.623046875" y="328.5">MTNativeUnitsType</text></g></g><g transform="translate(-630,-166) scale(1,1)"><rect fill="#C0C0C0" stroke="none" x="1711" y="303" width="153.23779296875" height="75" opacity="0.2"/></g><g transform="translate(-630,-166) scale(1,1)"><rect fill="#ffffff" stroke="none" x="1704" y="296" width="153.23779296875" height="75"/></g><g transform="translate(-630,-166) scale(1,1)"><path fill="none" stroke="#000000" d="M 1704 296 L 1857.23779296875 296 L 1857.23779296875 371 L 1704 371 L 1704 296 Z Z" stroke-miterlimit="10"/></g><g transform="translate(-630,-166) scale(1,1)"><path fill="none" stroke="#000000" d="M 1704 334 L 1857.23779296875 334" stroke-miterlimit="10"/></g><g transform="translate(-630,-166) scale(1,1)"><g><path fill="none" stroke="none"/><text fill="#000000" stroke="none" font-family="Arial" font-size="13px" font-style="normal" font-weight="normal" text-decoration="none" x="1737.2548828125" y="313.5">«enumeration»</text></g></g><g transform="translate(-630,-166) scale(1,1)"><g><path fill="none" stroke="none"/><text fill="#000000" stroke="none" font-family="Arial" font-size="13px" font-style="normal" font-weight="bold" text-decoration="none" x="1713.0576171875" y="328.5">CoordinateSystemType</text></g></g><g transform="translate(-630,-166) scale(1,1)"><g><path fill="none" stroke="none"/><text fill="#000000" stroke="none" font-family="Arial" font-size="13px" font-style="normal" font-weight="normal" text-decoration="none" x="1709" y="351.5">MACHINE</text></g></g><g transform="translate(-630,-166) scale(1,1)"><g><path fill="none" stroke="none"/><text fill="#000000" stroke="none" font-family="Arial" font-size="13px" font-style="normal" font-weight="normal" text-decoration="none" x="1709" y="366.5">WORK</text></g></g><g transform="translate(-630,-166) scale(1,1)"><rect fill="#C0C0C0" stroke="none" x="1543" y="303" width="151.77783203125" height="90" opacity="0.2"/></g><g transform="translate(-630,-166) scale(1,1)"><rect fill="#ffffff" stroke="none" x="1536" y="296" width="151.77783203125" height="90"/></g><g transform="translate(-630,-166) scale(1,1)"><path fill="none" stroke="#000000" d="M 1536 296 L 1687.77783203125 296 L 1687.77783203125 386 L 1536 386 L 1536 296 Z Z" stroke-miterlimit="10"/></g><g transform="translate(-630,-166) scale(1,1)"><path fill="none" stroke="#000000" d="M 1536 334 L 1687.77783203125 334" stroke-miterlimit="10"/></g><g transform="translate(-630,-166) scale(1,1)"><g><path fill="none" stroke="none"/><text fill="#000000" stroke="none" font-family="Arial" font-size="13px" font-style="normal" font-weight="normal" text-decoration="none" x="1568.52490234375" y="313.5">«enumeration»</text></g></g><g transform="translate(-630,-166) scale(1,1)"><g><path fill="none" stroke="none"/><text fill="#000000" stroke="none" font-family="Arial" font-size="13px" font-style="normal" font-weight="bold" text-decoration="none" x="1544.32763671875" y="328.5">MTRepresentationType</text></g></g><g transform="translate(-630,-166) scale(1,1)"><g><path fill="none" stroke="none"/><text fill="#000000" stroke="none" font-family="Arial" font-size="13px" font-style="normal" font-weight="normal" text-decoration="none" x="1541" y="351.5">VALUE</text></g></g><g transform="translate(-630,-166) scale(1,1)"><g><path fill="none" stroke="none"/><text fill="#000000" stroke="none" font-family="Arial" font-size="13px" font-style="normal" font-weight="normal" text-decoration="none" x="1541" y="366.5">TIME_SERIES</text></g></g><g transform="translate(-630,-166) scale(1,1)"><g><path fill="none" stroke="none"/><text fill="#000000" stroke="none" font-family="Arial" font-size="13px" font-style="normal" font-weight="normal" text-decoration="none" x="1541" y="381.5">DISCRETE</text></g></g><g transform="translate(-630,-166) scale(1,1)"><rect fill="#C0C0C0" stroke="none" x="2023" y="303" width="113.4951171875" height="90" opacity="0.2"/></g><g transform="translate(-630,-166) scale(1,1)"><rect fill="#ffffff" stroke="none" x="2016" y="296" width="113.4951171875" height="90"/></g><g transform="translate(-630,-166) scale(1,1)"><path fill="none" stroke="#000000" d="M 2016 296 L 2129.4951171875 296 L 2129.4951171875 386 L 2016 386 L 2016 296 Z Z" stroke-miterlimit="10"/></g><g transform="translate(-630,-166) scale(1,1)"><path fill="none" stroke="#000000" d="M 2016 334 L 2129.4951171875 334" stroke-miterlimit="10"/></g><g transform="translate(-630,-166) scale(1,1)"><g><path fill="none" stroke="none"/><text fill="#000000" stroke="none" font-family="Arial" font-size="13px" font-style="normal" font-weight="normal" text-decoration="none" x="2029.383544921875" y="313.5">«enumeration»</text></g></g><g transform="translate(-630,-166) scale(1,1)"><g><path fill="none" stroke="none"/><text fill="#000000" stroke="none" font-family="Arial" font-size="13px" font-style="normal" font-weight="bold" text-decoration="none" x="2022.896240234375" y="328.5">MTCategoryType</text></g></g><g transform="translate(-630,-166) scale(1,1)"><g><path fill="none" stroke="none"/><text fill="#000000" stroke="none" font-family="Arial" font-size="13px" font-style="normal" font-weight="normal" text-decoration="none" x="2021" y="351.5">EVENT</text></g></g><g transform="translate(-630,-166) scale(1,1)"><g><path fill="none" stroke="none"/><text fill="#000000" stroke="none" font-family="Arial" font-size="13px" font-style="normal" font-weight="normal" text-decoration="none" x="2021" y="366.5">SAMPLE</text></g></g><g transform="translate(-630,-166) scale(1,1)"><g><path fill="none" stroke="none"/><text fill="#000000" stroke="none" font-family="Arial" font-size="13px" font-style="normal" font-weight="normal" text-decoration="none" x="2021" y="381.5">CONDITION</text></g></g><g transform="translate(-630,-166) scale(1,1)"><rect fill="#C0C0C0" stroke="none" x="1543" y="407" width="162.65771484375" height="180" opacity="0.2"/></g><g transform="translate(-630,-166) scale(1,1)"><rect fill="#ffffff" stroke="none" x="1536" y="400" width="162.65771484375" height="180"/></g><g transform="translate(-630,-166) scale(1,1)"><path fill="none" stroke="#000000" d="M 1536 400 L 1698.65771484375 400 L 1698.65771484375 580 L 1536 580 L 1536 400 Z Z" stroke-miterlimit="10"/></g><g transform="translate(-630,-166) scale(1,1)"><path fill="none" stroke="#000000" d="M 1536 438 L 1698.65771484375 438" stroke-miterlimit="10"/></g><g transform="translate(-630,-166) scale(1,1)"><g><path fill="none" stroke="none"/><text fill="#000000" stroke="none" font-family="Arial" font-size="13px" font-style="normal" font-weight="normal" text-decoration="none" x="1573.96484375" y="417.5">«enumeration»</text></g></g><g transform="translate(-630,-166) scale(1,1)"><g><path fill="none" stroke="none"/><text fill="#000000" stroke="none" font-family="Arial" font-size="13px" font-style="normal" font-weight="bold" text-decoration="none" x="1543.74365234375" y="432.5">DataItemResetValueType</text></g></g><g transform="translate(-630,-166) scale(1,1)"><g><path fill="none" stroke="none"/><text fill="#000000" stroke="none" font-family="Arial" font-size="13px" font-style="normal" font-weight="normal" text-decoration="none" x="1541" y="455.5">ACTION_COMPLETE</text></g></g><g transform="translate(-630,-166) scale(1,1)"><g><path fill="none" stroke="none"/><text fill="#000000" stroke="none" font-family="Arial" font-size="13px" font-style="normal" font-weight="normal" text-decoration="none" x="1541" y="470.5">ANNUAL</text></g></g><g transform="translate(-630,-166) scale(1,1)"><g><path fill="none" stroke="none"/><text fill="#000000" stroke="none" font-family="Arial" font-size="13px" font-style="normal" font-weight="normal" text-decoration="none" x="1541" y="485.5">DAY</text></g></g><g transform="translate(-630,-166) scale(1,1)"><g><path fill="none" stroke="none"/><text fill="#000000" stroke="none" font-family="Arial" font-size="13px" font-style="normal" font-weight="normal" text-decoration="none" x="1541" y="500.5">MAINTENANCE</text></g></g><g transform="translate(-630,-166) scale(1,1)"><g><path fill="none" stroke="none"/><text fill="#000000" stroke="none" font-family="Arial" font-size="13px" font-style="normal" font-weight="normal" text-decoration="none" x="1541" y="515.5">MANUAL</text></g></g><g transform="translate(-630,-166) scale(1,1)"><g><path fill="none" stroke="none"/><text fill="#000000" stroke="none" font-family="Arial" font-size="13px" font-style="normal" font-weight="normal" text-decoration="none" x="1541" y="530.5">MONTH</text></g></g><g transform="translate(-630,-166) scale(1,1)"><g><path fill="none" stroke="none"/><text fill="#000000" stroke="none" font-family="Arial" font-size="13px" font-style="normal" font-weight="normal" text-decoration="none" x="1541" y="545.5">POWER_ON</text></g></g><g transform="translate(-630,-166) scale(1,1)"><g><path fill="none" stroke="none"/><text fill="#000000" stroke="none" font-family="Arial" font-size="13px" font-style="normal" font-weight="normal" text-decoration="none" x="1541" y="560.5">SHIFT</text></g></g><g transform="translate(-630,-166) scale(1,1)"><g><path fill="none" stroke="none"/><text fill="#000000" stroke="none" font-family="Arial" font-size="13px" font-style="normal" font-weight="normal" text-decoration="none" x="1541" y="575.5">WEEK</text></g></g><g transform="translate(-630,-166) scale(1,1)"><rect fill="#C0C0C0" stroke="none" x="1719" y="407" width="95.72802734375" height="47" opacity="0.2"/></g><g transform="translate(-630,-166) scale(1,1)"><rect fill="#ffffff" stroke="none" x="1712" y="400" width="95.72802734375" height="47"/></g><g transform="translate(-630,-166) scale(1,1)"><path fill="none" stroke="#000000" d="M 1712 400 L 1807.72802734375 400 L 1807.72802734375 447 L 1712 447 L 1712 400 Z Z" stroke-miterlimit="10"/></g><g transform="translate(-630,-166) scale(1,1)"><path fill="none" stroke="#000000" d="M 1712 438 L 1807.72802734375 438" stroke-miterlimit="10"/></g><g transform="translate(-630,-166) scale(1,1)"><g><path fill="none" stroke="none"/><text fill="#000000" stroke="none" font-family="Arial" font-size="13px" font-style="normal" font-weight="normal" text-decoration="none" x="1716.5" y="417.5">«enumeration»</text></g></g><g transform="translate(-630,-166) scale(1,1)"><g><path fill="none" stroke="none"/><text fill="#000000" stroke="none" font-family="Arial" font-size="13px" font-style="normal" font-weight="bold" text-decoration="none" x="1721.578125" y="432.5">MTUnitsType</text></g></g><g transform="translate(-630,-166) scale(1,1)"><rect fill="#C0C0C0" stroke="none" x="839" y="431" width="175" height="96" opacity="0.2"/></g><g transform="translate(-630,-166) scale(1,1)"><rect fill="#ffffff" stroke="none" x="832" y="424" width="175" height="96"/></g><g transform="translate(-630,-166) scale(1,1)"><path fill="none" stroke="#000000" d="M 832 424 L 1007 424 L 1007 520 L 832 520 L 832 424 Z Z" stroke-miterlimit="10"/></g><g transform="translate(-630,-166) scale(1,1)"><path fill="none" stroke="#000000" d="M 832 462 L 1007 462" stroke-miterlimit="10"/></g><g transform="translate(-630,-166) scale(1,1)"><g><path fill="none" stroke="none"/><text fill="#000000" stroke="none" font-family="Arial" font-size="13px" font-style="normal" font-weight="normal" text-decoration="none" x="881.918701171875" y="441.5">«stereotype»</text></g></g><g transform="translate(-630,-166) scale(1,1)"><g><path fill="none" stroke="none"/><text fill="#000000" stroke="none" font-family="Arial" font-size="13px" font-style="normal" font-weight="bold" text-decoration="none" x="889.87548828125" y="456.5">constrains</text></g></g><g transform="translate(-630,-166) scale(1,1)"><rect fill="#C0C0C0" stroke="none" x="1031" y="431" width="167" height="111" opacity="0.2"/></g><g transform="translate(-630,-166) scale(1,1)"><rect fill="#ffffff" stroke="none" x="1024" y="424" width="167" height="111"/></g><g transform="translate(-630,-166) scale(1,1)"><path fill="none" stroke="#000000" d="M 1024 424 L 1191 424 L 1191 535 L 1024 535 L 1024 424 Z Z" stroke-miterlimit="10"/></g><g transform="translate(-630,-166) scale(1,1)"><path fill="none" stroke="#000000" d="M 1024 462 L 1191 462" stroke-miterlimit="10"/></g><g transform="translate(-630,-166) scale(1,1)"><g><path fill="none" stroke="none"/><text fill="#000000" stroke="none" font-family="Arial" font-size="13px" font-style="normal" font-weight="normal" text-decoration="none" x="1069.918701171875" y="441.5">«stereotype»</text></g></g><g transform="translate(-630,-166) scale(1,1)"><g><path fill="none" stroke="none"/><text fill="#000000" stroke="none" font-family="Arial" font-size="13px" font-style="normal" font-weight="bold" text-decoration="none" x="1069.931396484375" y="456.5">Type Factory</text></g></g><g transform="translate(-630,-166) scale(1,1)"><rect fill="#C0C0C0" stroke="none" x="1247" y="439" width="175" height="87" opacity="0.2"/></g><g transform="translate(-630,-166) scale(1,1)"><rect fill="#ffffff" stroke="none" x="1240" y="432" width="175" height="87"/></g><g transform="translate(-630,-166) scale(1,1)"><path fill="none" stroke="#000000" d="M 1240 432 L 1415 432 L 1415 519 L 1240 519 L 1240 432 Z Z" stroke-miterlimit="10"/></g><g transform="translate(-630,-166) scale(1,1)"><path fill="none" stroke="#000000" d="M 1240 470 L 1415 470" stroke-miterlimit="10"/></g><g transform="translate(-630,-166) scale(1,1)"><g><path fill="none" stroke="none"/><text fill="#000000" stroke="none" font-family="Arial" font-size="13px" font-style="normal" font-weight="normal" text-decoration="none" x="1289.918701171875" y="449.5">«stereotype»</text></g></g><g transform="translate(-630,-166) scale(1,1)"><g><path fill="none" stroke="none"/><text fill="#000000" stroke="none" font-family="Arial" font-size="13px" font-style="normal" font-weight="bold" text-decoration="none" x="1317.02001953125" y="464.5">use</text></g></g><g transform="translate(-630,-166) scale(1,1)"><rect fill="#C0C0C0" stroke="none" x="647" y="543" width="175" height="111" opacity="0.2"/></g><g transform="translate(-630,-166) scale(1,1)"><rect fill="#ffffff" stroke="none" x="640" y="536" width="175" height="111"/></g><g transform="translate(-630,-166) scale(1,1)"><path fill="none" stroke="#000000" d="M 640 536 L 815 536 L 815 647 L 640 647 L 640 536 Z Z" stroke-miterlimit="10"/></g><g transform="translate(-630,-166) scale(1,1)"><path fill="none" stroke="#000000" d="M 640 574 L 815 574" stroke-miterlimit="10"/></g><g transform="translate(-630,-166) scale(1,1)"><g><path fill="none" stroke="none"/><text fill="#000000" stroke="none" font-family="Arial" font-size="13px" font-style="normal" font-weight="normal" text-decoration="none" x="689.918701171875" y="553.5">«stereotype»</text></g></g><g transform="translate(-630,-166) scale(1,1)"><g><path fill="none" stroke="none"/><text fill="#000000" stroke="none" font-family="Arial" font-size="13px" font-style="normal" font-weight="bold" text-decoration="none" x="685.2373046875" y="568.5">Object Factory</text></g></g><g transform="translate(-630,-166) scale(1,1)"><rect fill="#C0C0C0" stroke="none" x="839" y="543" width="175" height="111" opacity="0.2"/></g><g transform="translate(-630,-166) scale(1,1)"><rect fill="#ffffff" stroke="none" x="832" y="536" width="175" height="111"/></g><g transform="translate(-630,-166) scale(1,1)"><path fill="none" stroke="#000000" d="M 832 536 L 1007 536 L 1007 647 L 832 647 L 832 536 Z Z" stroke-miterlimit="10"/></g><g transform="translate(-630,-166) scale(1,1)"><path fill="none" stroke="#000000" d="M 832 574 L 1007 574" stroke-miterlimit="10"/></g><g transform="translate(-630,-166) scale(1,1)"><g><path fill="none" stroke="none"/><text fill="#000000" stroke="none" font-family="Arial" font-size="13px" font-style="normal" font-weight="normal" text-decoration="none" x="881.918701171875" y="553.5">«stereotype»</text></g></g><g transform="translate(-630,-166) scale(1,1)"><g><path fill="none" stroke="none"/><text fill="#000000" stroke="none" font-family="Arial" font-size="13px" font-style="normal" font-weight="bold" text-decoration="none" x="870.734130859375" y="568.5">MTConnect XML</text></g></g></g></svg>